G04 #@! TF.FileFunction,Soldermask,Bot*
%FSLAX46Y46*%
G04 Gerber Fmt 4.6, Leading zero omitted, Abs format (unit mm)*
G04 Created by KiCad (PCBNEW 4.0.4-stable) date 12/28/16 01:03:40*
%MOMM*%
%LPD*%
G01*
G04 APERTURE LIST*
%ADD10C,0.100000*%
%ADD11O,1.924000X2.432000*%
%ADD12C,1.901140*%
%ADD13C,3.399740*%
%ADD14C,4.464000*%
%ADD15R,3.900120X3.900120*%
%ADD16O,1.650000X1.350000*%
%ADD17O,1.400000X1.950000*%
%ADD18C,2.686000*%
%ADD19C,2.178000*%
%ADD20C,2.432000*%
%ADD21O,2.000000X2.700000*%
%ADD22C,2.200000*%
%ADD23R,2.200000X2.200000*%
%ADD24C,1.797000*%
%ADD25R,1.924000X1.924000*%
%ADD26C,1.924000*%
%ADD27R,2.432000X2.127200*%
%ADD28O,2.432000X2.127200*%
%ADD29R,1.700000X1.700000*%
%ADD30C,1.700000*%
G04 APERTURE END LIST*
D10*
D11*
X74549000Y-45974000D03*
X72009000Y-45974000D03*
X69469000Y-45974000D03*
X66929000Y-45974000D03*
X64389000Y-45974000D03*
X61849000Y-45974000D03*
X59309000Y-45974000D03*
X56769000Y-45974000D03*
X54229000Y-45974000D03*
X51689000Y-45974000D03*
X49149000Y-45974000D03*
X49149000Y-61214000D03*
X51689000Y-61214000D03*
X54229000Y-61214000D03*
X56769000Y-61214000D03*
X59309000Y-61214000D03*
X61849000Y-61214000D03*
X64389000Y-61214000D03*
X66929000Y-61214000D03*
X69469000Y-61214000D03*
X72009000Y-61214000D03*
X74549000Y-61214000D03*
X77089000Y-45974000D03*
X77089000Y-61214000D03*
D12*
X13210120Y-42418860D03*
X13210120Y-39878860D03*
X13210120Y-37846860D03*
X13210120Y-35306860D03*
D13*
X10543120Y-45466860D03*
X10543120Y-31750860D03*
D14*
X44450000Y-60198000D03*
X120142000Y-43688000D03*
X109220000Y-7112000D03*
D15*
X122174000Y-12296140D03*
X122174000Y-6296660D03*
X117475000Y-9296400D03*
D16*
X66000900Y-4356540D03*
X61000900Y-4356540D03*
D17*
X67000900Y-1656540D03*
X60000900Y-1656540D03*
D18*
X9652000Y-51308000D03*
X3302000Y-53848000D03*
X122428000Y-51308000D03*
X116078000Y-53848000D03*
D19*
X19050000Y-40513000D03*
X21590000Y-40513000D03*
D20*
X24130000Y-40513000D03*
D19*
X34290000Y-40513000D03*
D20*
X19050000Y-62103000D03*
D19*
X21590000Y-62103000D03*
X36830000Y-62103000D03*
D21*
X17272000Y-36830000D03*
X19812000Y-36830000D03*
X22352000Y-36830000D03*
X24892000Y-36830000D03*
X27432000Y-36830000D03*
X29972000Y-36830000D03*
X32512000Y-36830000D03*
X35052000Y-36830000D03*
X35052000Y-29210000D03*
X32512000Y-29210000D03*
X29972000Y-29210000D03*
X27432000Y-29210000D03*
X24892000Y-29210000D03*
X22352000Y-29210000D03*
X19812000Y-29210000D03*
X17272000Y-29210000D03*
X41910000Y-36830000D03*
X44450000Y-36830000D03*
X46990000Y-36830000D03*
X49530000Y-36830000D03*
X52070000Y-36830000D03*
X54610000Y-36830000D03*
X57150000Y-36830000D03*
X59690000Y-36830000D03*
X59690000Y-29210000D03*
X57150000Y-29210000D03*
X54610000Y-29210000D03*
X52070000Y-29210000D03*
X49530000Y-29210000D03*
X46990000Y-29210000D03*
X44450000Y-29210000D03*
X41910000Y-29210000D03*
X67310000Y-36830000D03*
X69850000Y-36830000D03*
X72390000Y-36830000D03*
X74930000Y-36830000D03*
X77470000Y-36830000D03*
X80010000Y-36830000D03*
X82550000Y-36830000D03*
X85090000Y-36830000D03*
X85090000Y-29210000D03*
X82550000Y-29210000D03*
X80010000Y-29210000D03*
X77470000Y-29210000D03*
X74930000Y-29210000D03*
X72390000Y-29210000D03*
X69850000Y-29210000D03*
X67310000Y-29210000D03*
X91948000Y-36830000D03*
X94488000Y-36830000D03*
X97028000Y-36830000D03*
X99568000Y-36830000D03*
X102108000Y-36830000D03*
X104648000Y-36830000D03*
X107188000Y-36830000D03*
X109728000Y-36830000D03*
X109728000Y-29210000D03*
X107188000Y-29210000D03*
X104648000Y-29210000D03*
X102108000Y-29210000D03*
X99568000Y-29210000D03*
X97028000Y-29210000D03*
X94488000Y-29210000D03*
X91948000Y-29210000D03*
D22*
X27940000Y-22260000D03*
X25267158Y-21601013D03*
X23206966Y-19775102D03*
X22231645Y-17200787D03*
X22564752Y-14468135D03*
X24129935Y-12203505D03*
X26568433Y-10925978D03*
X29321311Y-10928380D03*
X31757576Y-12210161D03*
X33318803Y-14477520D03*
X33647140Y-17210749D03*
X32667328Y-19783357D03*
X30603952Y-21605671D03*
X48260000Y-22260000D03*
X45587158Y-21601013D03*
X43526966Y-19775102D03*
X42551645Y-17200787D03*
X42884752Y-14468135D03*
X44449935Y-12203505D03*
X46888433Y-10925978D03*
X49641311Y-10928380D03*
X52077576Y-12210161D03*
X53638803Y-14477520D03*
X53967140Y-17210749D03*
X52987328Y-19783357D03*
X50923952Y-21605671D03*
X78740000Y-22260000D03*
X76067158Y-21601013D03*
X74006966Y-19775102D03*
X73031645Y-17200787D03*
X73364752Y-14468135D03*
X74929935Y-12203505D03*
X77368433Y-10925978D03*
X80121311Y-10928380D03*
X82557576Y-12210161D03*
X84118803Y-14477520D03*
X84447140Y-17210749D03*
X83467328Y-19783357D03*
X81403952Y-21605671D03*
X99060000Y-22260000D03*
X96387158Y-21601013D03*
X94326966Y-19775102D03*
X93351645Y-17200787D03*
X93684752Y-14468135D03*
X95249935Y-12203505D03*
X97688433Y-10925978D03*
X100441311Y-10928380D03*
X102877576Y-12210161D03*
X104438803Y-14477520D03*
X104767140Y-17210749D03*
X103787328Y-19783357D03*
X101723952Y-21605671D03*
D23*
X12700000Y-14986000D03*
D22*
X12700000Y-18034000D03*
D23*
X63500000Y-14986000D03*
D22*
X63500000Y-18034000D03*
D23*
X114300000Y-14986000D03*
D22*
X114300000Y-18034000D03*
D24*
X12700000Y-3810000D03*
X12700000Y-11430000D03*
X59690000Y-11938000D03*
X67310000Y-11938000D03*
X114300000Y-3810000D03*
X114300000Y-11430000D03*
X44450000Y-56896000D03*
X44450000Y-49276000D03*
X12700000Y-28575000D03*
X12700000Y-20955000D03*
X63500000Y-28702000D03*
X63500000Y-21082000D03*
X114300000Y-28702000D03*
X114300000Y-21082000D03*
X44450000Y-39624000D03*
X44450000Y-47244000D03*
X34290000Y-25654000D03*
X41910000Y-25654000D03*
X53848000Y-25654000D03*
X61468000Y-25654000D03*
X73152000Y-25654000D03*
X65532000Y-25654000D03*
X92456000Y-25654000D03*
X84836000Y-25654000D03*
D25*
X93980000Y-5080000D03*
D26*
X83820000Y-5080000D03*
D27*
X124968000Y-36830000D03*
D28*
X124968000Y-39370000D03*
X124968000Y-41910000D03*
X124968000Y-44450000D03*
D29*
X84836000Y-47752000D03*
D30*
X87336000Y-47752000D03*
D29*
X94488000Y-47752000D03*
D30*
X96988000Y-47752000D03*
D29*
X104140000Y-47752000D03*
D30*
X106640000Y-47752000D03*
D14*
X3810000Y-3810000D03*
D27*
X124968000Y-19050000D03*
D28*
X124968000Y-21590000D03*
X124968000Y-24130000D03*
D27*
X2032000Y-19050000D03*
D28*
X2032000Y-21590000D03*
X2032000Y-24130000D03*
D26*
X54610000Y-5080000D03*
X57150000Y-5080000D03*
X52070000Y-5080000D03*
X63500000Y-8255000D03*
X66040000Y-8255000D03*
X60960000Y-8255000D03*
X72390000Y-5080000D03*
X74930000Y-5080000D03*
X69850000Y-5080000D03*
M02*
