G04 #@! TF.FileFunction,Copper,L2,Bot,Signal*
%FSLAX46Y46*%
G04 Gerber Fmt 4.6, Leading zero omitted, Abs format (unit mm)*
G04 Created by KiCad (PCBNEW 4.0.4-stable) date 12/28/16 01:03:40*
%MOMM*%
%LPD*%
G01*
G04 APERTURE LIST*
%ADD10C,0.100000*%
%ADD11O,1.524000X2.032000*%
%ADD12C,1.501140*%
%ADD13C,2.999740*%
%ADD14C,4.064000*%
%ADD15R,3.500120X3.500120*%
%ADD16O,1.250000X0.950000*%
%ADD17O,1.000000X1.550000*%
%ADD18C,2.286000*%
%ADD19C,1.778000*%
%ADD20C,2.032000*%
%ADD21O,1.600000X2.300000*%
%ADD22C,1.800000*%
%ADD23R,1.800000X1.800000*%
%ADD24C,1.397000*%
%ADD25R,1.524000X1.524000*%
%ADD26C,1.524000*%
%ADD27R,2.032000X1.727200*%
%ADD28O,2.032000X1.727200*%
%ADD29R,1.300000X1.300000*%
%ADD30C,1.300000*%
%ADD31C,0.711200*%
%ADD32C,0.965200*%
%ADD33C,0.254000*%
%ADD34C,0.406400*%
G04 APERTURE END LIST*
D10*
D11*
X74549000Y-45974000D03*
X72009000Y-45974000D03*
X69469000Y-45974000D03*
X66929000Y-45974000D03*
X64389000Y-45974000D03*
X61849000Y-45974000D03*
X59309000Y-45974000D03*
X56769000Y-45974000D03*
X54229000Y-45974000D03*
X51689000Y-45974000D03*
X49149000Y-45974000D03*
X49149000Y-61214000D03*
X51689000Y-61214000D03*
X54229000Y-61214000D03*
X56769000Y-61214000D03*
X59309000Y-61214000D03*
X61849000Y-61214000D03*
X64389000Y-61214000D03*
X66929000Y-61214000D03*
X69469000Y-61214000D03*
X72009000Y-61214000D03*
X74549000Y-61214000D03*
X77089000Y-45974000D03*
X77089000Y-61214000D03*
D12*
X13210120Y-42418860D03*
X13210120Y-39878860D03*
X13210120Y-37846860D03*
X13210120Y-35306860D03*
D13*
X10543120Y-45466860D03*
X10543120Y-31750860D03*
D14*
X44450000Y-60198000D03*
X120142000Y-43688000D03*
X109220000Y-7112000D03*
D15*
X122174000Y-12296140D03*
X122174000Y-6296660D03*
X117475000Y-9296400D03*
D16*
X66000900Y-4356540D03*
X61000900Y-4356540D03*
D17*
X67000900Y-1656540D03*
X60000900Y-1656540D03*
D18*
X9652000Y-51308000D03*
X3302000Y-53848000D03*
X122428000Y-51308000D03*
X116078000Y-53848000D03*
D19*
X19050000Y-40513000D03*
X21590000Y-40513000D03*
D20*
X24130000Y-40513000D03*
D19*
X34290000Y-40513000D03*
D20*
X19050000Y-62103000D03*
D19*
X21590000Y-62103000D03*
X36830000Y-62103000D03*
D21*
X17272000Y-36830000D03*
X19812000Y-36830000D03*
X22352000Y-36830000D03*
X24892000Y-36830000D03*
X27432000Y-36830000D03*
X29972000Y-36830000D03*
X32512000Y-36830000D03*
X35052000Y-36830000D03*
X35052000Y-29210000D03*
X32512000Y-29210000D03*
X29972000Y-29210000D03*
X27432000Y-29210000D03*
X24892000Y-29210000D03*
X22352000Y-29210000D03*
X19812000Y-29210000D03*
X17272000Y-29210000D03*
X41910000Y-36830000D03*
X44450000Y-36830000D03*
X46990000Y-36830000D03*
X49530000Y-36830000D03*
X52070000Y-36830000D03*
X54610000Y-36830000D03*
X57150000Y-36830000D03*
X59690000Y-36830000D03*
X59690000Y-29210000D03*
X57150000Y-29210000D03*
X54610000Y-29210000D03*
X52070000Y-29210000D03*
X49530000Y-29210000D03*
X46990000Y-29210000D03*
X44450000Y-29210000D03*
X41910000Y-29210000D03*
X67310000Y-36830000D03*
X69850000Y-36830000D03*
X72390000Y-36830000D03*
X74930000Y-36830000D03*
X77470000Y-36830000D03*
X80010000Y-36830000D03*
X82550000Y-36830000D03*
X85090000Y-36830000D03*
X85090000Y-29210000D03*
X82550000Y-29210000D03*
X80010000Y-29210000D03*
X77470000Y-29210000D03*
X74930000Y-29210000D03*
X72390000Y-29210000D03*
X69850000Y-29210000D03*
X67310000Y-29210000D03*
X91948000Y-36830000D03*
X94488000Y-36830000D03*
X97028000Y-36830000D03*
X99568000Y-36830000D03*
X102108000Y-36830000D03*
X104648000Y-36830000D03*
X107188000Y-36830000D03*
X109728000Y-36830000D03*
X109728000Y-29210000D03*
X107188000Y-29210000D03*
X104648000Y-29210000D03*
X102108000Y-29210000D03*
X99568000Y-29210000D03*
X97028000Y-29210000D03*
X94488000Y-29210000D03*
X91948000Y-29210000D03*
D22*
X27940000Y-22260000D03*
X25267158Y-21601013D03*
X23206966Y-19775102D03*
X22231645Y-17200787D03*
X22564752Y-14468135D03*
X24129935Y-12203505D03*
X26568433Y-10925978D03*
X29321311Y-10928380D03*
X31757576Y-12210161D03*
X33318803Y-14477520D03*
X33647140Y-17210749D03*
X32667328Y-19783357D03*
X30603952Y-21605671D03*
X48260000Y-22260000D03*
X45587158Y-21601013D03*
X43526966Y-19775102D03*
X42551645Y-17200787D03*
X42884752Y-14468135D03*
X44449935Y-12203505D03*
X46888433Y-10925978D03*
X49641311Y-10928380D03*
X52077576Y-12210161D03*
X53638803Y-14477520D03*
X53967140Y-17210749D03*
X52987328Y-19783357D03*
X50923952Y-21605671D03*
X78740000Y-22260000D03*
X76067158Y-21601013D03*
X74006966Y-19775102D03*
X73031645Y-17200787D03*
X73364752Y-14468135D03*
X74929935Y-12203505D03*
X77368433Y-10925978D03*
X80121311Y-10928380D03*
X82557576Y-12210161D03*
X84118803Y-14477520D03*
X84447140Y-17210749D03*
X83467328Y-19783357D03*
X81403952Y-21605671D03*
X99060000Y-22260000D03*
X96387158Y-21601013D03*
X94326966Y-19775102D03*
X93351645Y-17200787D03*
X93684752Y-14468135D03*
X95249935Y-12203505D03*
X97688433Y-10925978D03*
X100441311Y-10928380D03*
X102877576Y-12210161D03*
X104438803Y-14477520D03*
X104767140Y-17210749D03*
X103787328Y-19783357D03*
X101723952Y-21605671D03*
D23*
X12700000Y-14986000D03*
D22*
X12700000Y-18034000D03*
D23*
X63500000Y-14986000D03*
D22*
X63500000Y-18034000D03*
D23*
X114300000Y-14986000D03*
D22*
X114300000Y-18034000D03*
D24*
X12700000Y-3810000D03*
X12700000Y-11430000D03*
X59690000Y-11938000D03*
X67310000Y-11938000D03*
X114300000Y-3810000D03*
X114300000Y-11430000D03*
X44450000Y-56896000D03*
X44450000Y-49276000D03*
X12700000Y-28575000D03*
X12700000Y-20955000D03*
X63500000Y-28702000D03*
X63500000Y-21082000D03*
X114300000Y-28702000D03*
X114300000Y-21082000D03*
X44450000Y-39624000D03*
X44450000Y-47244000D03*
X34290000Y-25654000D03*
X41910000Y-25654000D03*
X53848000Y-25654000D03*
X61468000Y-25654000D03*
X73152000Y-25654000D03*
X65532000Y-25654000D03*
X92456000Y-25654000D03*
X84836000Y-25654000D03*
D25*
X93980000Y-5080000D03*
D26*
X83820000Y-5080000D03*
D27*
X124968000Y-36830000D03*
D28*
X124968000Y-39370000D03*
X124968000Y-41910000D03*
X124968000Y-44450000D03*
D29*
X84836000Y-47752000D03*
D30*
X87336000Y-47752000D03*
D29*
X94488000Y-47752000D03*
D30*
X96988000Y-47752000D03*
D29*
X104140000Y-47752000D03*
D30*
X106640000Y-47752000D03*
D14*
X3810000Y-3810000D03*
D27*
X124968000Y-19050000D03*
D28*
X124968000Y-21590000D03*
X124968000Y-24130000D03*
D27*
X2032000Y-19050000D03*
D28*
X2032000Y-21590000D03*
X2032000Y-24130000D03*
D26*
X54610000Y-5080000D03*
X57150000Y-5080000D03*
X52070000Y-5080000D03*
X63500000Y-8255000D03*
X66040000Y-8255000D03*
X60960000Y-8255000D03*
X72390000Y-5080000D03*
X74930000Y-5080000D03*
X69850000Y-5080000D03*
D31*
X104023400Y-51943000D03*
X104041000Y-53189900D03*
X47816900Y-46567300D03*
X82091800Y-55713200D03*
X69682100Y-39852700D03*
X71086600Y-57087000D03*
X80351500Y-58288500D03*
X65322100Y-59189400D03*
X94443000Y-54483000D03*
X90119800Y-59967000D03*
X78980800Y-60114000D03*
X96473800Y-59192600D03*
X87460800Y-58314700D03*
X76119600Y-57602400D03*
X85783700Y-55753000D03*
X91109000Y-51943000D03*
X91600600Y-52762300D03*
X90138200Y-54537200D03*
X94372600Y-55523700D03*
X94906200Y-56964400D03*
X95326000Y-58369400D03*
X94370100Y-59313900D03*
X87204700Y-53843600D03*
D32*
X20640800Y-26422700D03*
X55712100Y-12404200D03*
X80380600Y-16830700D03*
X71026300Y-24698900D03*
X86382900Y-19889600D03*
X97353400Y-20256700D03*
D31*
X58812400Y-56376600D03*
X57115700Y-55688100D03*
X37724400Y-15733400D03*
X41487500Y-41550500D03*
D33*
X63373000Y-8255000D02*
X59690000Y-11938000D01*
X63500000Y-8255000D02*
X63373000Y-8255000D01*
X111572900Y-44393500D02*
X104023400Y-51943000D01*
X111572900Y-27534300D02*
X111572900Y-44393500D01*
X115573300Y-23533900D02*
X111572900Y-27534300D01*
X115573300Y-13927500D02*
X115573300Y-23533900D01*
X114288000Y-12642200D02*
X115573300Y-13927500D01*
X114054600Y-12642200D02*
X114288000Y-12642200D01*
X111905300Y-10492900D02*
X114054600Y-12642200D01*
X111905300Y-6435100D02*
X111905300Y-10492900D01*
X108102400Y-2632200D02*
X111905300Y-6435100D01*
X70736900Y-2632200D02*
X108102400Y-2632200D01*
X67310000Y-6059100D02*
X70736900Y-2632200D01*
X67310000Y-11938000D02*
X67310000Y-6059100D01*
X116684400Y-40546200D02*
X104041000Y-53189900D01*
X116684400Y-13814700D02*
X116684400Y-40546200D01*
X114300000Y-11430000D02*
X116684400Y-13814700D01*
X51689000Y-45974000D02*
X50596500Y-45974000D01*
X50596500Y-50749500D02*
X44450000Y-56896000D01*
X50596500Y-45974000D02*
X50596500Y-50749500D01*
X42037000Y-56896000D02*
X36830000Y-62103000D01*
X44450000Y-56896000D02*
X42037000Y-56896000D01*
X61000900Y-8214100D02*
X60960000Y-8255000D01*
X61000900Y-4356500D02*
X61000900Y-8214100D01*
X13210100Y-42799900D02*
X13210100Y-42418900D01*
X10543100Y-45466900D02*
X13210100Y-42799900D01*
X102108000Y-31504600D02*
X102108000Y-29210000D01*
X98298000Y-35314600D02*
X102108000Y-31504600D01*
X98298000Y-46442000D02*
X98298000Y-35314600D01*
X96988000Y-47752000D02*
X98298000Y-46442000D01*
X66211900Y-3551000D02*
X67000900Y-2762000D01*
X66000900Y-3551000D02*
X66211900Y-3551000D01*
X67000900Y-1656500D02*
X67000900Y-2762000D01*
X61956400Y-4356500D02*
X66000900Y-4356500D01*
X66000900Y-4356500D02*
X66000900Y-3551000D01*
X72009000Y-45974000D02*
X69469000Y-45974000D01*
X69469000Y-45974000D02*
X69469000Y-44627500D01*
X68669100Y-43827600D02*
X68669100Y-38404800D01*
X69469000Y-44627500D02*
X68669100Y-43827600D01*
X76339500Y-29823900D02*
X76339500Y-29210000D01*
X73740400Y-32423000D02*
X76339500Y-29823900D01*
X72236300Y-32423000D02*
X73740400Y-32423000D01*
X68669100Y-35990200D02*
X72236300Y-32423000D01*
X68669100Y-38404800D02*
X68669100Y-35990200D01*
X52070000Y-29210000D02*
X53200500Y-29210000D01*
X54425200Y-31053000D02*
X66135000Y-31053000D01*
X53200500Y-29828300D02*
X54425200Y-31053000D01*
X53200500Y-29210000D02*
X53200500Y-29828300D01*
X66135000Y-28400200D02*
X66135000Y-31053000D01*
X68748300Y-25786900D02*
X66135000Y-28400200D01*
X68748300Y-6181700D02*
X68748300Y-25786900D01*
X69850000Y-5080000D02*
X68748300Y-6181700D01*
X66862200Y-38404800D02*
X68669100Y-38404800D01*
X66135000Y-37677600D02*
X66862200Y-38404800D01*
X66135000Y-31053000D02*
X66135000Y-37677600D01*
X2032000Y-21590000D02*
X2032000Y-22784100D01*
X10543100Y-39751900D02*
X10543100Y-31750900D01*
X13210100Y-42418900D02*
X10543100Y-39751900D01*
X2527500Y-22784100D02*
X2032000Y-22784100D01*
X10543100Y-30799700D02*
X2527500Y-22784100D01*
X10543100Y-31750900D02*
X10543100Y-30799700D01*
X77470000Y-29210000D02*
X76339500Y-29210000D01*
X124281900Y-45644100D02*
X124968000Y-45644100D01*
X116078000Y-53848000D02*
X124281900Y-45644100D01*
X124968000Y-44450000D02*
X124968000Y-45644100D01*
X25788200Y-40513000D02*
X24130000Y-40513000D01*
X28609700Y-37691500D02*
X25788200Y-40513000D01*
X28609700Y-34925600D02*
X28609700Y-37691500D01*
X27432000Y-33747900D02*
X28609700Y-34925600D01*
X27432000Y-29210000D02*
X27432000Y-33747900D01*
X61000900Y-4356500D02*
X61478700Y-4356500D01*
X61478700Y-4356500D02*
X61956400Y-4356500D01*
X61478700Y-4239800D02*
X60000900Y-2762000D01*
X61478700Y-4356500D02*
X61478700Y-4239800D01*
X54534700Y-2615300D02*
X60000900Y-2615300D01*
X52070000Y-5080000D02*
X54534700Y-2615300D01*
X60000900Y-1656500D02*
X60000900Y-2615300D01*
X60000900Y-2615300D02*
X60000900Y-2762000D01*
X24130400Y-43053400D02*
X21590000Y-40513000D01*
X41020600Y-43053400D02*
X24130400Y-43053400D01*
X44450000Y-39624000D02*
X41020600Y-43053400D01*
X47435000Y-46185400D02*
X47816900Y-46567300D01*
X14774600Y-46185400D02*
X47435000Y-46185400D01*
X9652000Y-51308000D02*
X14774600Y-46185400D01*
X73456400Y-43627000D02*
X69682100Y-39852700D01*
X73456400Y-47077800D02*
X73456400Y-43627000D01*
X82091800Y-55713200D02*
X73456400Y-47077800D01*
X54610000Y-36830000D02*
X55740500Y-36830000D01*
X60579000Y-46579400D02*
X71086600Y-57087000D01*
X60579000Y-42799000D02*
X60579000Y-46579400D01*
X55740500Y-37960500D02*
X60579000Y-42799000D01*
X55740500Y-36830000D02*
X55740500Y-37960500D01*
X58280500Y-37960500D02*
X58280500Y-36830000D01*
X63282500Y-42962500D02*
X58280500Y-37960500D01*
X63282500Y-46742300D02*
X63282500Y-42962500D01*
X74828700Y-58288500D02*
X63282500Y-46742300D01*
X80351500Y-58288500D02*
X74828700Y-58288500D01*
X57150000Y-36830000D02*
X58280500Y-36830000D01*
X49530000Y-36830000D02*
X50660500Y-36830000D01*
X52959000Y-46826300D02*
X65322100Y-59189400D01*
X52959000Y-40259000D02*
X52959000Y-46826300D01*
X50660500Y-37960500D02*
X52959000Y-40259000D01*
X50660500Y-36830000D02*
X50660500Y-37960500D01*
X90119800Y-58806200D02*
X94443000Y-54483000D01*
X90119800Y-59967000D02*
X90119800Y-58806200D01*
X78250800Y-59384000D02*
X78980800Y-60114000D01*
X75259000Y-59384000D02*
X78250800Y-59384000D01*
X61849000Y-45974000D02*
X75259000Y-59384000D01*
X89799400Y-60653300D02*
X87460800Y-58314700D01*
X95013100Y-60653300D02*
X89799400Y-60653300D01*
X96473800Y-59192600D02*
X95013100Y-60653300D01*
X64389000Y-45974000D02*
X65481500Y-45974000D01*
X65481500Y-46964300D02*
X76119600Y-57602400D01*
X65481500Y-45974000D02*
X65481500Y-46964300D01*
X66929000Y-45974000D02*
X68021500Y-45974000D01*
X83022200Y-55753000D02*
X85783700Y-55753000D01*
X82375900Y-56399300D02*
X83022200Y-55753000D01*
X78095200Y-56399300D02*
X82375900Y-56399300D01*
X68021500Y-46325600D02*
X78095200Y-56399300D01*
X68021500Y-45974000D02*
X68021500Y-46325600D01*
D34*
X102108000Y-44637900D02*
X102108000Y-36830000D01*
X104140000Y-46669900D02*
X102108000Y-44637900D01*
X104140000Y-47752000D02*
X104140000Y-46669900D01*
X78702100Y-40536000D02*
X78702100Y-36830000D01*
X84836000Y-46669900D02*
X78702100Y-40536000D01*
X77470000Y-36830000D02*
X78702100Y-36830000D01*
X84836000Y-47752000D02*
X84836000Y-46669900D01*
X78702100Y-35947700D02*
X78702100Y-36830000D01*
X80956500Y-33693300D02*
X78702100Y-35947700D01*
X82713200Y-33693300D02*
X80956500Y-33693300D01*
X87991900Y-28414600D02*
X82713200Y-33693300D01*
X87991900Y-9251900D02*
X87991900Y-28414600D01*
X83820000Y-5080000D02*
X87991900Y-9251900D01*
X68274900Y-60019900D02*
X68274900Y-61214000D01*
X55499000Y-47244000D02*
X68274900Y-60019900D01*
X55499000Y-40259000D02*
X55499000Y-47244000D01*
X53302100Y-38062100D02*
X55499000Y-40259000D01*
X53302100Y-36830000D02*
X53302100Y-38062100D01*
X52070000Y-36830000D02*
X53302100Y-36830000D01*
X69469000Y-61214000D02*
X68274900Y-61214000D01*
X26199900Y-37690600D02*
X26199900Y-36830000D01*
X25478300Y-38412200D02*
X26199900Y-37690600D01*
X16315400Y-38412200D02*
X25478300Y-38412200D01*
X13210100Y-35306900D02*
X16315400Y-38412200D01*
X27432000Y-36830000D02*
X26199900Y-36830000D01*
D33*
X80010000Y-36830000D02*
X81140500Y-36830000D01*
X91109000Y-47929000D02*
X91109000Y-51943000D01*
X81140500Y-37960500D02*
X91109000Y-47929000D01*
X81140500Y-36830000D02*
X81140500Y-37960500D01*
X82550000Y-36830000D02*
X83680500Y-36830000D01*
X83680500Y-37960500D02*
X83680500Y-36830000D01*
X91795100Y-46075100D02*
X83680500Y-37960500D01*
X91795100Y-52567800D02*
X91795100Y-46075100D01*
X91600600Y-52762300D02*
X91795100Y-52567800D01*
X89758700Y-54537200D02*
X90138200Y-54537200D01*
X74930000Y-39708500D02*
X89758700Y-54537200D01*
X74930000Y-36830000D02*
X74930000Y-39708500D01*
X95897500Y-37960500D02*
X97028000Y-36830000D01*
X95897500Y-53998800D02*
X95897500Y-37960500D01*
X94372600Y-55523700D02*
X95897500Y-53998800D01*
X104648000Y-36830000D02*
X103517500Y-36830000D01*
X100820100Y-51050500D02*
X94906200Y-56964400D01*
X100820100Y-36106500D02*
X100820100Y-51050500D01*
X101608300Y-35318300D02*
X100820100Y-36106500D01*
X102619700Y-35318300D02*
X101608300Y-35318300D01*
X103517500Y-36216100D02*
X102619700Y-35318300D01*
X103517500Y-36830000D02*
X103517500Y-36216100D01*
X107188000Y-36830000D02*
X106057500Y-36830000D01*
X106057500Y-37960500D02*
X106057500Y-36830000D01*
X105549700Y-38468300D02*
X106057500Y-37960500D01*
X105549700Y-48145700D02*
X105549700Y-38468300D01*
X95326000Y-58369400D02*
X105549700Y-48145700D01*
X94177500Y-59121300D02*
X94370100Y-59313900D01*
X94177500Y-56689300D02*
X94177500Y-59121300D01*
X99568000Y-51298800D02*
X94177500Y-56689300D01*
X99568000Y-36830000D02*
X99568000Y-51298800D01*
X72390000Y-39028900D02*
X87204700Y-53843600D01*
X72390000Y-36830000D02*
X72390000Y-39028900D01*
D34*
X16039900Y-16344300D02*
X16039900Y-36830000D01*
X22834100Y-9550100D02*
X16039900Y-16344300D01*
X27082400Y-9550100D02*
X22834100Y-9550100D01*
X27946100Y-10413800D02*
X27082400Y-9550100D01*
X27946100Y-11468300D02*
X27946100Y-10413800D01*
X30955300Y-14477500D02*
X27946100Y-11468300D01*
X33318800Y-14477500D02*
X30955300Y-14477500D01*
X17272000Y-36830000D02*
X16039900Y-36830000D01*
X21044100Y-35597900D02*
X21044100Y-36830000D01*
X26162000Y-30480000D02*
X21044100Y-35597900D01*
X26162000Y-25819900D02*
X26162000Y-30480000D01*
X20875300Y-20533200D02*
X26162000Y-25819900D01*
X20875300Y-14228000D02*
X20875300Y-20533200D01*
X22038600Y-13064700D02*
X20875300Y-14228000D01*
X23076300Y-13064700D02*
X22038600Y-13064700D01*
X27222300Y-17210700D02*
X23076300Y-13064700D01*
X33647100Y-17210700D02*
X27222300Y-17210700D01*
X19812000Y-36830000D02*
X21044100Y-36830000D01*
X33819900Y-35597900D02*
X33819900Y-36830000D01*
X28702000Y-30480000D02*
X33819900Y-35597900D01*
X28702000Y-27153900D02*
X28702000Y-30480000D01*
X21847800Y-20299700D02*
X28702000Y-27153900D01*
X21847800Y-17584700D02*
X21847800Y-20299700D01*
X22231700Y-17200800D02*
X21847800Y-17584700D01*
X35052000Y-36830000D02*
X33819900Y-36830000D01*
X33299200Y-27457200D02*
X35052000Y-29210000D01*
X31244900Y-27457200D02*
X33299200Y-27457200D01*
X26607700Y-22820000D02*
X31244900Y-27457200D01*
X26607700Y-18511000D02*
X26607700Y-22820000D01*
X22564800Y-14468100D02*
X26607700Y-18511000D01*
X32512000Y-29210000D02*
X33744100Y-29210000D01*
X33744100Y-30057100D02*
X33744100Y-29210000D01*
X34490300Y-30803300D02*
X33744100Y-30057100D01*
X35565100Y-30803300D02*
X34490300Y-30803300D01*
X36289700Y-30078700D02*
X35565100Y-30803300D01*
X36289700Y-15518100D02*
X36289700Y-30078700D01*
X32981800Y-12210200D02*
X36289700Y-15518100D01*
X31757600Y-12210200D02*
X32981800Y-12210200D01*
X31204100Y-30070600D02*
X31204100Y-29210000D01*
X32627700Y-31494200D02*
X31204100Y-30070600D01*
X35848300Y-31494200D02*
X32627700Y-31494200D01*
X36925000Y-30417500D02*
X35848300Y-31494200D01*
X36925000Y-15254800D02*
X36925000Y-30417500D01*
X32536600Y-10866400D02*
X36925000Y-15254800D01*
X29383300Y-10866400D02*
X32536600Y-10866400D01*
X29321300Y-10928400D02*
X29383300Y-10866400D01*
X29972000Y-29210000D02*
X31204100Y-29210000D01*
X24892000Y-25448400D02*
X24892000Y-29210000D01*
X20240000Y-20796400D02*
X24892000Y-25448400D01*
X20240000Y-13964800D02*
X20240000Y-20796400D01*
X22001300Y-12203500D02*
X20240000Y-13964800D01*
X24129900Y-12203500D02*
X22001300Y-12203500D01*
X22352000Y-29210000D02*
X22352000Y-27627900D01*
X22352000Y-24814200D02*
X22352000Y-27627900D01*
X19604700Y-22066900D02*
X22352000Y-24814200D01*
X19604700Y-13701600D02*
X19604700Y-22066900D01*
X22469600Y-10836700D02*
X19604700Y-13701600D01*
X26479100Y-10836700D02*
X22469600Y-10836700D01*
X26568400Y-10926000D02*
X26479100Y-10836700D01*
X18504100Y-28349400D02*
X18504100Y-29210000D01*
X20430800Y-26422700D02*
X18504100Y-28349400D01*
X20640800Y-26422700D02*
X20430800Y-26422700D01*
X17272000Y-29210000D02*
X18504100Y-29210000D01*
X52266300Y-8958400D02*
X55712100Y-12404200D01*
X44904600Y-8958400D02*
X52266300Y-8958400D01*
X38831800Y-15031200D02*
X44904600Y-8958400D01*
X38831800Y-34983900D02*
X38831800Y-15031200D01*
X40677900Y-36830000D02*
X38831800Y-34983900D01*
X41910000Y-36830000D02*
X40677900Y-36830000D01*
X45682100Y-35597900D02*
X45682100Y-36830000D01*
X50800000Y-30480000D02*
X45682100Y-35597900D01*
X50800000Y-28378700D02*
X50800000Y-30480000D01*
X52097900Y-27080800D02*
X50800000Y-28378700D01*
X54085200Y-27080800D02*
X52097900Y-27080800D01*
X55006300Y-26159700D02*
X54085200Y-27080800D01*
X55006300Y-18249900D02*
X55006300Y-26159700D01*
X53967100Y-17210700D02*
X55006300Y-18249900D01*
X44450000Y-36830000D02*
X45682100Y-36830000D01*
X48946300Y-35247900D02*
X59690000Y-35247900D01*
X48260000Y-35934200D02*
X48946300Y-35247900D01*
X48260000Y-37665800D02*
X48260000Y-35934200D01*
X47512700Y-38413100D02*
X48260000Y-37665800D01*
X43932400Y-38413100D02*
X47512700Y-38413100D01*
X43180000Y-37660700D02*
X43932400Y-38413100D01*
X43180000Y-33057800D02*
X43180000Y-37660700D01*
X39467200Y-29345000D02*
X43180000Y-33057800D01*
X39467200Y-20285300D02*
X39467200Y-29345000D01*
X42551700Y-17200800D02*
X39467200Y-20285300D01*
X59690000Y-36830000D02*
X59690000Y-35247900D01*
X59690000Y-29210000D02*
X58457900Y-29210000D01*
X58457900Y-16492400D02*
X58457900Y-29210000D01*
X51559300Y-9593800D02*
X58457900Y-16492400D01*
X45175700Y-9593800D02*
X51559300Y-9593800D01*
X42884800Y-11884700D02*
X45175700Y-9593800D01*
X42884800Y-14468100D02*
X42884800Y-11884700D01*
X53260800Y-12210200D02*
X52077600Y-12210200D01*
X57150000Y-16099400D02*
X53260800Y-12210200D01*
X57150000Y-29210000D02*
X57150000Y-16099400D01*
X49641300Y-12408900D02*
X49641300Y-10928400D01*
X53076400Y-15844000D02*
X49641300Y-12408900D01*
X54508100Y-15844000D02*
X53076400Y-15844000D01*
X55842100Y-17178000D02*
X54508100Y-15844000D01*
X55842100Y-29210000D02*
X55842100Y-17178000D01*
X54610000Y-29210000D02*
X55842100Y-29210000D01*
X44870600Y-12624200D02*
X44449900Y-12203500D01*
X44870600Y-20374600D02*
X44870600Y-12624200D01*
X44235700Y-21009500D02*
X44870600Y-20374600D01*
X44235700Y-22141600D02*
X44235700Y-21009500D01*
X45720000Y-23625900D02*
X44235700Y-22141600D01*
X45720000Y-30044600D02*
X45720000Y-23625900D01*
X46480100Y-30804700D02*
X45720000Y-30044600D01*
X47550300Y-30804700D02*
X46480100Y-30804700D01*
X48297900Y-30057100D02*
X47550300Y-30804700D01*
X48297900Y-29210000D02*
X48297900Y-30057100D01*
X49530000Y-29210000D02*
X48297900Y-29210000D01*
X46927700Y-10965300D02*
X46888400Y-10926000D01*
X46927700Y-27565600D02*
X46927700Y-10965300D01*
X46990000Y-27627900D02*
X46927700Y-27565600D01*
X46990000Y-29210000D02*
X46990000Y-27627900D01*
X44450000Y-23690900D02*
X44450000Y-29210000D01*
X43527000Y-22767900D02*
X44450000Y-23690900D01*
X43527000Y-19775100D02*
X43527000Y-22767900D01*
X82733800Y-14477500D02*
X80380600Y-16830700D01*
X84118800Y-14477500D02*
X82733800Y-14477500D01*
X71120000Y-24792600D02*
X71026300Y-24698900D01*
X71120000Y-30038500D02*
X71120000Y-24792600D01*
X67310000Y-33848500D02*
X71120000Y-30038500D01*
X67310000Y-36830000D02*
X67310000Y-33848500D01*
X71082100Y-35969400D02*
X71082100Y-36830000D01*
X72238400Y-34813100D02*
X71082100Y-35969400D01*
X73965600Y-34813100D02*
X72238400Y-34813100D01*
X78740000Y-30038700D02*
X73965600Y-34813100D01*
X78740000Y-26429400D02*
X78740000Y-30038700D01*
X84799900Y-20369500D02*
X78740000Y-26429400D01*
X84799900Y-17563500D02*
X84799900Y-20369500D01*
X84447100Y-17210700D02*
X84799900Y-17563500D01*
X69850000Y-36830000D02*
X71082100Y-36830000D01*
X88627300Y-34524800D02*
X86322100Y-36830000D01*
X88627300Y-8170800D02*
X88627300Y-34524800D01*
X84315200Y-3858700D02*
X88627300Y-8170800D01*
X80471700Y-3858700D02*
X84315200Y-3858700D01*
X72013300Y-12317100D02*
X80471700Y-3858700D01*
X72013300Y-16182400D02*
X72013300Y-12317100D01*
X73031700Y-17200800D02*
X72013300Y-16182400D01*
X85090000Y-36830000D02*
X86322100Y-36830000D01*
X73364800Y-11876100D02*
X73364800Y-14468100D01*
X76290500Y-8950400D02*
X73364800Y-11876100D01*
X82358000Y-8950400D02*
X76290500Y-8950400D01*
X87330400Y-13922800D02*
X82358000Y-8950400D01*
X87330400Y-26969600D02*
X87330400Y-13922800D01*
X85090000Y-29210000D02*
X87330400Y-26969600D01*
X83755000Y-12210200D02*
X82557600Y-12210200D01*
X85828100Y-14283300D02*
X83755000Y-12210200D01*
X85828100Y-17713700D02*
X85828100Y-14283300D01*
X85435300Y-18106500D02*
X85828100Y-17713700D01*
X85435300Y-21508200D02*
X85435300Y-18106500D01*
X82408800Y-24534700D02*
X85435300Y-21508200D01*
X82408800Y-27486700D02*
X82408800Y-24534700D01*
X82550000Y-27627900D02*
X82408800Y-27486700D01*
X82550000Y-29210000D02*
X82550000Y-27627900D01*
X86463500Y-19809000D02*
X86382900Y-19889600D01*
X86463500Y-14020000D02*
X86463500Y-19809000D01*
X83279800Y-10836300D02*
X86463500Y-14020000D01*
X80213400Y-10836300D02*
X83279800Y-10836300D01*
X80121300Y-10928400D02*
X80213400Y-10836300D01*
X77407800Y-26732200D02*
X74930000Y-29210000D01*
X77407800Y-19275300D02*
X77407800Y-26732200D01*
X78713000Y-17970100D02*
X77407800Y-19275300D01*
X78713000Y-10385500D02*
X78713000Y-17970100D01*
X77913300Y-9585800D02*
X78713000Y-10385500D01*
X76783000Y-9585800D02*
X77913300Y-9585800D01*
X74929900Y-11438900D02*
X76783000Y-9585800D01*
X74929900Y-12203500D02*
X74929900Y-11438900D01*
X71993400Y-27231300D02*
X72390000Y-27627900D01*
X71993400Y-23731900D02*
X71993400Y-27231300D01*
X77368400Y-18356900D02*
X71993400Y-23731900D01*
X77368400Y-10926000D02*
X77368400Y-18356900D01*
X72390000Y-29210000D02*
X72390000Y-27627900D01*
X69850000Y-23932100D02*
X69850000Y-29210000D01*
X74007000Y-19775100D02*
X69850000Y-23932100D01*
X90715900Y-25765300D02*
X90715900Y-36830000D01*
X93011000Y-23470200D02*
X90715900Y-25765300D01*
X96427700Y-23470200D02*
X93011000Y-23470200D01*
X97727800Y-22170100D02*
X96427700Y-23470200D01*
X97727800Y-21188500D02*
X97727800Y-22170100D01*
X104438800Y-14477500D02*
X97727800Y-21188500D01*
X91948000Y-36830000D02*
X90715900Y-36830000D01*
X95720100Y-35597900D02*
X95720100Y-36830000D01*
X98298000Y-33020000D02*
X95720100Y-35597900D01*
X98298000Y-27900100D02*
X98298000Y-33020000D01*
X105121300Y-21076800D02*
X98298000Y-27900100D01*
X105121300Y-17564900D02*
X105121300Y-21076800D01*
X104767100Y-17210700D02*
X105121300Y-17564900D01*
X94488000Y-36830000D02*
X95720100Y-36830000D01*
X92350100Y-16199200D02*
X93351700Y-17200800D01*
X92350100Y-11382400D02*
X92350100Y-16199200D01*
X94788600Y-8943900D02*
X92350100Y-11382400D01*
X104520000Y-8943900D02*
X94788600Y-8943900D01*
X110960100Y-15384000D02*
X104520000Y-8943900D01*
X110960100Y-36830000D02*
X110960100Y-15384000D01*
X109728000Y-36830000D02*
X110960100Y-36830000D01*
X93260100Y-14043400D02*
X93684800Y-14468100D01*
X93260100Y-11408300D02*
X93260100Y-14043400D01*
X95085600Y-9582800D02*
X93260100Y-11408300D01*
X104250000Y-9582800D02*
X95085600Y-9582800D01*
X109728000Y-15061300D02*
X104250000Y-9582800D01*
X109728000Y-29210000D02*
X109728000Y-15061300D01*
X105053000Y-12210200D02*
X102877600Y-12210200D01*
X107188000Y-14344900D02*
X105053000Y-12210200D01*
X107188000Y-29210000D02*
X107188000Y-14344900D01*
X104648000Y-29210000D02*
X105880100Y-29210000D01*
X105880100Y-30070600D02*
X105880100Y-29210000D01*
X106613100Y-30803600D02*
X105880100Y-30070600D01*
X107741100Y-30803600D02*
X106613100Y-30803600D01*
X108458000Y-30086900D02*
X107741100Y-30803600D01*
X108458000Y-14689900D02*
X108458000Y-30086900D01*
X104645000Y-10877300D02*
X108458000Y-14689900D01*
X100492300Y-10877300D02*
X104645000Y-10877300D01*
X100441300Y-10928400D02*
X100492300Y-10877300D01*
X99568000Y-29210000D02*
X100800100Y-29210000D01*
X96616800Y-13570400D02*
X95249900Y-12203500D01*
X103432000Y-13570400D02*
X96616800Y-13570400D01*
X103865000Y-13136800D02*
X103432000Y-13570400D01*
X105030000Y-13136800D02*
X103865000Y-13136800D01*
X106111000Y-14218200D02*
X105030000Y-13136800D01*
X106111000Y-22667100D02*
X106111000Y-14218200D01*
X100800000Y-27978000D02*
X106111000Y-22667100D01*
X100800100Y-27978100D02*
X100800000Y-27978000D01*
X100800100Y-29210000D02*
X100800100Y-27978100D01*
X97353400Y-16221700D02*
X97353400Y-20256700D01*
X93903300Y-12771600D02*
X97353400Y-16221700D01*
X93903300Y-11663600D02*
X93903300Y-12771600D01*
X94717400Y-10849500D02*
X93903300Y-11663600D01*
X97611900Y-10849500D02*
X94717400Y-10849500D01*
X97688400Y-10926000D02*
X97611900Y-10849500D01*
X91948000Y-29210000D02*
X93180100Y-29210000D01*
X93180100Y-28362900D02*
X93180100Y-29210000D01*
X94758300Y-26784700D02*
X93180100Y-28362900D01*
X98481600Y-26784700D02*
X94758300Y-26784700D01*
X103787000Y-21479000D02*
X98481600Y-26784700D01*
X103787000Y-19783700D02*
X103787000Y-21479000D01*
X103787300Y-19783400D02*
X103787000Y-19783700D01*
X93980000Y-5080000D02*
X93980000Y-6274100D01*
X77089000Y-61214000D02*
X78283100Y-61214000D01*
X90033500Y-10220600D02*
X93980000Y-6274100D01*
X90033500Y-40903200D02*
X90033500Y-10220600D01*
X92409100Y-43278800D02*
X90033500Y-40903200D01*
X92409100Y-53434500D02*
X92409100Y-43278800D01*
X89302800Y-56540800D02*
X92409100Y-53434500D01*
X84434300Y-56540800D02*
X89302800Y-56540800D01*
X79761100Y-61214000D02*
X84434300Y-56540800D01*
X78283100Y-61214000D02*
X79761100Y-61214000D01*
D33*
X50241500Y-61567400D02*
X50241500Y-61214000D01*
X51758600Y-63084500D02*
X50241500Y-61567400D01*
X96370400Y-63084500D02*
X51758600Y-63084500D01*
X118878600Y-40576300D02*
X96370400Y-63084500D01*
X125642600Y-40576300D02*
X118878600Y-40576300D01*
X126355700Y-39863200D02*
X125642600Y-40576300D01*
X126355700Y-26711800D02*
X126355700Y-39863200D01*
X124968000Y-25324100D02*
X126355700Y-26711800D01*
X124968000Y-24130000D02*
X124968000Y-25324100D01*
X49149000Y-61214000D02*
X50241500Y-61214000D01*
D34*
X22734400Y-6283700D02*
X14032100Y-14986000D01*
X55946300Y-6283700D02*
X22734400Y-6283700D01*
X57150000Y-5080000D02*
X55946300Y-6283700D01*
X12700000Y-14986000D02*
X14032100Y-14986000D01*
X76786700Y-3223300D02*
X74930000Y-5080000D01*
X101204900Y-3223300D02*
X76786700Y-3223300D01*
X112967900Y-14986000D02*
X101204900Y-3223300D01*
X114300000Y-14986000D02*
X112967900Y-14986000D01*
X66040000Y-11113900D02*
X63500000Y-13653900D01*
X66040000Y-8255000D02*
X66040000Y-11113900D01*
X63500000Y-14986000D02*
X63500000Y-13653900D01*
D33*
X64389000Y-61214000D02*
X63296500Y-61214000D01*
X63296500Y-60860700D02*
X58812400Y-56376600D01*
X63296500Y-61214000D02*
X63296500Y-60860700D01*
X66929000Y-61214000D02*
X65836500Y-61214000D01*
X60663900Y-55688100D02*
X57115700Y-55688100D01*
X65836500Y-60860700D02*
X60663900Y-55688100D01*
X65836500Y-61214000D02*
X65836500Y-60860700D01*
X37724400Y-37787400D02*
X41487500Y-41550500D01*
X37724400Y-15733400D02*
X37724400Y-37787400D01*
X63227100Y-62592100D02*
X61849000Y-61214000D01*
X95639600Y-62592100D02*
X63227100Y-62592100D01*
X118861700Y-39370000D02*
X95639600Y-62592100D01*
X124968000Y-39370000D02*
X118861700Y-39370000D01*
X12700000Y-20955000D02*
X12700000Y-18034000D01*
X63500000Y-21082000D02*
X63500000Y-18034000D01*
X114300000Y-21082000D02*
X114300000Y-18034000D01*
D34*
X31334000Y-25654000D02*
X27940000Y-22260000D01*
X34290000Y-25654000D02*
X31334000Y-25654000D01*
X51654000Y-25654000D02*
X48260000Y-22260000D01*
X53848000Y-25654000D02*
X51654000Y-25654000D01*
X95666000Y-25654000D02*
X92456000Y-25654000D01*
X99060000Y-22260000D02*
X95666000Y-25654000D01*
D33*
G36*
X123926624Y-41047895D02*
X123662335Y-41443432D01*
X123569529Y-41910000D01*
X123662335Y-42376568D01*
X123926624Y-42772105D01*
X124322161Y-43036394D01*
X124372713Y-43046449D01*
X124053680Y-43158046D01*
X123617268Y-43547964D01*
X123363291Y-44075209D01*
X123360642Y-44090974D01*
X123481783Y-44323000D01*
X124841000Y-44323000D01*
X124841000Y-44303000D01*
X125095000Y-44303000D01*
X125095000Y-44323000D01*
X125115000Y-44323000D01*
X125115000Y-44577000D01*
X125095000Y-44577000D01*
X125095000Y-45790924D01*
X125329913Y-45935184D01*
X125882320Y-45741954D01*
X126318732Y-45352036D01*
X126572709Y-44824791D01*
X126575358Y-44809026D01*
X126454218Y-44577002D01*
X126594800Y-44577002D01*
X126594800Y-60920092D01*
X126424964Y-61773916D01*
X125963920Y-62463917D01*
X125273915Y-62924964D01*
X124420092Y-63094800D01*
X97006678Y-63094800D01*
X103479573Y-56621905D01*
X113626696Y-56621905D01*
X113806128Y-57056165D01*
X114138087Y-57388704D01*
X114572034Y-57568894D01*
X115041905Y-57569304D01*
X115476165Y-57389872D01*
X115808704Y-57057913D01*
X115895757Y-56848264D01*
X117563497Y-56848264D01*
X117916575Y-57702777D01*
X118569784Y-58357127D01*
X119423680Y-58711696D01*
X120348264Y-58712503D01*
X121202777Y-58359425D01*
X121857127Y-57706216D01*
X122211696Y-56852320D01*
X122211897Y-56621905D01*
X123786696Y-56621905D01*
X123966128Y-57056165D01*
X124298087Y-57388704D01*
X124732034Y-57568894D01*
X125201905Y-57569304D01*
X125636165Y-57389872D01*
X125968704Y-57057913D01*
X126148894Y-56623966D01*
X126149304Y-56154095D01*
X125969872Y-55719835D01*
X125637913Y-55387296D01*
X125203966Y-55207106D01*
X124734095Y-55206696D01*
X124299835Y-55386128D01*
X123967296Y-55718087D01*
X123787106Y-56152034D01*
X123786696Y-56621905D01*
X122211897Y-56621905D01*
X122212503Y-55927736D01*
X121859425Y-55073223D01*
X121206216Y-54418873D01*
X120352320Y-54064304D01*
X119427736Y-54063497D01*
X118573223Y-54416575D01*
X117918873Y-55069784D01*
X117564304Y-55923680D01*
X117563497Y-56848264D01*
X115895757Y-56848264D01*
X115988894Y-56623966D01*
X115989304Y-56154095D01*
X115809872Y-55719835D01*
X115694001Y-55603762D01*
X115779333Y-55636062D01*
X116486329Y-55614249D01*
X117038194Y-55385658D01*
X117154358Y-55103963D01*
X116078000Y-54027605D01*
X115001642Y-55103963D01*
X115044219Y-55207211D01*
X115043966Y-55207106D01*
X114574095Y-55206696D01*
X114139835Y-55386128D01*
X113807296Y-55718087D01*
X113627106Y-56152034D01*
X113626696Y-56621905D01*
X103479573Y-56621905D01*
X106552145Y-53549333D01*
X114289938Y-53549333D01*
X114311751Y-54256329D01*
X114540342Y-54808194D01*
X114822037Y-54924358D01*
X115898395Y-53848000D01*
X116257605Y-53848000D01*
X117333963Y-54924358D01*
X117615658Y-54808194D01*
X117866062Y-54146667D01*
X117844249Y-53439671D01*
X117615658Y-52887806D01*
X117333963Y-52771642D01*
X116257605Y-53848000D01*
X115898395Y-53848000D01*
X114822037Y-52771642D01*
X114540342Y-52887806D01*
X114289938Y-53549333D01*
X106552145Y-53549333D01*
X107509441Y-52592037D01*
X115001642Y-52592037D01*
X116078000Y-53668395D01*
X117154358Y-52592037D01*
X117038194Y-52310342D01*
X116376667Y-52059938D01*
X115669671Y-52081751D01*
X115117806Y-52310342D01*
X115001642Y-52592037D01*
X107509441Y-52592037D01*
X108501726Y-51599752D01*
X120954545Y-51599752D01*
X121178353Y-52141411D01*
X121592409Y-52556190D01*
X122133677Y-52780944D01*
X122719752Y-52781455D01*
X123261411Y-52557647D01*
X123676190Y-52143591D01*
X123900944Y-51602323D01*
X123901455Y-51016248D01*
X123677647Y-50474589D01*
X123263591Y-50059810D01*
X122722323Y-49835056D01*
X122136248Y-49834545D01*
X121594589Y-50058353D01*
X121179810Y-50472409D01*
X120955056Y-51013677D01*
X120954545Y-51599752D01*
X108501726Y-51599752D01*
X115945669Y-44155809D01*
X117779391Y-44155809D01*
X118138257Y-45024331D01*
X118802174Y-45689408D01*
X119670068Y-46049789D01*
X120609809Y-46050609D01*
X121478331Y-45691743D01*
X122143408Y-45027826D01*
X122234261Y-44809026D01*
X123360642Y-44809026D01*
X123363291Y-44824791D01*
X123617268Y-45352036D01*
X124053680Y-45741954D01*
X124606087Y-45935184D01*
X124841000Y-45790924D01*
X124841000Y-44577000D01*
X123481783Y-44577000D01*
X123360642Y-44809026D01*
X122234261Y-44809026D01*
X122503789Y-44159932D01*
X122504609Y-43220191D01*
X122145743Y-42351669D01*
X121481826Y-41686592D01*
X120613932Y-41326211D01*
X119674191Y-41325391D01*
X118805669Y-41684257D01*
X118140592Y-42348174D01*
X117780211Y-43216068D01*
X117779391Y-44155809D01*
X115945669Y-44155809D01*
X119067978Y-41033500D01*
X123948168Y-41033500D01*
X123926624Y-41047895D01*
X123926624Y-41047895D01*
G37*
X123926624Y-41047895D02*
X123662335Y-41443432D01*
X123569529Y-41910000D01*
X123662335Y-42376568D01*
X123926624Y-42772105D01*
X124322161Y-43036394D01*
X124372713Y-43046449D01*
X124053680Y-43158046D01*
X123617268Y-43547964D01*
X123363291Y-44075209D01*
X123360642Y-44090974D01*
X123481783Y-44323000D01*
X124841000Y-44323000D01*
X124841000Y-44303000D01*
X125095000Y-44303000D01*
X125095000Y-44323000D01*
X125115000Y-44323000D01*
X125115000Y-44577000D01*
X125095000Y-44577000D01*
X125095000Y-45790924D01*
X125329913Y-45935184D01*
X125882320Y-45741954D01*
X126318732Y-45352036D01*
X126572709Y-44824791D01*
X126575358Y-44809026D01*
X126454218Y-44577002D01*
X126594800Y-44577002D01*
X126594800Y-60920092D01*
X126424964Y-61773916D01*
X125963920Y-62463917D01*
X125273915Y-62924964D01*
X124420092Y-63094800D01*
X97006678Y-63094800D01*
X103479573Y-56621905D01*
X113626696Y-56621905D01*
X113806128Y-57056165D01*
X114138087Y-57388704D01*
X114572034Y-57568894D01*
X115041905Y-57569304D01*
X115476165Y-57389872D01*
X115808704Y-57057913D01*
X115895757Y-56848264D01*
X117563497Y-56848264D01*
X117916575Y-57702777D01*
X118569784Y-58357127D01*
X119423680Y-58711696D01*
X120348264Y-58712503D01*
X121202777Y-58359425D01*
X121857127Y-57706216D01*
X122211696Y-56852320D01*
X122211897Y-56621905D01*
X123786696Y-56621905D01*
X123966128Y-57056165D01*
X124298087Y-57388704D01*
X124732034Y-57568894D01*
X125201905Y-57569304D01*
X125636165Y-57389872D01*
X125968704Y-57057913D01*
X126148894Y-56623966D01*
X126149304Y-56154095D01*
X125969872Y-55719835D01*
X125637913Y-55387296D01*
X125203966Y-55207106D01*
X124734095Y-55206696D01*
X124299835Y-55386128D01*
X123967296Y-55718087D01*
X123787106Y-56152034D01*
X123786696Y-56621905D01*
X122211897Y-56621905D01*
X122212503Y-55927736D01*
X121859425Y-55073223D01*
X121206216Y-54418873D01*
X120352320Y-54064304D01*
X119427736Y-54063497D01*
X118573223Y-54416575D01*
X117918873Y-55069784D01*
X117564304Y-55923680D01*
X117563497Y-56848264D01*
X115895757Y-56848264D01*
X115988894Y-56623966D01*
X115989304Y-56154095D01*
X115809872Y-55719835D01*
X115694001Y-55603762D01*
X115779333Y-55636062D01*
X116486329Y-55614249D01*
X117038194Y-55385658D01*
X117154358Y-55103963D01*
X116078000Y-54027605D01*
X115001642Y-55103963D01*
X115044219Y-55207211D01*
X115043966Y-55207106D01*
X114574095Y-55206696D01*
X114139835Y-55386128D01*
X113807296Y-55718087D01*
X113627106Y-56152034D01*
X113626696Y-56621905D01*
X103479573Y-56621905D01*
X106552145Y-53549333D01*
X114289938Y-53549333D01*
X114311751Y-54256329D01*
X114540342Y-54808194D01*
X114822037Y-54924358D01*
X115898395Y-53848000D01*
X116257605Y-53848000D01*
X117333963Y-54924358D01*
X117615658Y-54808194D01*
X117866062Y-54146667D01*
X117844249Y-53439671D01*
X117615658Y-52887806D01*
X117333963Y-52771642D01*
X116257605Y-53848000D01*
X115898395Y-53848000D01*
X114822037Y-52771642D01*
X114540342Y-52887806D01*
X114289938Y-53549333D01*
X106552145Y-53549333D01*
X107509441Y-52592037D01*
X115001642Y-52592037D01*
X116078000Y-53668395D01*
X117154358Y-52592037D01*
X117038194Y-52310342D01*
X116376667Y-52059938D01*
X115669671Y-52081751D01*
X115117806Y-52310342D01*
X115001642Y-52592037D01*
X107509441Y-52592037D01*
X108501726Y-51599752D01*
X120954545Y-51599752D01*
X121178353Y-52141411D01*
X121592409Y-52556190D01*
X122133677Y-52780944D01*
X122719752Y-52781455D01*
X123261411Y-52557647D01*
X123676190Y-52143591D01*
X123900944Y-51602323D01*
X123901455Y-51016248D01*
X123677647Y-50474589D01*
X123263591Y-50059810D01*
X122722323Y-49835056D01*
X122136248Y-49834545D01*
X121594589Y-50058353D01*
X121179810Y-50472409D01*
X120955056Y-51013677D01*
X120954545Y-51599752D01*
X108501726Y-51599752D01*
X115945669Y-44155809D01*
X117779391Y-44155809D01*
X118138257Y-45024331D01*
X118802174Y-45689408D01*
X119670068Y-46049789D01*
X120609809Y-46050609D01*
X121478331Y-45691743D01*
X122143408Y-45027826D01*
X122234261Y-44809026D01*
X123360642Y-44809026D01*
X123363291Y-44824791D01*
X123617268Y-45352036D01*
X124053680Y-45741954D01*
X124606087Y-45935184D01*
X124841000Y-45790924D01*
X124841000Y-44577000D01*
X123481783Y-44577000D01*
X123360642Y-44809026D01*
X122234261Y-44809026D01*
X122503789Y-44159932D01*
X122504609Y-43220191D01*
X122145743Y-42351669D01*
X121481826Y-41686592D01*
X120613932Y-41326211D01*
X119674191Y-41325391D01*
X118805669Y-41684257D01*
X118140592Y-42348174D01*
X117780211Y-43216068D01*
X117779391Y-44155809D01*
X115945669Y-44155809D01*
X119067978Y-41033500D01*
X123948168Y-41033500D01*
X123926624Y-41047895D01*
G36*
X59288137Y-489172D02*
X59000898Y-829862D01*
X58865900Y-1254540D01*
X58865900Y-1529540D01*
X59873900Y-1529540D01*
X59873900Y-1509540D01*
X60127900Y-1509540D01*
X60127900Y-1529540D01*
X61135900Y-1529540D01*
X61135900Y-1254540D01*
X61000902Y-829862D01*
X60713663Y-489172D01*
X60542644Y-405200D01*
X66459156Y-405200D01*
X66288137Y-489172D01*
X66000898Y-829862D01*
X65865900Y-1254540D01*
X65865900Y-1529540D01*
X66873900Y-1529540D01*
X66873900Y-1509540D01*
X67127900Y-1509540D01*
X67127900Y-1529540D01*
X68135900Y-1529540D01*
X68135900Y-1254540D01*
X68000902Y-829862D01*
X67713663Y-489172D01*
X67542644Y-405200D01*
X124420092Y-405200D01*
X125273915Y-575036D01*
X125963920Y-1036083D01*
X126424964Y-1726084D01*
X126594800Y-2579908D01*
X126594800Y-21462998D01*
X126454218Y-21462998D01*
X126575358Y-21230974D01*
X126572709Y-21215209D01*
X126318732Y-20687964D01*
X125882320Y-20298046D01*
X125745735Y-20250269D01*
X125984000Y-20250269D01*
X126106365Y-20227244D01*
X126218749Y-20154927D01*
X126294144Y-20044583D01*
X126320669Y-19913600D01*
X126320669Y-18186400D01*
X126297644Y-18064035D01*
X126225327Y-17951651D01*
X126114983Y-17876256D01*
X125984000Y-17849731D01*
X123952000Y-17849731D01*
X123829635Y-17872756D01*
X123717251Y-17945073D01*
X123641856Y-18055417D01*
X123615331Y-18186400D01*
X123615331Y-19913600D01*
X123638356Y-20035965D01*
X123710673Y-20148349D01*
X123821017Y-20223744D01*
X123952000Y-20250269D01*
X124190265Y-20250269D01*
X124053680Y-20298046D01*
X123617268Y-20687964D01*
X123363291Y-21215209D01*
X123360642Y-21230974D01*
X123481783Y-21463000D01*
X124841000Y-21463000D01*
X124841000Y-21443000D01*
X125095000Y-21443000D01*
X125095000Y-21463000D01*
X125115000Y-21463000D01*
X125115000Y-21717000D01*
X125095000Y-21717000D01*
X125095000Y-21737000D01*
X124841000Y-21737000D01*
X124841000Y-21717000D01*
X123481783Y-21717000D01*
X123360642Y-21949026D01*
X123363291Y-21964791D01*
X123617268Y-22492036D01*
X124053680Y-22881954D01*
X124419185Y-23009806D01*
X124332379Y-23027073D01*
X123945082Y-23285856D01*
X123686299Y-23673153D01*
X123595426Y-24130000D01*
X123686299Y-24586847D01*
X123945082Y-24974144D01*
X124332379Y-25232927D01*
X124510800Y-25268417D01*
X124510800Y-25324100D01*
X124545602Y-25499063D01*
X124644711Y-25647389D01*
X125898500Y-26901178D01*
X125898500Y-35629731D01*
X123952000Y-35629731D01*
X123829635Y-35652756D01*
X123717251Y-35725073D01*
X123641856Y-35835417D01*
X123615331Y-35966400D01*
X123615331Y-37693600D01*
X123638356Y-37815965D01*
X123710673Y-37928349D01*
X123821017Y-38003744D01*
X123952000Y-38030269D01*
X125898500Y-38030269D01*
X125898500Y-38464104D01*
X125603621Y-38267073D01*
X125146774Y-38176200D01*
X124789226Y-38176200D01*
X124332379Y-38267073D01*
X123945082Y-38525856D01*
X123686535Y-38912800D01*
X118861700Y-38912800D01*
X118686737Y-38947602D01*
X118538411Y-39046711D01*
X117141600Y-40443522D01*
X117141600Y-13814700D01*
X117123446Y-13723434D01*
X117106809Y-13639764D01*
X117106801Y-13639752D01*
X117106798Y-13639737D01*
X117059269Y-13568606D01*
X117007710Y-13491431D01*
X115276734Y-11760237D01*
X115328521Y-11635519D01*
X115328597Y-11548143D01*
X115365241Y-11584787D01*
X115598630Y-11681460D01*
X117189250Y-11681460D01*
X117348000Y-11522710D01*
X117348000Y-9423400D01*
X117602000Y-9423400D01*
X117602000Y-11522710D01*
X117760750Y-11681460D01*
X119351370Y-11681460D01*
X119584759Y-11584787D01*
X119763387Y-11406158D01*
X119860060Y-11172769D01*
X119860060Y-10546080D01*
X120061374Y-10546080D01*
X120061374Y-14046200D01*
X120086170Y-14177977D01*
X120164050Y-14299007D01*
X120282882Y-14380201D01*
X120423940Y-14408766D01*
X123924060Y-14408766D01*
X124055837Y-14383970D01*
X124176867Y-14306090D01*
X124258061Y-14187258D01*
X124286626Y-14046200D01*
X124286626Y-10546080D01*
X124261830Y-10414303D01*
X124183950Y-10293273D01*
X124065118Y-10212079D01*
X123924060Y-10183514D01*
X120423940Y-10183514D01*
X120292163Y-10208310D01*
X120171133Y-10286190D01*
X120089939Y-10405022D01*
X120061374Y-10546080D01*
X119860060Y-10546080D01*
X119860060Y-9582150D01*
X119701310Y-9423400D01*
X117602000Y-9423400D01*
X117348000Y-9423400D01*
X115248690Y-9423400D01*
X115089940Y-9582150D01*
X115089940Y-10765248D01*
X114883472Y-10558419D01*
X114505519Y-10401479D01*
X114096277Y-10401122D01*
X113718050Y-10557402D01*
X113428419Y-10846528D01*
X113274994Y-11216016D01*
X112362500Y-10303522D01*
X112362500Y-7420031D01*
X115089940Y-7420031D01*
X115089940Y-9010650D01*
X115248690Y-9169400D01*
X117348000Y-9169400D01*
X117348000Y-7070090D01*
X117602000Y-7070090D01*
X117602000Y-9169400D01*
X119701310Y-9169400D01*
X119860060Y-9010650D01*
X119860060Y-8344728D01*
X119885613Y-8406418D01*
X120064241Y-8585047D01*
X120297630Y-8681720D01*
X121888250Y-8681720D01*
X122047000Y-8522970D01*
X122047000Y-6423660D01*
X122301000Y-6423660D01*
X122301000Y-8522970D01*
X122459750Y-8681720D01*
X124050370Y-8681720D01*
X124283759Y-8585047D01*
X124462387Y-8406418D01*
X124559060Y-8173029D01*
X124559060Y-6582410D01*
X124400310Y-6423660D01*
X122301000Y-6423660D01*
X122047000Y-6423660D01*
X119947690Y-6423660D01*
X119788940Y-6582410D01*
X119788940Y-7248332D01*
X119763387Y-7186642D01*
X119584759Y-7008013D01*
X119351370Y-6911340D01*
X117760750Y-6911340D01*
X117602000Y-7070090D01*
X117348000Y-7070090D01*
X117189250Y-6911340D01*
X115598630Y-6911340D01*
X115365241Y-7008013D01*
X115186613Y-7186642D01*
X115089940Y-7420031D01*
X112362500Y-7420031D01*
X112362500Y-6435100D01*
X112327698Y-6260137D01*
X112228589Y-6111811D01*
X110130501Y-4013723D01*
X113271122Y-4013723D01*
X113427402Y-4391950D01*
X113716528Y-4681581D01*
X114094481Y-4838521D01*
X114503723Y-4838878D01*
X114881950Y-4682598D01*
X115144715Y-4420291D01*
X119788940Y-4420291D01*
X119788940Y-6010910D01*
X119947690Y-6169660D01*
X122047000Y-6169660D01*
X122047000Y-4070350D01*
X122301000Y-4070350D01*
X122301000Y-6169660D01*
X124400310Y-6169660D01*
X124559060Y-6010910D01*
X124559060Y-4420291D01*
X124462387Y-4186902D01*
X124283759Y-4008273D01*
X124050370Y-3911600D01*
X122459750Y-3911600D01*
X122301000Y-4070350D01*
X122047000Y-4070350D01*
X121888250Y-3911600D01*
X120297630Y-3911600D01*
X120064241Y-4008273D01*
X119885613Y-4186902D01*
X119788940Y-4420291D01*
X115144715Y-4420291D01*
X115171581Y-4393472D01*
X115328521Y-4015519D01*
X115328878Y-3606277D01*
X115172598Y-3228050D01*
X114883472Y-2938419D01*
X114505519Y-2781479D01*
X114096277Y-2781122D01*
X113718050Y-2937402D01*
X113428419Y-3226528D01*
X113271479Y-3604481D01*
X113271122Y-4013723D01*
X110130501Y-4013723D01*
X108425689Y-2308911D01*
X108277363Y-2209802D01*
X108102400Y-2175000D01*
X70736900Y-2175000D01*
X70561937Y-2209802D01*
X70413610Y-2308911D01*
X66986711Y-5735811D01*
X66887602Y-5884137D01*
X66852800Y-6059100D01*
X66852800Y-7487314D01*
X66673896Y-7308097D01*
X66263280Y-7137594D01*
X65818671Y-7137207D01*
X65407758Y-7306992D01*
X65093097Y-7621104D01*
X64922594Y-8031720D01*
X64922207Y-8476329D01*
X65091992Y-8887242D01*
X65406104Y-9201903D01*
X65481200Y-9233086D01*
X65481200Y-10882437D01*
X63104869Y-13258769D01*
X62983736Y-13440056D01*
X62941200Y-13653900D01*
X62941200Y-13723434D01*
X62600000Y-13723434D01*
X62468223Y-13748230D01*
X62347193Y-13826110D01*
X62265999Y-13944942D01*
X62237434Y-14086000D01*
X62237434Y-15886000D01*
X62262230Y-16017777D01*
X62340110Y-16138807D01*
X62458942Y-16220001D01*
X62600000Y-16248566D01*
X64400000Y-16248566D01*
X64531777Y-16223770D01*
X64652807Y-16145890D01*
X64734001Y-16027058D01*
X64762566Y-15886000D01*
X64762566Y-14086000D01*
X64737770Y-13954223D01*
X64659890Y-13833193D01*
X64541058Y-13751999D01*
X64400000Y-13723434D01*
X64220728Y-13723434D01*
X66331041Y-11613122D01*
X66281479Y-11732481D01*
X66281122Y-12141723D01*
X66437402Y-12519950D01*
X66726528Y-12809581D01*
X67104481Y-12966521D01*
X67513723Y-12966878D01*
X67891950Y-12810598D01*
X68181581Y-12521472D01*
X68338521Y-12143519D01*
X68338878Y-11734277D01*
X68182598Y-11356050D01*
X67893472Y-11066419D01*
X67767200Y-11013986D01*
X67767200Y-6248478D01*
X67955465Y-6060213D01*
X69049392Y-6060213D01*
X69118857Y-6302397D01*
X69642302Y-6489144D01*
X70197368Y-6461362D01*
X70581143Y-6302397D01*
X70650608Y-6060213D01*
X69850000Y-5259605D01*
X69049392Y-6060213D01*
X67955465Y-6060213D01*
X68503689Y-5511989D01*
X68627603Y-5811143D01*
X68869787Y-5880608D01*
X69670395Y-5080000D01*
X70029605Y-5080000D01*
X70830213Y-5880608D01*
X71072397Y-5811143D01*
X71256075Y-5296299D01*
X71297611Y-5296299D01*
X71463538Y-5697873D01*
X71770511Y-6005382D01*
X72171795Y-6172010D01*
X72606299Y-6172389D01*
X73007873Y-6006462D01*
X73315382Y-5699489D01*
X73482010Y-5298205D01*
X73482389Y-4863701D01*
X73316462Y-4462127D01*
X73009489Y-4154618D01*
X72608205Y-3987990D01*
X72173701Y-3987611D01*
X71772127Y-4153538D01*
X71464618Y-4460511D01*
X71297990Y-4861795D01*
X71297611Y-5296299D01*
X71256075Y-5296299D01*
X71259144Y-5287698D01*
X71231362Y-4732632D01*
X71072397Y-4348857D01*
X70830213Y-4279392D01*
X70029605Y-5080000D01*
X69670395Y-5080000D01*
X69656253Y-5065858D01*
X69835858Y-4886253D01*
X69850000Y-4900395D01*
X70650608Y-4099787D01*
X70581143Y-3857603D01*
X70269322Y-3746356D01*
X70926279Y-3089400D01*
X76130338Y-3089400D01*
X75226670Y-3993068D01*
X75153280Y-3962594D01*
X74708671Y-3962207D01*
X74297758Y-4131992D01*
X73983097Y-4446104D01*
X73812594Y-4856720D01*
X73812207Y-5301329D01*
X73981992Y-5712242D01*
X74296104Y-6026903D01*
X74706720Y-6197406D01*
X75151329Y-6197793D01*
X75562242Y-6028008D01*
X75876903Y-5713896D01*
X76047406Y-5303280D01*
X76047793Y-4858671D01*
X76016742Y-4783520D01*
X77018162Y-3782100D01*
X79758038Y-3782100D01*
X71618169Y-11921969D01*
X71497036Y-12103256D01*
X71454500Y-12317100D01*
X71454500Y-16182400D01*
X71497036Y-16396244D01*
X71566657Y-16500438D01*
X71618169Y-16577531D01*
X71839143Y-16798505D01*
X71776263Y-16949937D01*
X71775827Y-17449446D01*
X71966578Y-17911098D01*
X72319476Y-18264612D01*
X72780795Y-18456169D01*
X73280304Y-18456605D01*
X73741956Y-18265854D01*
X74095470Y-17912956D01*
X74287027Y-17451637D01*
X74287463Y-16952128D01*
X74096712Y-16490476D01*
X73743814Y-16136962D01*
X73282495Y-15945405D01*
X72782986Y-15944969D01*
X72629536Y-16008374D01*
X72572100Y-15950938D01*
X72572100Y-15451337D01*
X72652583Y-15531960D01*
X73113902Y-15723517D01*
X73613411Y-15723953D01*
X74075063Y-15533202D01*
X74428577Y-15180304D01*
X74620134Y-14718985D01*
X74620570Y-14219476D01*
X74429819Y-13757824D01*
X74076921Y-13404310D01*
X73923600Y-13340645D01*
X73923600Y-12972651D01*
X74217766Y-13267330D01*
X74679085Y-13458887D01*
X75178594Y-13459323D01*
X75640246Y-13268572D01*
X75993760Y-12915674D01*
X76185317Y-12454355D01*
X76185753Y-11954846D01*
X75995002Y-11493194D01*
X75830579Y-11328483D01*
X76112727Y-11046335D01*
X76112615Y-11174637D01*
X76303366Y-11636289D01*
X76656264Y-11989803D01*
X76809600Y-12053474D01*
X76809600Y-18125438D01*
X75262657Y-19672381D01*
X75262784Y-19526443D01*
X75072033Y-19064791D01*
X74719135Y-18711277D01*
X74257816Y-18519720D01*
X73758307Y-18519284D01*
X73296655Y-18710035D01*
X72943141Y-19062933D01*
X72751584Y-19524252D01*
X72751148Y-20023761D01*
X72814574Y-20177264D01*
X69454869Y-23536969D01*
X69333736Y-23718256D01*
X69291200Y-23932100D01*
X69291200Y-27840759D01*
X69032867Y-28013371D01*
X68782365Y-28388275D01*
X68694400Y-28830504D01*
X68694400Y-29589496D01*
X68782365Y-30031725D01*
X69032867Y-30406629D01*
X69407771Y-30657131D01*
X69660780Y-30707458D01*
X66914869Y-33453369D01*
X66793736Y-33634656D01*
X66751200Y-33848500D01*
X66751200Y-35460759D01*
X66492867Y-35633371D01*
X66242365Y-36008275D01*
X66154400Y-36450504D01*
X66154400Y-37209496D01*
X66242365Y-37651725D01*
X66492867Y-38026629D01*
X66867771Y-38277131D01*
X67310000Y-38365096D01*
X67752229Y-38277131D01*
X68127133Y-38026629D01*
X68377635Y-37651725D01*
X68465600Y-37209496D01*
X68465600Y-36450504D01*
X68377635Y-36008275D01*
X68127133Y-35633371D01*
X67868800Y-35460759D01*
X67868800Y-34079962D01*
X71515132Y-30433631D01*
X71553021Y-30376927D01*
X71572867Y-30406629D01*
X71947771Y-30657131D01*
X72390000Y-30745096D01*
X72832229Y-30657131D01*
X73207133Y-30406629D01*
X73457635Y-30031725D01*
X73545600Y-29589496D01*
X73545600Y-28830504D01*
X73457635Y-28388275D01*
X73207133Y-28013371D01*
X72948800Y-27840759D01*
X72948800Y-27627900D01*
X72906264Y-27414056D01*
X72785131Y-27232769D01*
X72552200Y-26999838D01*
X72552200Y-26545177D01*
X72554121Y-26547101D01*
X72941407Y-26707917D01*
X73360754Y-26708283D01*
X73748320Y-26548144D01*
X74045101Y-26251879D01*
X74205917Y-25864593D01*
X74206283Y-25445246D01*
X74046144Y-25057680D01*
X73749879Y-24760899D01*
X73362593Y-24600083D01*
X72943246Y-24599717D01*
X72555680Y-24759856D01*
X72552200Y-24763330D01*
X72552200Y-23963362D01*
X74836890Y-21678672D01*
X74836745Y-21844641D01*
X75023637Y-22296955D01*
X75369396Y-22643318D01*
X75821383Y-22830999D01*
X76310786Y-22831426D01*
X76763100Y-22644534D01*
X76849000Y-22558784D01*
X76849000Y-26500737D01*
X75500896Y-27848841D01*
X75372229Y-27762869D01*
X74930000Y-27674904D01*
X74487771Y-27762869D01*
X74112867Y-28013371D01*
X73862365Y-28388275D01*
X73774400Y-28830504D01*
X73774400Y-29589496D01*
X73862365Y-30031725D01*
X74112867Y-30406629D01*
X74487771Y-30657131D01*
X74930000Y-30745096D01*
X75372229Y-30657131D01*
X75747133Y-30406629D01*
X75997635Y-30031725D01*
X76053576Y-29750493D01*
X76192834Y-30226483D01*
X76545104Y-30664500D01*
X77038181Y-30934367D01*
X77051293Y-30937145D01*
X73734138Y-34254300D01*
X72238400Y-34254300D01*
X72024556Y-34296836D01*
X71915595Y-34369642D01*
X71843269Y-34417969D01*
X70686969Y-35574269D01*
X70653545Y-35624292D01*
X70292229Y-35382869D01*
X69850000Y-35294904D01*
X69407771Y-35382869D01*
X69032867Y-35633371D01*
X68782365Y-36008275D01*
X68694400Y-36450504D01*
X68694400Y-37209496D01*
X68782365Y-37651725D01*
X69032867Y-38026629D01*
X69407771Y-38277131D01*
X69850000Y-38365096D01*
X70292229Y-38277131D01*
X70667133Y-38026629D01*
X70917635Y-37651725D01*
X70969934Y-37388800D01*
X71082100Y-37388800D01*
X71287440Y-37347956D01*
X71345831Y-37641508D01*
X71590828Y-38008171D01*
X71932800Y-38236670D01*
X71932800Y-39028900D01*
X71967602Y-39203863D01*
X72066711Y-39352189D01*
X77372300Y-44657778D01*
X77089000Y-44601426D01*
X76671033Y-44684565D01*
X76316698Y-44921324D01*
X76079939Y-45275659D01*
X75996800Y-45693626D01*
X75996800Y-46254374D01*
X76079939Y-46672341D01*
X76316698Y-47026676D01*
X76671033Y-47263435D01*
X77089000Y-47346574D01*
X77506967Y-47263435D01*
X77861302Y-47026676D01*
X78098061Y-46672341D01*
X78181200Y-46254374D01*
X78181200Y-45693626D01*
X78124848Y-45410326D01*
X86518934Y-53804412D01*
X86518781Y-53979416D01*
X86622968Y-54231567D01*
X86815718Y-54424654D01*
X87067687Y-54529281D01*
X87340516Y-54529519D01*
X87592667Y-54425332D01*
X87785754Y-54232582D01*
X87890381Y-53980613D01*
X87890619Y-53707784D01*
X87786432Y-53455633D01*
X87593682Y-53262546D01*
X87341713Y-53157919D01*
X87165443Y-53157765D01*
X72847200Y-38839522D01*
X72847200Y-38236670D01*
X73189172Y-38008171D01*
X73434169Y-37641508D01*
X73520200Y-37208999D01*
X73520200Y-36451001D01*
X73434169Y-36018492D01*
X73189172Y-35651829D01*
X72822509Y-35406832D01*
X72646893Y-35371900D01*
X73965600Y-35371900D01*
X74179444Y-35329364D01*
X74360731Y-35208231D01*
X79135131Y-30433831D01*
X79173087Y-30377026D01*
X79192867Y-30406629D01*
X79567771Y-30657131D01*
X80010000Y-30745096D01*
X80452229Y-30657131D01*
X80827133Y-30406629D01*
X81077635Y-30031725D01*
X81165600Y-29589496D01*
X81165600Y-28830504D01*
X81077635Y-28388275D01*
X80827133Y-28013371D01*
X80452229Y-27762869D01*
X80010000Y-27674904D01*
X79567771Y-27762869D01*
X79298800Y-27942589D01*
X79298800Y-26660862D01*
X84876500Y-21083162D01*
X84876500Y-21276737D01*
X82013669Y-24139569D01*
X81892536Y-24320856D01*
X81850000Y-24534700D01*
X81850000Y-27486700D01*
X81892536Y-27700544D01*
X81972288Y-27819900D01*
X81987761Y-27843057D01*
X81732867Y-28013371D01*
X81482365Y-28388275D01*
X81394400Y-28830504D01*
X81394400Y-29589496D01*
X81482365Y-30031725D01*
X81732867Y-30406629D01*
X82107771Y-30657131D01*
X82550000Y-30745096D01*
X82992229Y-30657131D01*
X83367133Y-30406629D01*
X83617635Y-30031725D01*
X83705600Y-29589496D01*
X83705600Y-28830504D01*
X83617635Y-28388275D01*
X83367133Y-28013371D01*
X83108800Y-27840759D01*
X83108800Y-27627900D01*
X83066264Y-27414056D01*
X82967600Y-27266396D01*
X82967600Y-27107934D01*
X83503378Y-27644647D01*
X84318282Y-27983026D01*
X84272867Y-28013371D01*
X84022365Y-28388275D01*
X83934400Y-28830504D01*
X83934400Y-29589496D01*
X84022365Y-30031725D01*
X84272867Y-30406629D01*
X84647771Y-30657131D01*
X84907453Y-30708785D01*
X82481738Y-33134500D01*
X80956500Y-33134500D01*
X80742656Y-33177036D01*
X80611403Y-33264737D01*
X80561369Y-33298169D01*
X78306969Y-35552569D01*
X78263521Y-35617594D01*
X77912229Y-35382869D01*
X77470000Y-35294904D01*
X77027771Y-35382869D01*
X76652867Y-35633371D01*
X76402365Y-36008275D01*
X76314400Y-36450504D01*
X76314400Y-37209496D01*
X76402365Y-37651725D01*
X76652867Y-38026629D01*
X77027771Y-38277131D01*
X77470000Y-38365096D01*
X77912229Y-38277131D01*
X78143300Y-38122735D01*
X78143300Y-40536000D01*
X78185836Y-40749844D01*
X78265778Y-40869485D01*
X78306969Y-40931131D01*
X84126472Y-46750635D01*
X84054223Y-46764230D01*
X83933193Y-46842110D01*
X83851999Y-46960942D01*
X83823434Y-47102000D01*
X83823434Y-47955356D01*
X75387200Y-39519122D01*
X75387200Y-38236670D01*
X75729172Y-38008171D01*
X75974169Y-37641508D01*
X76060200Y-37208999D01*
X76060200Y-36451001D01*
X75974169Y-36018492D01*
X75729172Y-35651829D01*
X75362509Y-35406832D01*
X74930000Y-35320801D01*
X74497491Y-35406832D01*
X74130828Y-35651829D01*
X73885831Y-36018492D01*
X73799800Y-36451001D01*
X73799800Y-37208999D01*
X73885831Y-37641508D01*
X74130828Y-38008171D01*
X74472800Y-38236670D01*
X74472800Y-39708500D01*
X74507602Y-39883463D01*
X74606711Y-40031789D01*
X89435411Y-54860489D01*
X89583737Y-54959598D01*
X89592598Y-54961361D01*
X89749218Y-55118254D01*
X89880550Y-55172788D01*
X89071338Y-55982000D01*
X86431185Y-55982000D01*
X86469381Y-55890013D01*
X86469619Y-55617184D01*
X86365432Y-55365033D01*
X86172682Y-55171946D01*
X85920713Y-55067319D01*
X85647884Y-55067081D01*
X85395733Y-55171268D01*
X85270983Y-55295800D01*
X83022200Y-55295800D01*
X82847237Y-55330602D01*
X82712852Y-55420396D01*
X82673532Y-55325233D01*
X82480782Y-55132146D01*
X82228813Y-55027519D01*
X82052543Y-55027365D01*
X74327741Y-47302563D01*
X74549000Y-47346574D01*
X74966967Y-47263435D01*
X75321302Y-47026676D01*
X75558061Y-46672341D01*
X75641200Y-46254374D01*
X75641200Y-45693626D01*
X75558061Y-45275659D01*
X75321302Y-44921324D01*
X74966967Y-44684565D01*
X74549000Y-44601426D01*
X74131033Y-44684565D01*
X73913600Y-44829849D01*
X73913600Y-43627000D01*
X73878798Y-43452037D01*
X73779689Y-43303711D01*
X70367866Y-39891888D01*
X70368019Y-39716884D01*
X70263832Y-39464733D01*
X70071082Y-39271646D01*
X69819113Y-39167019D01*
X69546284Y-39166781D01*
X69294133Y-39270968D01*
X69101046Y-39463718D01*
X68996419Y-39715687D01*
X68996181Y-39988516D01*
X69100368Y-40240667D01*
X69293118Y-40433754D01*
X69545087Y-40538381D01*
X69721357Y-40538535D01*
X72999200Y-43816378D01*
X72999200Y-44756421D01*
X72907026Y-44642370D01*
X72426277Y-44380740D01*
X72352070Y-44365780D01*
X72136000Y-44488280D01*
X72136000Y-45847000D01*
X72156000Y-45847000D01*
X72156000Y-46101000D01*
X72136000Y-46101000D01*
X72136000Y-47459720D01*
X72352070Y-47582220D01*
X72426277Y-47567260D01*
X72907026Y-47305630D01*
X73017362Y-47169106D01*
X73034002Y-47252763D01*
X73133111Y-47401089D01*
X81406034Y-55674012D01*
X81405881Y-55849016D01*
X81444343Y-55942100D01*
X78284578Y-55942100D01*
X69901470Y-47558992D01*
X70367026Y-47305630D01*
X70711059Y-46879941D01*
X70739000Y-46785277D01*
X70766941Y-46879941D01*
X71110974Y-47305630D01*
X71591723Y-47567260D01*
X71665930Y-47582220D01*
X71882000Y-47459720D01*
X71882000Y-46101000D01*
X69596000Y-46101000D01*
X69596000Y-46121000D01*
X69342000Y-46121000D01*
X69342000Y-46101000D01*
X69322000Y-46101000D01*
X69322000Y-45847000D01*
X69342000Y-45847000D01*
X69342000Y-44488280D01*
X69596000Y-44488280D01*
X69596000Y-45847000D01*
X71882000Y-45847000D01*
X71882000Y-44488280D01*
X71665930Y-44365780D01*
X71591723Y-44380740D01*
X71110974Y-44642370D01*
X70766941Y-45068059D01*
X70739000Y-45162723D01*
X70711059Y-45068059D01*
X70367026Y-44642370D01*
X69886277Y-44380740D01*
X69812070Y-44365780D01*
X69596000Y-44488280D01*
X69342000Y-44488280D01*
X69125930Y-44365780D01*
X69051723Y-44380740D01*
X68570974Y-44642370D01*
X68226941Y-45068059D01*
X68090443Y-45530514D01*
X68021500Y-45516800D01*
X67986027Y-45516800D01*
X67938061Y-45275659D01*
X67701302Y-44921324D01*
X67346967Y-44684565D01*
X66929000Y-44601426D01*
X66511033Y-44684565D01*
X66156698Y-44921324D01*
X65919939Y-45275659D01*
X65836800Y-45693626D01*
X65836800Y-45698618D01*
X65804789Y-45650711D01*
X65656463Y-45551602D01*
X65481500Y-45516800D01*
X65446027Y-45516800D01*
X65398061Y-45275659D01*
X65161302Y-44921324D01*
X64806967Y-44684565D01*
X64389000Y-44601426D01*
X63971033Y-44684565D01*
X63739700Y-44839137D01*
X63739700Y-42962500D01*
X63704898Y-42787537D01*
X63605789Y-42639211D01*
X59235530Y-38268952D01*
X59247771Y-38277131D01*
X59690000Y-38365096D01*
X60132229Y-38277131D01*
X60507133Y-38026629D01*
X60757635Y-37651725D01*
X60845600Y-37209496D01*
X60845600Y-36450504D01*
X60757635Y-36008275D01*
X60507133Y-35633371D01*
X60248800Y-35460759D01*
X60248800Y-35247900D01*
X60206264Y-35034056D01*
X60085131Y-34852769D01*
X59903844Y-34731636D01*
X59690000Y-34689100D01*
X48946300Y-34689100D01*
X48732456Y-34731636D01*
X48551169Y-34852769D01*
X47864869Y-35539069D01*
X47789348Y-35652093D01*
X47789172Y-35651829D01*
X47422509Y-35406832D01*
X46990000Y-35320801D01*
X46689735Y-35380527D01*
X51195132Y-30875131D01*
X51284788Y-30740951D01*
X51638181Y-30934367D01*
X51720961Y-30951904D01*
X51943000Y-30829915D01*
X51943000Y-29337000D01*
X51923000Y-29337000D01*
X51923000Y-29083000D01*
X51943000Y-29083000D01*
X51943000Y-29063000D01*
X52197000Y-29063000D01*
X52197000Y-29083000D01*
X52217000Y-29083000D01*
X52217000Y-29337000D01*
X52197000Y-29337000D01*
X52197000Y-30829915D01*
X52419039Y-30951904D01*
X52501819Y-30934367D01*
X52994896Y-30664500D01*
X53347166Y-30226483D01*
X53486424Y-29750493D01*
X53542365Y-30031725D01*
X53792867Y-30406629D01*
X54167771Y-30657131D01*
X54610000Y-30745096D01*
X55052229Y-30657131D01*
X55427133Y-30406629D01*
X55677635Y-30031725D01*
X55729934Y-29768800D01*
X55842100Y-29768800D01*
X56022912Y-29732834D01*
X56082365Y-30031725D01*
X56332867Y-30406629D01*
X56707771Y-30657131D01*
X57150000Y-30745096D01*
X57592229Y-30657131D01*
X57967133Y-30406629D01*
X58217635Y-30031725D01*
X58277088Y-29732834D01*
X58457900Y-29768800D01*
X58570066Y-29768800D01*
X58622365Y-30031725D01*
X58872867Y-30406629D01*
X59247771Y-30657131D01*
X59690000Y-30745096D01*
X60132229Y-30657131D01*
X60507133Y-30406629D01*
X60757635Y-30031725D01*
X60845600Y-29589496D01*
X60845600Y-28830504D01*
X60757635Y-28388275D01*
X60507133Y-28013371D01*
X60132229Y-27762869D01*
X59690000Y-27674904D01*
X59247771Y-27762869D01*
X59016700Y-27917265D01*
X59016700Y-26119294D01*
X59118093Y-26119294D01*
X59475030Y-26983146D01*
X60135378Y-27644647D01*
X60998605Y-28003091D01*
X61246122Y-28003307D01*
X61150909Y-28232605D01*
X61150093Y-29167294D01*
X61507030Y-30031146D01*
X62167378Y-30692647D01*
X63030605Y-31051091D01*
X63965294Y-31051907D01*
X64829146Y-30694970D01*
X65490647Y-30034622D01*
X65849091Y-29171395D01*
X65849388Y-28830504D01*
X66154400Y-28830504D01*
X66154400Y-29589496D01*
X66242365Y-30031725D01*
X66492867Y-30406629D01*
X66867771Y-30657131D01*
X67310000Y-30745096D01*
X67752229Y-30657131D01*
X68127133Y-30406629D01*
X68377635Y-30031725D01*
X68465600Y-29589496D01*
X68465600Y-28830504D01*
X68377635Y-28388275D01*
X68127133Y-28013371D01*
X67752229Y-27762869D01*
X67310000Y-27674904D01*
X66867771Y-27762869D01*
X66492867Y-28013371D01*
X66242365Y-28388275D01*
X66154400Y-28830504D01*
X65849388Y-28830504D01*
X65849907Y-28236706D01*
X65753628Y-28003694D01*
X65997294Y-28003907D01*
X66861146Y-27646970D01*
X67522647Y-26986622D01*
X67881091Y-26123395D01*
X67881907Y-25188706D01*
X67524970Y-24324854D01*
X66864622Y-23663353D01*
X66001395Y-23304909D01*
X65066706Y-23304093D01*
X64202854Y-23661030D01*
X63541353Y-24321378D01*
X63500342Y-24420142D01*
X63460970Y-24324854D01*
X62800622Y-23663353D01*
X61937395Y-23304909D01*
X61002706Y-23304093D01*
X60138854Y-23661030D01*
X59477353Y-24321378D01*
X59118909Y-25184605D01*
X59118093Y-26119294D01*
X59016700Y-26119294D01*
X59016700Y-18277628D01*
X62269587Y-18277628D01*
X62456479Y-18729942D01*
X62802238Y-19076305D01*
X63042800Y-19176195D01*
X63042800Y-20157856D01*
X62918050Y-20209402D01*
X62628419Y-20498528D01*
X62471479Y-20876481D01*
X62471122Y-21285723D01*
X62627402Y-21663950D01*
X62916528Y-21953581D01*
X63294481Y-22110521D01*
X63703723Y-22110878D01*
X64081950Y-21954598D01*
X64371581Y-21665472D01*
X64528521Y-21287519D01*
X64528878Y-20878277D01*
X64372598Y-20500050D01*
X64083472Y-20210419D01*
X63957200Y-20157986D01*
X63957200Y-19176167D01*
X64195942Y-19077521D01*
X64542305Y-18731762D01*
X64729986Y-18279775D01*
X64730413Y-17790372D01*
X64543521Y-17338058D01*
X64197762Y-16991695D01*
X63745775Y-16804014D01*
X63256372Y-16803587D01*
X62804058Y-16990479D01*
X62457695Y-17336238D01*
X62270014Y-17788225D01*
X62269587Y-18277628D01*
X59016700Y-18277628D01*
X59016700Y-16492400D01*
X59005396Y-16435569D01*
X58974165Y-16278557D01*
X58853031Y-16097269D01*
X55963160Y-13207398D01*
X56186282Y-13115205D01*
X56422277Y-12879622D01*
X56550154Y-12571660D01*
X56550445Y-12238203D01*
X56510581Y-12141723D01*
X58661122Y-12141723D01*
X58817402Y-12519950D01*
X59106528Y-12809581D01*
X59484481Y-12966521D01*
X59893723Y-12966878D01*
X60271950Y-12810598D01*
X60561581Y-12521472D01*
X60718521Y-12143519D01*
X60718878Y-11734277D01*
X60666665Y-11607913D01*
X63031500Y-9243078D01*
X63281795Y-9347010D01*
X63716299Y-9347389D01*
X64117873Y-9181462D01*
X64425382Y-8874489D01*
X64592010Y-8473205D01*
X64592389Y-8038701D01*
X64426462Y-7637127D01*
X64119489Y-7329618D01*
X63718205Y-7162990D01*
X63283701Y-7162611D01*
X62882127Y-7328538D01*
X62574618Y-7635511D01*
X62407990Y-8036795D01*
X62407611Y-8471299D01*
X62437583Y-8543838D01*
X62286181Y-8695240D01*
X62369144Y-8462698D01*
X62341362Y-7907632D01*
X62182397Y-7523857D01*
X61940213Y-7454392D01*
X61139605Y-8255000D01*
X61153748Y-8269143D01*
X60974143Y-8448748D01*
X60960000Y-8434605D01*
X60159392Y-9235213D01*
X60228857Y-9477397D01*
X60752302Y-9664144D01*
X61307368Y-9636362D01*
X61371711Y-9609710D01*
X60020179Y-10961243D01*
X59895519Y-10909479D01*
X59486277Y-10909122D01*
X59108050Y-11065402D01*
X58818419Y-11354528D01*
X58661479Y-11732481D01*
X58661122Y-12141723D01*
X56510581Y-12141723D01*
X56423105Y-11930018D01*
X56187522Y-11694023D01*
X55879560Y-11566146D01*
X55664120Y-11565958D01*
X52661431Y-8563269D01*
X52639730Y-8548769D01*
X52480144Y-8442136D01*
X52266300Y-8399600D01*
X44904600Y-8399600D01*
X44690756Y-8442136D01*
X44531170Y-8548769D01*
X44509469Y-8563269D01*
X38436669Y-14636069D01*
X38315536Y-14817356D01*
X38273000Y-15031200D01*
X38273000Y-15312243D01*
X38113382Y-15152346D01*
X37861413Y-15047719D01*
X37588584Y-15047481D01*
X37453652Y-15103234D01*
X37441264Y-15040956D01*
X37320131Y-14859669D01*
X32931731Y-10471269D01*
X32750444Y-10350136D01*
X32536600Y-10307600D01*
X30423372Y-10307600D01*
X30386378Y-10218069D01*
X30033480Y-9864555D01*
X29572161Y-9672998D01*
X29072652Y-9672562D01*
X28611000Y-9863313D01*
X28386902Y-10087020D01*
X28341231Y-10018669D01*
X27477531Y-9154969D01*
X27296244Y-9033836D01*
X27082400Y-8991300D01*
X22834100Y-8991300D01*
X22620256Y-9033836D01*
X22438969Y-9154969D01*
X15644769Y-15949169D01*
X15523636Y-16130456D01*
X15481100Y-16344300D01*
X15481100Y-36787637D01*
X14288289Y-35594826D01*
X14316097Y-35527856D01*
X14316481Y-35087795D01*
X14148432Y-34681084D01*
X13837533Y-34369642D01*
X13431116Y-34200883D01*
X12991055Y-34200499D01*
X12584344Y-34368548D01*
X12272902Y-34679447D01*
X12104143Y-35085864D01*
X12103759Y-35525925D01*
X12271808Y-35932636D01*
X12582707Y-36244078D01*
X12989124Y-36412837D01*
X13429185Y-36413221D01*
X13497805Y-36384868D01*
X15920268Y-38807331D01*
X15985899Y-38851184D01*
X16101556Y-38928464D01*
X16315400Y-38971000D01*
X23510182Y-38971000D01*
X23246120Y-39080378D01*
X23145499Y-39348891D01*
X23031259Y-39234651D01*
X22987000Y-39278910D01*
X22987000Y-39116000D01*
X22978315Y-39069841D01*
X22951035Y-39027447D01*
X22909410Y-38999006D01*
X22860000Y-38989000D01*
X17780000Y-38989000D01*
X17733841Y-38997685D01*
X17691447Y-39024965D01*
X17663006Y-39066590D01*
X17653000Y-39116000D01*
X17653000Y-41910000D01*
X17661685Y-41956159D01*
X17688965Y-41998553D01*
X17730590Y-42026994D01*
X17780000Y-42037000D01*
X22467422Y-42037000D01*
X23807111Y-43376689D01*
X23955437Y-43475798D01*
X24130400Y-43510600D01*
X41020600Y-43510600D01*
X41195563Y-43475798D01*
X41343889Y-43376689D01*
X44119821Y-40600757D01*
X44244481Y-40652521D01*
X44653723Y-40652878D01*
X45031950Y-40496598D01*
X45321581Y-40207472D01*
X45478521Y-39829519D01*
X45478878Y-39420277D01*
X45322598Y-39042050D01*
X45252570Y-38971900D01*
X47512700Y-38971900D01*
X47726544Y-38929364D01*
X47907831Y-38808231D01*
X48655131Y-38060931D01*
X48678051Y-38026629D01*
X48710606Y-37977907D01*
X48730828Y-38008171D01*
X49097491Y-38253168D01*
X49530000Y-38339199D01*
X49962509Y-38253168D01*
X50226437Y-38076817D01*
X50238102Y-38135463D01*
X50337211Y-38283789D01*
X52501800Y-40448378D01*
X52501800Y-44981934D01*
X52461302Y-44921324D01*
X52106967Y-44684565D01*
X51689000Y-44601426D01*
X51271033Y-44684565D01*
X50916698Y-44921324D01*
X50679939Y-45275659D01*
X50631973Y-45516800D01*
X50596500Y-45516800D01*
X50421537Y-45551602D01*
X50273211Y-45650711D01*
X50241200Y-45698618D01*
X50241200Y-45693626D01*
X50158061Y-45275659D01*
X49921302Y-44921324D01*
X49566967Y-44684565D01*
X49149000Y-44601426D01*
X48731033Y-44684565D01*
X48376698Y-44921324D01*
X48139939Y-45275659D01*
X48056800Y-45693626D01*
X48056800Y-45924342D01*
X47953913Y-45881619D01*
X47777643Y-45881465D01*
X47758289Y-45862111D01*
X47609963Y-45763002D01*
X47435000Y-45728200D01*
X14774600Y-45728200D01*
X14599637Y-45763002D01*
X14451311Y-45862111D01*
X10322262Y-49991160D01*
X9946323Y-49835056D01*
X9360248Y-49834545D01*
X8818589Y-50058353D01*
X8403810Y-50472409D01*
X8179056Y-51013677D01*
X8178545Y-51599752D01*
X8402353Y-52141411D01*
X8816409Y-52556190D01*
X9357677Y-52780944D01*
X9943752Y-52781455D01*
X10485411Y-52557647D01*
X10900190Y-52143591D01*
X11124944Y-51602323D01*
X11125455Y-51016248D01*
X10968995Y-50637583D01*
X11396390Y-50210188D01*
X43695417Y-50210188D01*
X43757071Y-50445800D01*
X44257480Y-50621927D01*
X44787199Y-50593148D01*
X45142929Y-50445800D01*
X45204583Y-50210188D01*
X44450000Y-49455605D01*
X43695417Y-50210188D01*
X11396390Y-50210188D01*
X12523098Y-49083480D01*
X43104073Y-49083480D01*
X43132852Y-49613199D01*
X43280200Y-49968929D01*
X43515812Y-50030583D01*
X44270395Y-49276000D01*
X44629605Y-49276000D01*
X45384188Y-50030583D01*
X45619800Y-49968929D01*
X45795927Y-49468520D01*
X45767148Y-48938801D01*
X45619800Y-48583071D01*
X45384188Y-48521417D01*
X44629605Y-49276000D01*
X44270395Y-49276000D01*
X43515812Y-48521417D01*
X43280200Y-48583071D01*
X43104073Y-49083480D01*
X12523098Y-49083480D01*
X13428390Y-48178188D01*
X43695417Y-48178188D01*
X43716825Y-48260000D01*
X43695417Y-48341812D01*
X43753408Y-48399803D01*
X43757071Y-48413800D01*
X43773018Y-48419413D01*
X44450000Y-49096395D01*
X45125288Y-48421107D01*
X45142929Y-48413800D01*
X45146592Y-48399803D01*
X45204583Y-48341812D01*
X45183175Y-48260000D01*
X45204583Y-48178188D01*
X45146592Y-48120197D01*
X45142929Y-48106200D01*
X45126982Y-48100587D01*
X44450000Y-47423605D01*
X43774712Y-48098893D01*
X43757071Y-48106200D01*
X43753408Y-48120197D01*
X43695417Y-48178188D01*
X13428390Y-48178188D01*
X14963978Y-46642600D01*
X43247985Y-46642600D01*
X43104073Y-47051480D01*
X43132852Y-47581199D01*
X43280200Y-47936929D01*
X43515812Y-47998583D01*
X44270395Y-47244000D01*
X44256253Y-47229858D01*
X44435858Y-47050253D01*
X44450000Y-47064395D01*
X44464143Y-47050253D01*
X44643748Y-47229858D01*
X44629605Y-47244000D01*
X45384188Y-47998583D01*
X45619800Y-47936929D01*
X45795927Y-47436520D01*
X45767148Y-46906801D01*
X45657713Y-46642600D01*
X47131034Y-46642600D01*
X47130981Y-46703116D01*
X47235168Y-46955267D01*
X47427918Y-47148354D01*
X47679887Y-47252981D01*
X47952716Y-47253219D01*
X48204867Y-47149032D01*
X48356987Y-46997177D01*
X48376698Y-47026676D01*
X48731033Y-47263435D01*
X49149000Y-47346574D01*
X49566967Y-47263435D01*
X49921302Y-47026676D01*
X50139300Y-46700419D01*
X50139300Y-50560122D01*
X44780179Y-55919243D01*
X44655519Y-55867479D01*
X44246277Y-55867122D01*
X43868050Y-56023402D01*
X43578419Y-56312528D01*
X43525986Y-56438800D01*
X42037000Y-56438800D01*
X41862037Y-56473602D01*
X41713711Y-56572711D01*
X37707422Y-60579000D01*
X35560000Y-60579000D01*
X35513841Y-60587685D01*
X35471447Y-60614965D01*
X35443006Y-60656590D01*
X35433000Y-60706000D01*
X35433000Y-63094800D01*
X22987000Y-63094800D01*
X22987000Y-60706000D01*
X22978315Y-60659841D01*
X22951035Y-60617447D01*
X22909410Y-60589006D01*
X22860000Y-60579000D01*
X20320000Y-60579000D01*
X20273841Y-60587685D01*
X20231447Y-60614965D01*
X20203006Y-60656590D01*
X20193000Y-60706000D01*
X20193000Y-60868910D01*
X20148741Y-60824651D01*
X20034501Y-60938891D01*
X19933880Y-60670378D01*
X19318358Y-60441184D01*
X18661981Y-60464986D01*
X18166120Y-60670378D01*
X18065498Y-60938893D01*
X19050000Y-61923395D01*
X19064143Y-61909253D01*
X19243748Y-62088858D01*
X19229605Y-62103000D01*
X19243748Y-62117143D01*
X19064143Y-62296748D01*
X19050000Y-62282605D01*
X19035858Y-62296748D01*
X18856253Y-62117143D01*
X18870395Y-62103000D01*
X17885893Y-61118498D01*
X17617378Y-61219120D01*
X17388184Y-61834642D01*
X17411986Y-62491019D01*
X17617378Y-62986880D01*
X17885891Y-63087501D01*
X17878592Y-63094800D01*
X2579908Y-63094800D01*
X1726084Y-62924964D01*
X1036083Y-62463920D01*
X575036Y-61773915D01*
X405200Y-60920092D01*
X405200Y-56621905D01*
X850696Y-56621905D01*
X1030128Y-57056165D01*
X1362087Y-57388704D01*
X1796034Y-57568894D01*
X2265905Y-57569304D01*
X2700165Y-57389872D01*
X3032704Y-57057913D01*
X3119757Y-56848264D01*
X4787497Y-56848264D01*
X5140575Y-57702777D01*
X5793784Y-58357127D01*
X6647680Y-58711696D01*
X7572264Y-58712503D01*
X8426777Y-58359425D01*
X9081127Y-57706216D01*
X9435696Y-56852320D01*
X9435897Y-56621905D01*
X11010696Y-56621905D01*
X11190128Y-57056165D01*
X11522087Y-57388704D01*
X11956034Y-57568894D01*
X12425905Y-57569304D01*
X12860165Y-57389872D01*
X13192704Y-57057913D01*
X13372894Y-56623966D01*
X13373304Y-56154095D01*
X13193872Y-55719835D01*
X12861913Y-55387296D01*
X12427966Y-55207106D01*
X11958095Y-55206696D01*
X11523835Y-55386128D01*
X11191296Y-55718087D01*
X11011106Y-56152034D01*
X11010696Y-56621905D01*
X9435897Y-56621905D01*
X9436503Y-55927736D01*
X9083425Y-55073223D01*
X8430216Y-54418873D01*
X7576320Y-54064304D01*
X6651736Y-54063497D01*
X5797223Y-54416575D01*
X5142873Y-55069784D01*
X4788304Y-55923680D01*
X4787497Y-56848264D01*
X3119757Y-56848264D01*
X3212894Y-56623966D01*
X3213304Y-56154095D01*
X3033872Y-55719835D01*
X2918001Y-55603762D01*
X3003333Y-55636062D01*
X3710329Y-55614249D01*
X4262194Y-55385658D01*
X4378358Y-55103963D01*
X3302000Y-54027605D01*
X2225642Y-55103963D01*
X2268219Y-55207211D01*
X2267966Y-55207106D01*
X1798095Y-55206696D01*
X1363835Y-55386128D01*
X1031296Y-55718087D01*
X851106Y-56152034D01*
X850696Y-56621905D01*
X405200Y-56621905D01*
X405200Y-53549333D01*
X1513938Y-53549333D01*
X1535751Y-54256329D01*
X1764342Y-54808194D01*
X2046037Y-54924358D01*
X3122395Y-53848000D01*
X3481605Y-53848000D01*
X4557963Y-54924358D01*
X4839658Y-54808194D01*
X5090062Y-54146667D01*
X5068249Y-53439671D01*
X4839658Y-52887806D01*
X4557963Y-52771642D01*
X3481605Y-53848000D01*
X3122395Y-53848000D01*
X2046037Y-52771642D01*
X1764342Y-52887806D01*
X1513938Y-53549333D01*
X405200Y-53549333D01*
X405200Y-52592037D01*
X2225642Y-52592037D01*
X3302000Y-53668395D01*
X4378358Y-52592037D01*
X4262194Y-52310342D01*
X3600667Y-52059938D01*
X2893671Y-52081751D01*
X2341806Y-52310342D01*
X2225642Y-52592037D01*
X405200Y-52592037D01*
X405200Y-46980737D01*
X9208848Y-46980737D01*
X9368615Y-47299492D01*
X10159337Y-47609455D01*
X11008486Y-47593227D01*
X11717625Y-47299492D01*
X11877392Y-46980737D01*
X10543120Y-45646465D01*
X9208848Y-46980737D01*
X405200Y-46980737D01*
X405200Y-45083077D01*
X8400525Y-45083077D01*
X8416753Y-45932226D01*
X8710488Y-46641365D01*
X9029243Y-46801132D01*
X10363515Y-45466860D01*
X10722725Y-45466860D01*
X12056997Y-46801132D01*
X12375752Y-46641365D01*
X12685715Y-45850643D01*
X12669487Y-45001494D01*
X12375752Y-44292355D01*
X12056997Y-44132588D01*
X10722725Y-45466860D01*
X10363515Y-45466860D01*
X9029243Y-44132588D01*
X8710488Y-44292355D01*
X8400525Y-45083077D01*
X405200Y-45083077D01*
X405200Y-43952983D01*
X9208848Y-43952983D01*
X10543120Y-45287255D01*
X11877392Y-43952983D01*
X11717625Y-43634228D01*
X11096610Y-43390790D01*
X12417795Y-43390790D01*
X12485855Y-43631791D01*
X13005154Y-43816627D01*
X13555658Y-43788665D01*
X13934385Y-43631791D01*
X14002445Y-43390790D01*
X13210120Y-42598465D01*
X12417795Y-43390790D01*
X11096610Y-43390790D01*
X10926903Y-43324265D01*
X10077754Y-43340493D01*
X9368615Y-43634228D01*
X9208848Y-43952983D01*
X405200Y-43952983D01*
X405200Y-42213894D01*
X11812353Y-42213894D01*
X11840315Y-42764398D01*
X11997189Y-43143125D01*
X12238190Y-43211185D01*
X13030515Y-42418860D01*
X13389725Y-42418860D01*
X14182050Y-43211185D01*
X14423051Y-43143125D01*
X14607887Y-42623826D01*
X14579925Y-42073322D01*
X14423051Y-41694595D01*
X14182050Y-41626535D01*
X13389725Y-42418860D01*
X13030515Y-42418860D01*
X12238190Y-41626535D01*
X11997189Y-41694595D01*
X11812353Y-42213894D01*
X405200Y-42213894D01*
X405200Y-41446930D01*
X12417795Y-41446930D01*
X13210120Y-42239255D01*
X14002445Y-41446930D01*
X13934385Y-41205929D01*
X13415086Y-41021093D01*
X12864582Y-41049055D01*
X12485855Y-41205929D01*
X12417795Y-41446930D01*
X405200Y-41446930D01*
X405200Y-38060895D01*
X12129162Y-38060895D01*
X12293353Y-38458267D01*
X12597113Y-38762558D01*
X12838771Y-38862903D01*
X12598713Y-38962093D01*
X12294422Y-39265853D01*
X12129538Y-39662938D01*
X12129162Y-40092895D01*
X12293353Y-40490267D01*
X12597113Y-40794558D01*
X12994198Y-40959442D01*
X13424155Y-40959818D01*
X13821527Y-40795627D01*
X14125818Y-40491867D01*
X14290702Y-40094782D01*
X14291078Y-39664825D01*
X14126887Y-39267453D01*
X13823127Y-38963162D01*
X13581469Y-38862817D01*
X13821527Y-38763627D01*
X14125818Y-38459867D01*
X14290702Y-38062782D01*
X14291078Y-37632825D01*
X14126887Y-37235453D01*
X13823127Y-36931162D01*
X13426042Y-36766278D01*
X12996085Y-36765902D01*
X12598713Y-36930093D01*
X12294422Y-37233853D01*
X12129538Y-37630938D01*
X12129162Y-38060895D01*
X405200Y-38060895D01*
X405200Y-33264737D01*
X9208848Y-33264737D01*
X9368615Y-33583492D01*
X10159337Y-33893455D01*
X11008486Y-33877227D01*
X11717625Y-33583492D01*
X11877392Y-33264737D01*
X10543120Y-31930465D01*
X9208848Y-33264737D01*
X405200Y-33264737D01*
X405200Y-31367077D01*
X8400525Y-31367077D01*
X8416753Y-32216226D01*
X8710488Y-32925365D01*
X9029243Y-33085132D01*
X10363515Y-31750860D01*
X9029243Y-30416588D01*
X8710488Y-30576355D01*
X8400525Y-31367077D01*
X405200Y-31367077D01*
X405200Y-30236983D01*
X9208848Y-30236983D01*
X10543120Y-31571255D01*
X10557263Y-31557113D01*
X10736868Y-31736718D01*
X10722725Y-31750860D01*
X12056997Y-33085132D01*
X12375752Y-32925365D01*
X12685715Y-32134643D01*
X12669487Y-31285494D01*
X12519894Y-30924344D01*
X13165294Y-30924907D01*
X14029146Y-30567970D01*
X14690647Y-29907622D01*
X15049091Y-29044395D01*
X15049907Y-28109706D01*
X14692970Y-27245854D01*
X14032622Y-26584353D01*
X13169395Y-26225909D01*
X12234706Y-26225093D01*
X11370854Y-26582030D01*
X10709353Y-27242378D01*
X10350909Y-28105605D01*
X10350093Y-29040294D01*
X10587455Y-29614752D01*
X10077754Y-29624493D01*
X9368615Y-29918228D01*
X9208848Y-30236983D01*
X405200Y-30236983D01*
X405200Y-21717002D01*
X545782Y-21717002D01*
X424642Y-21949026D01*
X427291Y-21964791D01*
X681268Y-22492036D01*
X1117680Y-22881954D01*
X1483185Y-23009806D01*
X1396379Y-23027073D01*
X1009082Y-23285856D01*
X750299Y-23673153D01*
X659426Y-24130000D01*
X750299Y-24586847D01*
X1009082Y-24974144D01*
X1396379Y-25232927D01*
X1853226Y-25323800D01*
X2210774Y-25323800D01*
X2667621Y-25232927D01*
X3054918Y-24974144D01*
X3313701Y-24586847D01*
X3404574Y-24130000D01*
X3313701Y-23673153D01*
X3054918Y-23285856D01*
X2667621Y-23027073D01*
X2580815Y-23009806D01*
X2946320Y-22881954D01*
X3382732Y-22492036D01*
X3636709Y-21964791D01*
X3639358Y-21949026D01*
X3518217Y-21717000D01*
X2159000Y-21717000D01*
X2159000Y-21737000D01*
X1905000Y-21737000D01*
X1905000Y-21717000D01*
X1885000Y-21717000D01*
X1885000Y-21463000D01*
X1905000Y-21463000D01*
X1905000Y-21443000D01*
X2159000Y-21443000D01*
X2159000Y-21463000D01*
X3518217Y-21463000D01*
X3639358Y-21230974D01*
X3636709Y-21215209D01*
X3382732Y-20687964D01*
X2946320Y-20298046D01*
X2809735Y-20250269D01*
X3048000Y-20250269D01*
X3170365Y-20227244D01*
X3282749Y-20154927D01*
X3358144Y-20044583D01*
X3384669Y-19913600D01*
X3384669Y-18277628D01*
X11469587Y-18277628D01*
X11656479Y-18729942D01*
X12002238Y-19076305D01*
X12242800Y-19176195D01*
X12242800Y-20030856D01*
X12118050Y-20082402D01*
X11828419Y-20371528D01*
X11671479Y-20749481D01*
X11671122Y-21158723D01*
X11827402Y-21536950D01*
X12116528Y-21826581D01*
X12494481Y-21983521D01*
X12903723Y-21983878D01*
X13281950Y-21827598D01*
X13571581Y-21538472D01*
X13728521Y-21160519D01*
X13728878Y-20751277D01*
X13572598Y-20373050D01*
X13283472Y-20083419D01*
X13157200Y-20030986D01*
X13157200Y-19176167D01*
X13395942Y-19077521D01*
X13742305Y-18731762D01*
X13929986Y-18279775D01*
X13930413Y-17790372D01*
X13743521Y-17338058D01*
X13397762Y-16991695D01*
X12945775Y-16804014D01*
X12456372Y-16803587D01*
X12004058Y-16990479D01*
X11657695Y-17336238D01*
X11470014Y-17788225D01*
X11469587Y-18277628D01*
X3384669Y-18277628D01*
X3384669Y-18186400D01*
X3361644Y-18064035D01*
X3289327Y-17951651D01*
X3178983Y-17876256D01*
X3048000Y-17849731D01*
X1016000Y-17849731D01*
X893635Y-17872756D01*
X781251Y-17945073D01*
X705856Y-18055417D01*
X679331Y-18186400D01*
X679331Y-19913600D01*
X702356Y-20035965D01*
X774673Y-20148349D01*
X885017Y-20223744D01*
X1016000Y-20250269D01*
X1254265Y-20250269D01*
X1117680Y-20298046D01*
X681268Y-20687964D01*
X427291Y-21215209D01*
X424642Y-21230974D01*
X545782Y-21462998D01*
X405200Y-21462998D01*
X405200Y-14086000D01*
X11437434Y-14086000D01*
X11437434Y-15886000D01*
X11462230Y-16017777D01*
X11540110Y-16138807D01*
X11658942Y-16220001D01*
X11800000Y-16248566D01*
X13600000Y-16248566D01*
X13731777Y-16223770D01*
X13852807Y-16145890D01*
X13934001Y-16027058D01*
X13962566Y-15886000D01*
X13962566Y-15544800D01*
X14032100Y-15544800D01*
X14245944Y-15502264D01*
X14427231Y-15381131D01*
X21761060Y-8047302D01*
X59550856Y-8047302D01*
X59578638Y-8602368D01*
X59737603Y-8986143D01*
X59979787Y-9055608D01*
X60780395Y-8255000D01*
X59979787Y-7454392D01*
X59737603Y-7523857D01*
X59550856Y-8047302D01*
X21761060Y-8047302D01*
X22533575Y-7274787D01*
X60159392Y-7274787D01*
X60960000Y-8075395D01*
X61760608Y-7274787D01*
X61691143Y-7032603D01*
X61167698Y-6845856D01*
X60612632Y-6873638D01*
X60228857Y-7032603D01*
X60159392Y-7274787D01*
X22533575Y-7274787D01*
X22965862Y-6842500D01*
X55946300Y-6842500D01*
X56160144Y-6799964D01*
X56341431Y-6678831D01*
X56853330Y-6166932D01*
X56926720Y-6197406D01*
X57371329Y-6197793D01*
X57782242Y-6028008D01*
X58096903Y-5713896D01*
X58267406Y-5303280D01*
X58267793Y-4858671D01*
X58183423Y-4654478D01*
X59781632Y-4654478D01*
X59965348Y-5028361D01*
X60289851Y-5316108D01*
X60699769Y-5457769D01*
X60873900Y-5309103D01*
X60873900Y-4483540D01*
X61127900Y-4483540D01*
X61127900Y-5309103D01*
X61302031Y-5457769D01*
X61711949Y-5316108D01*
X62036452Y-5028361D01*
X62220168Y-4654478D01*
X64781632Y-4654478D01*
X64965348Y-5028361D01*
X65289851Y-5316108D01*
X65699769Y-5457769D01*
X65873900Y-5309103D01*
X65873900Y-4483540D01*
X66127900Y-4483540D01*
X66127900Y-5309103D01*
X66302031Y-5457769D01*
X66711949Y-5316108D01*
X67036452Y-5028361D01*
X67220168Y-4654478D01*
X67093634Y-4483540D01*
X66127900Y-4483540D01*
X65873900Y-4483540D01*
X64908166Y-4483540D01*
X64781632Y-4654478D01*
X62220168Y-4654478D01*
X62093634Y-4483540D01*
X61127900Y-4483540D01*
X60873900Y-4483540D01*
X59908166Y-4483540D01*
X59781632Y-4654478D01*
X58183423Y-4654478D01*
X58098008Y-4447758D01*
X57783896Y-4133097D01*
X57604493Y-4058602D01*
X59781632Y-4058602D01*
X59908166Y-4229540D01*
X60873900Y-4229540D01*
X60873900Y-3403977D01*
X61127900Y-3403977D01*
X61127900Y-4229540D01*
X62093634Y-4229540D01*
X62220168Y-4058602D01*
X64781632Y-4058602D01*
X64908166Y-4229540D01*
X65873900Y-4229540D01*
X65873900Y-3403977D01*
X66127900Y-3403977D01*
X66127900Y-4229540D01*
X67093634Y-4229540D01*
X67220168Y-4058602D01*
X67036452Y-3684719D01*
X66711949Y-3396972D01*
X66302031Y-3255311D01*
X66127900Y-3403977D01*
X65873900Y-3403977D01*
X65699769Y-3255311D01*
X65289851Y-3396972D01*
X64965348Y-3684719D01*
X64781632Y-4058602D01*
X62220168Y-4058602D01*
X62036452Y-3684719D01*
X61711949Y-3396972D01*
X61302031Y-3255311D01*
X61127900Y-3403977D01*
X60873900Y-3403977D01*
X60699769Y-3255311D01*
X60289851Y-3396972D01*
X59965348Y-3684719D01*
X59781632Y-4058602D01*
X57604493Y-4058602D01*
X57373280Y-3962594D01*
X56928671Y-3962207D01*
X56517758Y-4131992D01*
X56203097Y-4446104D01*
X56032594Y-4856720D01*
X56032207Y-5301329D01*
X56063258Y-5376480D01*
X55714838Y-5724900D01*
X55509927Y-5724900D01*
X55535382Y-5699489D01*
X55702010Y-5298205D01*
X55702389Y-4863701D01*
X55536462Y-4462127D01*
X55229489Y-4154618D01*
X54828205Y-3987990D01*
X54393701Y-3987611D01*
X53992127Y-4153538D01*
X53684618Y-4460511D01*
X53517990Y-4861795D01*
X53517611Y-5296299D01*
X53683538Y-5697873D01*
X53710518Y-5724900D01*
X53323166Y-5724900D01*
X53479144Y-5287698D01*
X53451362Y-4732632D01*
X53292397Y-4348857D01*
X53050213Y-4279392D01*
X52249605Y-5080000D01*
X52263748Y-5094143D01*
X52084143Y-5273748D01*
X52070000Y-5259605D01*
X52055858Y-5273748D01*
X51876253Y-5094143D01*
X51890395Y-5080000D01*
X51089787Y-4279392D01*
X50847603Y-4348857D01*
X50660856Y-4872302D01*
X50688638Y-5427368D01*
X50811880Y-5724900D01*
X22734400Y-5724900D01*
X22520557Y-5767435D01*
X22339269Y-5888569D01*
X13962566Y-14265272D01*
X13962566Y-14086000D01*
X13937770Y-13954223D01*
X13859890Y-13833193D01*
X13741058Y-13751999D01*
X13600000Y-13723434D01*
X11800000Y-13723434D01*
X11668223Y-13748230D01*
X11547193Y-13826110D01*
X11465999Y-13944942D01*
X11437434Y-14086000D01*
X405200Y-14086000D01*
X405200Y-11633723D01*
X11671122Y-11633723D01*
X11827402Y-12011950D01*
X12116528Y-12301581D01*
X12494481Y-12458521D01*
X12903723Y-12458878D01*
X13281950Y-12302598D01*
X13571581Y-12013472D01*
X13728521Y-11635519D01*
X13728878Y-11226277D01*
X13572598Y-10848050D01*
X13283472Y-10558419D01*
X12905519Y-10401479D01*
X12496277Y-10401122D01*
X12118050Y-10557402D01*
X11828419Y-10846528D01*
X11671479Y-11224481D01*
X11671122Y-11633723D01*
X405200Y-11633723D01*
X405200Y-4277809D01*
X1447391Y-4277809D01*
X1806257Y-5146331D01*
X2470174Y-5811408D01*
X3338068Y-6171789D01*
X4277809Y-6172609D01*
X5146331Y-5813743D01*
X5811408Y-5149826D01*
X6171789Y-4281932D01*
X6172023Y-4013723D01*
X11671122Y-4013723D01*
X11827402Y-4391950D01*
X12116528Y-4681581D01*
X12494481Y-4838521D01*
X12903723Y-4838878D01*
X13281950Y-4682598D01*
X13571581Y-4393472D01*
X13693529Y-4099787D01*
X51269392Y-4099787D01*
X52070000Y-4900395D01*
X52870608Y-4099787D01*
X52801143Y-3857603D01*
X52277698Y-3670856D01*
X51722632Y-3698638D01*
X51338857Y-3857603D01*
X51269392Y-4099787D01*
X13693529Y-4099787D01*
X13728521Y-4015519D01*
X13728878Y-3606277D01*
X13572598Y-3228050D01*
X13283472Y-2938419D01*
X12905519Y-2781479D01*
X12496277Y-2781122D01*
X12118050Y-2937402D01*
X11828419Y-3226528D01*
X11671479Y-3604481D01*
X11671122Y-4013723D01*
X6172023Y-4013723D01*
X6172609Y-3342191D01*
X5813743Y-2473669D01*
X5149826Y-1808592D01*
X5089495Y-1783540D01*
X58865900Y-1783540D01*
X58865900Y-2058540D01*
X59000898Y-2483218D01*
X59288137Y-2823908D01*
X59699026Y-3025659D01*
X59873900Y-2899494D01*
X59873900Y-1783540D01*
X60127900Y-1783540D01*
X60127900Y-2899494D01*
X60302774Y-3025659D01*
X60713663Y-2823908D01*
X61000902Y-2483218D01*
X61135900Y-2058540D01*
X61135900Y-1783540D01*
X65865900Y-1783540D01*
X65865900Y-2058540D01*
X66000898Y-2483218D01*
X66288137Y-2823908D01*
X66699026Y-3025659D01*
X66873900Y-2899494D01*
X66873900Y-1783540D01*
X67127900Y-1783540D01*
X67127900Y-2899494D01*
X67302774Y-3025659D01*
X67713663Y-2823908D01*
X68000902Y-2483218D01*
X68135900Y-2058540D01*
X68135900Y-1783540D01*
X67127900Y-1783540D01*
X66873900Y-1783540D01*
X65865900Y-1783540D01*
X61135900Y-1783540D01*
X60127900Y-1783540D01*
X59873900Y-1783540D01*
X58865900Y-1783540D01*
X5089495Y-1783540D01*
X4281932Y-1448211D01*
X3342191Y-1447391D01*
X2473669Y-1806257D01*
X1808592Y-2470174D01*
X1448211Y-3338068D01*
X1447391Y-4277809D01*
X405200Y-4277809D01*
X405200Y-2579908D01*
X575036Y-1726085D01*
X1036083Y-1036080D01*
X1726084Y-575036D01*
X2579908Y-405200D01*
X59459156Y-405200D01*
X59288137Y-489172D01*
X59288137Y-489172D01*
G37*
X59288137Y-489172D02*
X59000898Y-829862D01*
X58865900Y-1254540D01*
X58865900Y-1529540D01*
X59873900Y-1529540D01*
X59873900Y-1509540D01*
X60127900Y-1509540D01*
X60127900Y-1529540D01*
X61135900Y-1529540D01*
X61135900Y-1254540D01*
X61000902Y-829862D01*
X60713663Y-489172D01*
X60542644Y-405200D01*
X66459156Y-405200D01*
X66288137Y-489172D01*
X66000898Y-829862D01*
X65865900Y-1254540D01*
X65865900Y-1529540D01*
X66873900Y-1529540D01*
X66873900Y-1509540D01*
X67127900Y-1509540D01*
X67127900Y-1529540D01*
X68135900Y-1529540D01*
X68135900Y-1254540D01*
X68000902Y-829862D01*
X67713663Y-489172D01*
X67542644Y-405200D01*
X124420092Y-405200D01*
X125273915Y-575036D01*
X125963920Y-1036083D01*
X126424964Y-1726084D01*
X126594800Y-2579908D01*
X126594800Y-21462998D01*
X126454218Y-21462998D01*
X126575358Y-21230974D01*
X126572709Y-21215209D01*
X126318732Y-20687964D01*
X125882320Y-20298046D01*
X125745735Y-20250269D01*
X125984000Y-20250269D01*
X126106365Y-20227244D01*
X126218749Y-20154927D01*
X126294144Y-20044583D01*
X126320669Y-19913600D01*
X126320669Y-18186400D01*
X126297644Y-18064035D01*
X126225327Y-17951651D01*
X126114983Y-17876256D01*
X125984000Y-17849731D01*
X123952000Y-17849731D01*
X123829635Y-17872756D01*
X123717251Y-17945073D01*
X123641856Y-18055417D01*
X123615331Y-18186400D01*
X123615331Y-19913600D01*
X123638356Y-20035965D01*
X123710673Y-20148349D01*
X123821017Y-20223744D01*
X123952000Y-20250269D01*
X124190265Y-20250269D01*
X124053680Y-20298046D01*
X123617268Y-20687964D01*
X123363291Y-21215209D01*
X123360642Y-21230974D01*
X123481783Y-21463000D01*
X124841000Y-21463000D01*
X124841000Y-21443000D01*
X125095000Y-21443000D01*
X125095000Y-21463000D01*
X125115000Y-21463000D01*
X125115000Y-21717000D01*
X125095000Y-21717000D01*
X125095000Y-21737000D01*
X124841000Y-21737000D01*
X124841000Y-21717000D01*
X123481783Y-21717000D01*
X123360642Y-21949026D01*
X123363291Y-21964791D01*
X123617268Y-22492036D01*
X124053680Y-22881954D01*
X124419185Y-23009806D01*
X124332379Y-23027073D01*
X123945082Y-23285856D01*
X123686299Y-23673153D01*
X123595426Y-24130000D01*
X123686299Y-24586847D01*
X123945082Y-24974144D01*
X124332379Y-25232927D01*
X124510800Y-25268417D01*
X124510800Y-25324100D01*
X124545602Y-25499063D01*
X124644711Y-25647389D01*
X125898500Y-26901178D01*
X125898500Y-35629731D01*
X123952000Y-35629731D01*
X123829635Y-35652756D01*
X123717251Y-35725073D01*
X123641856Y-35835417D01*
X123615331Y-35966400D01*
X123615331Y-37693600D01*
X123638356Y-37815965D01*
X123710673Y-37928349D01*
X123821017Y-38003744D01*
X123952000Y-38030269D01*
X125898500Y-38030269D01*
X125898500Y-38464104D01*
X125603621Y-38267073D01*
X125146774Y-38176200D01*
X124789226Y-38176200D01*
X124332379Y-38267073D01*
X123945082Y-38525856D01*
X123686535Y-38912800D01*
X118861700Y-38912800D01*
X118686737Y-38947602D01*
X118538411Y-39046711D01*
X117141600Y-40443522D01*
X117141600Y-13814700D01*
X117123446Y-13723434D01*
X117106809Y-13639764D01*
X117106801Y-13639752D01*
X117106798Y-13639737D01*
X117059269Y-13568606D01*
X117007710Y-13491431D01*
X115276734Y-11760237D01*
X115328521Y-11635519D01*
X115328597Y-11548143D01*
X115365241Y-11584787D01*
X115598630Y-11681460D01*
X117189250Y-11681460D01*
X117348000Y-11522710D01*
X117348000Y-9423400D01*
X117602000Y-9423400D01*
X117602000Y-11522710D01*
X117760750Y-11681460D01*
X119351370Y-11681460D01*
X119584759Y-11584787D01*
X119763387Y-11406158D01*
X119860060Y-11172769D01*
X119860060Y-10546080D01*
X120061374Y-10546080D01*
X120061374Y-14046200D01*
X120086170Y-14177977D01*
X120164050Y-14299007D01*
X120282882Y-14380201D01*
X120423940Y-14408766D01*
X123924060Y-14408766D01*
X124055837Y-14383970D01*
X124176867Y-14306090D01*
X124258061Y-14187258D01*
X124286626Y-14046200D01*
X124286626Y-10546080D01*
X124261830Y-10414303D01*
X124183950Y-10293273D01*
X124065118Y-10212079D01*
X123924060Y-10183514D01*
X120423940Y-10183514D01*
X120292163Y-10208310D01*
X120171133Y-10286190D01*
X120089939Y-10405022D01*
X120061374Y-10546080D01*
X119860060Y-10546080D01*
X119860060Y-9582150D01*
X119701310Y-9423400D01*
X117602000Y-9423400D01*
X117348000Y-9423400D01*
X115248690Y-9423400D01*
X115089940Y-9582150D01*
X115089940Y-10765248D01*
X114883472Y-10558419D01*
X114505519Y-10401479D01*
X114096277Y-10401122D01*
X113718050Y-10557402D01*
X113428419Y-10846528D01*
X113274994Y-11216016D01*
X112362500Y-10303522D01*
X112362500Y-7420031D01*
X115089940Y-7420031D01*
X115089940Y-9010650D01*
X115248690Y-9169400D01*
X117348000Y-9169400D01*
X117348000Y-7070090D01*
X117602000Y-7070090D01*
X117602000Y-9169400D01*
X119701310Y-9169400D01*
X119860060Y-9010650D01*
X119860060Y-8344728D01*
X119885613Y-8406418D01*
X120064241Y-8585047D01*
X120297630Y-8681720D01*
X121888250Y-8681720D01*
X122047000Y-8522970D01*
X122047000Y-6423660D01*
X122301000Y-6423660D01*
X122301000Y-8522970D01*
X122459750Y-8681720D01*
X124050370Y-8681720D01*
X124283759Y-8585047D01*
X124462387Y-8406418D01*
X124559060Y-8173029D01*
X124559060Y-6582410D01*
X124400310Y-6423660D01*
X122301000Y-6423660D01*
X122047000Y-6423660D01*
X119947690Y-6423660D01*
X119788940Y-6582410D01*
X119788940Y-7248332D01*
X119763387Y-7186642D01*
X119584759Y-7008013D01*
X119351370Y-6911340D01*
X117760750Y-6911340D01*
X117602000Y-7070090D01*
X117348000Y-7070090D01*
X117189250Y-6911340D01*
X115598630Y-6911340D01*
X115365241Y-7008013D01*
X115186613Y-7186642D01*
X115089940Y-7420031D01*
X112362500Y-7420031D01*
X112362500Y-6435100D01*
X112327698Y-6260137D01*
X112228589Y-6111811D01*
X110130501Y-4013723D01*
X113271122Y-4013723D01*
X113427402Y-4391950D01*
X113716528Y-4681581D01*
X114094481Y-4838521D01*
X114503723Y-4838878D01*
X114881950Y-4682598D01*
X115144715Y-4420291D01*
X119788940Y-4420291D01*
X119788940Y-6010910D01*
X119947690Y-6169660D01*
X122047000Y-6169660D01*
X122047000Y-4070350D01*
X122301000Y-4070350D01*
X122301000Y-6169660D01*
X124400310Y-6169660D01*
X124559060Y-6010910D01*
X124559060Y-4420291D01*
X124462387Y-4186902D01*
X124283759Y-4008273D01*
X124050370Y-3911600D01*
X122459750Y-3911600D01*
X122301000Y-4070350D01*
X122047000Y-4070350D01*
X121888250Y-3911600D01*
X120297630Y-3911600D01*
X120064241Y-4008273D01*
X119885613Y-4186902D01*
X119788940Y-4420291D01*
X115144715Y-4420291D01*
X115171581Y-4393472D01*
X115328521Y-4015519D01*
X115328878Y-3606277D01*
X115172598Y-3228050D01*
X114883472Y-2938419D01*
X114505519Y-2781479D01*
X114096277Y-2781122D01*
X113718050Y-2937402D01*
X113428419Y-3226528D01*
X113271479Y-3604481D01*
X113271122Y-4013723D01*
X110130501Y-4013723D01*
X108425689Y-2308911D01*
X108277363Y-2209802D01*
X108102400Y-2175000D01*
X70736900Y-2175000D01*
X70561937Y-2209802D01*
X70413610Y-2308911D01*
X66986711Y-5735811D01*
X66887602Y-5884137D01*
X66852800Y-6059100D01*
X66852800Y-7487314D01*
X66673896Y-7308097D01*
X66263280Y-7137594D01*
X65818671Y-7137207D01*
X65407758Y-7306992D01*
X65093097Y-7621104D01*
X64922594Y-8031720D01*
X64922207Y-8476329D01*
X65091992Y-8887242D01*
X65406104Y-9201903D01*
X65481200Y-9233086D01*
X65481200Y-10882437D01*
X63104869Y-13258769D01*
X62983736Y-13440056D01*
X62941200Y-13653900D01*
X62941200Y-13723434D01*
X62600000Y-13723434D01*
X62468223Y-13748230D01*
X62347193Y-13826110D01*
X62265999Y-13944942D01*
X62237434Y-14086000D01*
X62237434Y-15886000D01*
X62262230Y-16017777D01*
X62340110Y-16138807D01*
X62458942Y-16220001D01*
X62600000Y-16248566D01*
X64400000Y-16248566D01*
X64531777Y-16223770D01*
X64652807Y-16145890D01*
X64734001Y-16027058D01*
X64762566Y-15886000D01*
X64762566Y-14086000D01*
X64737770Y-13954223D01*
X64659890Y-13833193D01*
X64541058Y-13751999D01*
X64400000Y-13723434D01*
X64220728Y-13723434D01*
X66331041Y-11613122D01*
X66281479Y-11732481D01*
X66281122Y-12141723D01*
X66437402Y-12519950D01*
X66726528Y-12809581D01*
X67104481Y-12966521D01*
X67513723Y-12966878D01*
X67891950Y-12810598D01*
X68181581Y-12521472D01*
X68338521Y-12143519D01*
X68338878Y-11734277D01*
X68182598Y-11356050D01*
X67893472Y-11066419D01*
X67767200Y-11013986D01*
X67767200Y-6248478D01*
X67955465Y-6060213D01*
X69049392Y-6060213D01*
X69118857Y-6302397D01*
X69642302Y-6489144D01*
X70197368Y-6461362D01*
X70581143Y-6302397D01*
X70650608Y-6060213D01*
X69850000Y-5259605D01*
X69049392Y-6060213D01*
X67955465Y-6060213D01*
X68503689Y-5511989D01*
X68627603Y-5811143D01*
X68869787Y-5880608D01*
X69670395Y-5080000D01*
X70029605Y-5080000D01*
X70830213Y-5880608D01*
X71072397Y-5811143D01*
X71256075Y-5296299D01*
X71297611Y-5296299D01*
X71463538Y-5697873D01*
X71770511Y-6005382D01*
X72171795Y-6172010D01*
X72606299Y-6172389D01*
X73007873Y-6006462D01*
X73315382Y-5699489D01*
X73482010Y-5298205D01*
X73482389Y-4863701D01*
X73316462Y-4462127D01*
X73009489Y-4154618D01*
X72608205Y-3987990D01*
X72173701Y-3987611D01*
X71772127Y-4153538D01*
X71464618Y-4460511D01*
X71297990Y-4861795D01*
X71297611Y-5296299D01*
X71256075Y-5296299D01*
X71259144Y-5287698D01*
X71231362Y-4732632D01*
X71072397Y-4348857D01*
X70830213Y-4279392D01*
X70029605Y-5080000D01*
X69670395Y-5080000D01*
X69656253Y-5065858D01*
X69835858Y-4886253D01*
X69850000Y-4900395D01*
X70650608Y-4099787D01*
X70581143Y-3857603D01*
X70269322Y-3746356D01*
X70926279Y-3089400D01*
X76130338Y-3089400D01*
X75226670Y-3993068D01*
X75153280Y-3962594D01*
X74708671Y-3962207D01*
X74297758Y-4131992D01*
X73983097Y-4446104D01*
X73812594Y-4856720D01*
X73812207Y-5301329D01*
X73981992Y-5712242D01*
X74296104Y-6026903D01*
X74706720Y-6197406D01*
X75151329Y-6197793D01*
X75562242Y-6028008D01*
X75876903Y-5713896D01*
X76047406Y-5303280D01*
X76047793Y-4858671D01*
X76016742Y-4783520D01*
X77018162Y-3782100D01*
X79758038Y-3782100D01*
X71618169Y-11921969D01*
X71497036Y-12103256D01*
X71454500Y-12317100D01*
X71454500Y-16182400D01*
X71497036Y-16396244D01*
X71566657Y-16500438D01*
X71618169Y-16577531D01*
X71839143Y-16798505D01*
X71776263Y-16949937D01*
X71775827Y-17449446D01*
X71966578Y-17911098D01*
X72319476Y-18264612D01*
X72780795Y-18456169D01*
X73280304Y-18456605D01*
X73741956Y-18265854D01*
X74095470Y-17912956D01*
X74287027Y-17451637D01*
X74287463Y-16952128D01*
X74096712Y-16490476D01*
X73743814Y-16136962D01*
X73282495Y-15945405D01*
X72782986Y-15944969D01*
X72629536Y-16008374D01*
X72572100Y-15950938D01*
X72572100Y-15451337D01*
X72652583Y-15531960D01*
X73113902Y-15723517D01*
X73613411Y-15723953D01*
X74075063Y-15533202D01*
X74428577Y-15180304D01*
X74620134Y-14718985D01*
X74620570Y-14219476D01*
X74429819Y-13757824D01*
X74076921Y-13404310D01*
X73923600Y-13340645D01*
X73923600Y-12972651D01*
X74217766Y-13267330D01*
X74679085Y-13458887D01*
X75178594Y-13459323D01*
X75640246Y-13268572D01*
X75993760Y-12915674D01*
X76185317Y-12454355D01*
X76185753Y-11954846D01*
X75995002Y-11493194D01*
X75830579Y-11328483D01*
X76112727Y-11046335D01*
X76112615Y-11174637D01*
X76303366Y-11636289D01*
X76656264Y-11989803D01*
X76809600Y-12053474D01*
X76809600Y-18125438D01*
X75262657Y-19672381D01*
X75262784Y-19526443D01*
X75072033Y-19064791D01*
X74719135Y-18711277D01*
X74257816Y-18519720D01*
X73758307Y-18519284D01*
X73296655Y-18710035D01*
X72943141Y-19062933D01*
X72751584Y-19524252D01*
X72751148Y-20023761D01*
X72814574Y-20177264D01*
X69454869Y-23536969D01*
X69333736Y-23718256D01*
X69291200Y-23932100D01*
X69291200Y-27840759D01*
X69032867Y-28013371D01*
X68782365Y-28388275D01*
X68694400Y-28830504D01*
X68694400Y-29589496D01*
X68782365Y-30031725D01*
X69032867Y-30406629D01*
X69407771Y-30657131D01*
X69660780Y-30707458D01*
X66914869Y-33453369D01*
X66793736Y-33634656D01*
X66751200Y-33848500D01*
X66751200Y-35460759D01*
X66492867Y-35633371D01*
X66242365Y-36008275D01*
X66154400Y-36450504D01*
X66154400Y-37209496D01*
X66242365Y-37651725D01*
X66492867Y-38026629D01*
X66867771Y-38277131D01*
X67310000Y-38365096D01*
X67752229Y-38277131D01*
X68127133Y-38026629D01*
X68377635Y-37651725D01*
X68465600Y-37209496D01*
X68465600Y-36450504D01*
X68377635Y-36008275D01*
X68127133Y-35633371D01*
X67868800Y-35460759D01*
X67868800Y-34079962D01*
X71515132Y-30433631D01*
X71553021Y-30376927D01*
X71572867Y-30406629D01*
X71947771Y-30657131D01*
X72390000Y-30745096D01*
X72832229Y-30657131D01*
X73207133Y-30406629D01*
X73457635Y-30031725D01*
X73545600Y-29589496D01*
X73545600Y-28830504D01*
X73457635Y-28388275D01*
X73207133Y-28013371D01*
X72948800Y-27840759D01*
X72948800Y-27627900D01*
X72906264Y-27414056D01*
X72785131Y-27232769D01*
X72552200Y-26999838D01*
X72552200Y-26545177D01*
X72554121Y-26547101D01*
X72941407Y-26707917D01*
X73360754Y-26708283D01*
X73748320Y-26548144D01*
X74045101Y-26251879D01*
X74205917Y-25864593D01*
X74206283Y-25445246D01*
X74046144Y-25057680D01*
X73749879Y-24760899D01*
X73362593Y-24600083D01*
X72943246Y-24599717D01*
X72555680Y-24759856D01*
X72552200Y-24763330D01*
X72552200Y-23963362D01*
X74836890Y-21678672D01*
X74836745Y-21844641D01*
X75023637Y-22296955D01*
X75369396Y-22643318D01*
X75821383Y-22830999D01*
X76310786Y-22831426D01*
X76763100Y-22644534D01*
X76849000Y-22558784D01*
X76849000Y-26500737D01*
X75500896Y-27848841D01*
X75372229Y-27762869D01*
X74930000Y-27674904D01*
X74487771Y-27762869D01*
X74112867Y-28013371D01*
X73862365Y-28388275D01*
X73774400Y-28830504D01*
X73774400Y-29589496D01*
X73862365Y-30031725D01*
X74112867Y-30406629D01*
X74487771Y-30657131D01*
X74930000Y-30745096D01*
X75372229Y-30657131D01*
X75747133Y-30406629D01*
X75997635Y-30031725D01*
X76053576Y-29750493D01*
X76192834Y-30226483D01*
X76545104Y-30664500D01*
X77038181Y-30934367D01*
X77051293Y-30937145D01*
X73734138Y-34254300D01*
X72238400Y-34254300D01*
X72024556Y-34296836D01*
X71915595Y-34369642D01*
X71843269Y-34417969D01*
X70686969Y-35574269D01*
X70653545Y-35624292D01*
X70292229Y-35382869D01*
X69850000Y-35294904D01*
X69407771Y-35382869D01*
X69032867Y-35633371D01*
X68782365Y-36008275D01*
X68694400Y-36450504D01*
X68694400Y-37209496D01*
X68782365Y-37651725D01*
X69032867Y-38026629D01*
X69407771Y-38277131D01*
X69850000Y-38365096D01*
X70292229Y-38277131D01*
X70667133Y-38026629D01*
X70917635Y-37651725D01*
X70969934Y-37388800D01*
X71082100Y-37388800D01*
X71287440Y-37347956D01*
X71345831Y-37641508D01*
X71590828Y-38008171D01*
X71932800Y-38236670D01*
X71932800Y-39028900D01*
X71967602Y-39203863D01*
X72066711Y-39352189D01*
X77372300Y-44657778D01*
X77089000Y-44601426D01*
X76671033Y-44684565D01*
X76316698Y-44921324D01*
X76079939Y-45275659D01*
X75996800Y-45693626D01*
X75996800Y-46254374D01*
X76079939Y-46672341D01*
X76316698Y-47026676D01*
X76671033Y-47263435D01*
X77089000Y-47346574D01*
X77506967Y-47263435D01*
X77861302Y-47026676D01*
X78098061Y-46672341D01*
X78181200Y-46254374D01*
X78181200Y-45693626D01*
X78124848Y-45410326D01*
X86518934Y-53804412D01*
X86518781Y-53979416D01*
X86622968Y-54231567D01*
X86815718Y-54424654D01*
X87067687Y-54529281D01*
X87340516Y-54529519D01*
X87592667Y-54425332D01*
X87785754Y-54232582D01*
X87890381Y-53980613D01*
X87890619Y-53707784D01*
X87786432Y-53455633D01*
X87593682Y-53262546D01*
X87341713Y-53157919D01*
X87165443Y-53157765D01*
X72847200Y-38839522D01*
X72847200Y-38236670D01*
X73189172Y-38008171D01*
X73434169Y-37641508D01*
X73520200Y-37208999D01*
X73520200Y-36451001D01*
X73434169Y-36018492D01*
X73189172Y-35651829D01*
X72822509Y-35406832D01*
X72646893Y-35371900D01*
X73965600Y-35371900D01*
X74179444Y-35329364D01*
X74360731Y-35208231D01*
X79135131Y-30433831D01*
X79173087Y-30377026D01*
X79192867Y-30406629D01*
X79567771Y-30657131D01*
X80010000Y-30745096D01*
X80452229Y-30657131D01*
X80827133Y-30406629D01*
X81077635Y-30031725D01*
X81165600Y-29589496D01*
X81165600Y-28830504D01*
X81077635Y-28388275D01*
X80827133Y-28013371D01*
X80452229Y-27762869D01*
X80010000Y-27674904D01*
X79567771Y-27762869D01*
X79298800Y-27942589D01*
X79298800Y-26660862D01*
X84876500Y-21083162D01*
X84876500Y-21276737D01*
X82013669Y-24139569D01*
X81892536Y-24320856D01*
X81850000Y-24534700D01*
X81850000Y-27486700D01*
X81892536Y-27700544D01*
X81972288Y-27819900D01*
X81987761Y-27843057D01*
X81732867Y-28013371D01*
X81482365Y-28388275D01*
X81394400Y-28830504D01*
X81394400Y-29589496D01*
X81482365Y-30031725D01*
X81732867Y-30406629D01*
X82107771Y-30657131D01*
X82550000Y-30745096D01*
X82992229Y-30657131D01*
X83367133Y-30406629D01*
X83617635Y-30031725D01*
X83705600Y-29589496D01*
X83705600Y-28830504D01*
X83617635Y-28388275D01*
X83367133Y-28013371D01*
X83108800Y-27840759D01*
X83108800Y-27627900D01*
X83066264Y-27414056D01*
X82967600Y-27266396D01*
X82967600Y-27107934D01*
X83503378Y-27644647D01*
X84318282Y-27983026D01*
X84272867Y-28013371D01*
X84022365Y-28388275D01*
X83934400Y-28830504D01*
X83934400Y-29589496D01*
X84022365Y-30031725D01*
X84272867Y-30406629D01*
X84647771Y-30657131D01*
X84907453Y-30708785D01*
X82481738Y-33134500D01*
X80956500Y-33134500D01*
X80742656Y-33177036D01*
X80611403Y-33264737D01*
X80561369Y-33298169D01*
X78306969Y-35552569D01*
X78263521Y-35617594D01*
X77912229Y-35382869D01*
X77470000Y-35294904D01*
X77027771Y-35382869D01*
X76652867Y-35633371D01*
X76402365Y-36008275D01*
X76314400Y-36450504D01*
X76314400Y-37209496D01*
X76402365Y-37651725D01*
X76652867Y-38026629D01*
X77027771Y-38277131D01*
X77470000Y-38365096D01*
X77912229Y-38277131D01*
X78143300Y-38122735D01*
X78143300Y-40536000D01*
X78185836Y-40749844D01*
X78265778Y-40869485D01*
X78306969Y-40931131D01*
X84126472Y-46750635D01*
X84054223Y-46764230D01*
X83933193Y-46842110D01*
X83851999Y-46960942D01*
X83823434Y-47102000D01*
X83823434Y-47955356D01*
X75387200Y-39519122D01*
X75387200Y-38236670D01*
X75729172Y-38008171D01*
X75974169Y-37641508D01*
X76060200Y-37208999D01*
X76060200Y-36451001D01*
X75974169Y-36018492D01*
X75729172Y-35651829D01*
X75362509Y-35406832D01*
X74930000Y-35320801D01*
X74497491Y-35406832D01*
X74130828Y-35651829D01*
X73885831Y-36018492D01*
X73799800Y-36451001D01*
X73799800Y-37208999D01*
X73885831Y-37641508D01*
X74130828Y-38008171D01*
X74472800Y-38236670D01*
X74472800Y-39708500D01*
X74507602Y-39883463D01*
X74606711Y-40031789D01*
X89435411Y-54860489D01*
X89583737Y-54959598D01*
X89592598Y-54961361D01*
X89749218Y-55118254D01*
X89880550Y-55172788D01*
X89071338Y-55982000D01*
X86431185Y-55982000D01*
X86469381Y-55890013D01*
X86469619Y-55617184D01*
X86365432Y-55365033D01*
X86172682Y-55171946D01*
X85920713Y-55067319D01*
X85647884Y-55067081D01*
X85395733Y-55171268D01*
X85270983Y-55295800D01*
X83022200Y-55295800D01*
X82847237Y-55330602D01*
X82712852Y-55420396D01*
X82673532Y-55325233D01*
X82480782Y-55132146D01*
X82228813Y-55027519D01*
X82052543Y-55027365D01*
X74327741Y-47302563D01*
X74549000Y-47346574D01*
X74966967Y-47263435D01*
X75321302Y-47026676D01*
X75558061Y-46672341D01*
X75641200Y-46254374D01*
X75641200Y-45693626D01*
X75558061Y-45275659D01*
X75321302Y-44921324D01*
X74966967Y-44684565D01*
X74549000Y-44601426D01*
X74131033Y-44684565D01*
X73913600Y-44829849D01*
X73913600Y-43627000D01*
X73878798Y-43452037D01*
X73779689Y-43303711D01*
X70367866Y-39891888D01*
X70368019Y-39716884D01*
X70263832Y-39464733D01*
X70071082Y-39271646D01*
X69819113Y-39167019D01*
X69546284Y-39166781D01*
X69294133Y-39270968D01*
X69101046Y-39463718D01*
X68996419Y-39715687D01*
X68996181Y-39988516D01*
X69100368Y-40240667D01*
X69293118Y-40433754D01*
X69545087Y-40538381D01*
X69721357Y-40538535D01*
X72999200Y-43816378D01*
X72999200Y-44756421D01*
X72907026Y-44642370D01*
X72426277Y-44380740D01*
X72352070Y-44365780D01*
X72136000Y-44488280D01*
X72136000Y-45847000D01*
X72156000Y-45847000D01*
X72156000Y-46101000D01*
X72136000Y-46101000D01*
X72136000Y-47459720D01*
X72352070Y-47582220D01*
X72426277Y-47567260D01*
X72907026Y-47305630D01*
X73017362Y-47169106D01*
X73034002Y-47252763D01*
X73133111Y-47401089D01*
X81406034Y-55674012D01*
X81405881Y-55849016D01*
X81444343Y-55942100D01*
X78284578Y-55942100D01*
X69901470Y-47558992D01*
X70367026Y-47305630D01*
X70711059Y-46879941D01*
X70739000Y-46785277D01*
X70766941Y-46879941D01*
X71110974Y-47305630D01*
X71591723Y-47567260D01*
X71665930Y-47582220D01*
X71882000Y-47459720D01*
X71882000Y-46101000D01*
X69596000Y-46101000D01*
X69596000Y-46121000D01*
X69342000Y-46121000D01*
X69342000Y-46101000D01*
X69322000Y-46101000D01*
X69322000Y-45847000D01*
X69342000Y-45847000D01*
X69342000Y-44488280D01*
X69596000Y-44488280D01*
X69596000Y-45847000D01*
X71882000Y-45847000D01*
X71882000Y-44488280D01*
X71665930Y-44365780D01*
X71591723Y-44380740D01*
X71110974Y-44642370D01*
X70766941Y-45068059D01*
X70739000Y-45162723D01*
X70711059Y-45068059D01*
X70367026Y-44642370D01*
X69886277Y-44380740D01*
X69812070Y-44365780D01*
X69596000Y-44488280D01*
X69342000Y-44488280D01*
X69125930Y-44365780D01*
X69051723Y-44380740D01*
X68570974Y-44642370D01*
X68226941Y-45068059D01*
X68090443Y-45530514D01*
X68021500Y-45516800D01*
X67986027Y-45516800D01*
X67938061Y-45275659D01*
X67701302Y-44921324D01*
X67346967Y-44684565D01*
X66929000Y-44601426D01*
X66511033Y-44684565D01*
X66156698Y-44921324D01*
X65919939Y-45275659D01*
X65836800Y-45693626D01*
X65836800Y-45698618D01*
X65804789Y-45650711D01*
X65656463Y-45551602D01*
X65481500Y-45516800D01*
X65446027Y-45516800D01*
X65398061Y-45275659D01*
X65161302Y-44921324D01*
X64806967Y-44684565D01*
X64389000Y-44601426D01*
X63971033Y-44684565D01*
X63739700Y-44839137D01*
X63739700Y-42962500D01*
X63704898Y-42787537D01*
X63605789Y-42639211D01*
X59235530Y-38268952D01*
X59247771Y-38277131D01*
X59690000Y-38365096D01*
X60132229Y-38277131D01*
X60507133Y-38026629D01*
X60757635Y-37651725D01*
X60845600Y-37209496D01*
X60845600Y-36450504D01*
X60757635Y-36008275D01*
X60507133Y-35633371D01*
X60248800Y-35460759D01*
X60248800Y-35247900D01*
X60206264Y-35034056D01*
X60085131Y-34852769D01*
X59903844Y-34731636D01*
X59690000Y-34689100D01*
X48946300Y-34689100D01*
X48732456Y-34731636D01*
X48551169Y-34852769D01*
X47864869Y-35539069D01*
X47789348Y-35652093D01*
X47789172Y-35651829D01*
X47422509Y-35406832D01*
X46990000Y-35320801D01*
X46689735Y-35380527D01*
X51195132Y-30875131D01*
X51284788Y-30740951D01*
X51638181Y-30934367D01*
X51720961Y-30951904D01*
X51943000Y-30829915D01*
X51943000Y-29337000D01*
X51923000Y-29337000D01*
X51923000Y-29083000D01*
X51943000Y-29083000D01*
X51943000Y-29063000D01*
X52197000Y-29063000D01*
X52197000Y-29083000D01*
X52217000Y-29083000D01*
X52217000Y-29337000D01*
X52197000Y-29337000D01*
X52197000Y-30829915D01*
X52419039Y-30951904D01*
X52501819Y-30934367D01*
X52994896Y-30664500D01*
X53347166Y-30226483D01*
X53486424Y-29750493D01*
X53542365Y-30031725D01*
X53792867Y-30406629D01*
X54167771Y-30657131D01*
X54610000Y-30745096D01*
X55052229Y-30657131D01*
X55427133Y-30406629D01*
X55677635Y-30031725D01*
X55729934Y-29768800D01*
X55842100Y-29768800D01*
X56022912Y-29732834D01*
X56082365Y-30031725D01*
X56332867Y-30406629D01*
X56707771Y-30657131D01*
X57150000Y-30745096D01*
X57592229Y-30657131D01*
X57967133Y-30406629D01*
X58217635Y-30031725D01*
X58277088Y-29732834D01*
X58457900Y-29768800D01*
X58570066Y-29768800D01*
X58622365Y-30031725D01*
X58872867Y-30406629D01*
X59247771Y-30657131D01*
X59690000Y-30745096D01*
X60132229Y-30657131D01*
X60507133Y-30406629D01*
X60757635Y-30031725D01*
X60845600Y-29589496D01*
X60845600Y-28830504D01*
X60757635Y-28388275D01*
X60507133Y-28013371D01*
X60132229Y-27762869D01*
X59690000Y-27674904D01*
X59247771Y-27762869D01*
X59016700Y-27917265D01*
X59016700Y-26119294D01*
X59118093Y-26119294D01*
X59475030Y-26983146D01*
X60135378Y-27644647D01*
X60998605Y-28003091D01*
X61246122Y-28003307D01*
X61150909Y-28232605D01*
X61150093Y-29167294D01*
X61507030Y-30031146D01*
X62167378Y-30692647D01*
X63030605Y-31051091D01*
X63965294Y-31051907D01*
X64829146Y-30694970D01*
X65490647Y-30034622D01*
X65849091Y-29171395D01*
X65849388Y-28830504D01*
X66154400Y-28830504D01*
X66154400Y-29589496D01*
X66242365Y-30031725D01*
X66492867Y-30406629D01*
X66867771Y-30657131D01*
X67310000Y-30745096D01*
X67752229Y-30657131D01*
X68127133Y-30406629D01*
X68377635Y-30031725D01*
X68465600Y-29589496D01*
X68465600Y-28830504D01*
X68377635Y-28388275D01*
X68127133Y-28013371D01*
X67752229Y-27762869D01*
X67310000Y-27674904D01*
X66867771Y-27762869D01*
X66492867Y-28013371D01*
X66242365Y-28388275D01*
X66154400Y-28830504D01*
X65849388Y-28830504D01*
X65849907Y-28236706D01*
X65753628Y-28003694D01*
X65997294Y-28003907D01*
X66861146Y-27646970D01*
X67522647Y-26986622D01*
X67881091Y-26123395D01*
X67881907Y-25188706D01*
X67524970Y-24324854D01*
X66864622Y-23663353D01*
X66001395Y-23304909D01*
X65066706Y-23304093D01*
X64202854Y-23661030D01*
X63541353Y-24321378D01*
X63500342Y-24420142D01*
X63460970Y-24324854D01*
X62800622Y-23663353D01*
X61937395Y-23304909D01*
X61002706Y-23304093D01*
X60138854Y-23661030D01*
X59477353Y-24321378D01*
X59118909Y-25184605D01*
X59118093Y-26119294D01*
X59016700Y-26119294D01*
X59016700Y-18277628D01*
X62269587Y-18277628D01*
X62456479Y-18729942D01*
X62802238Y-19076305D01*
X63042800Y-19176195D01*
X63042800Y-20157856D01*
X62918050Y-20209402D01*
X62628419Y-20498528D01*
X62471479Y-20876481D01*
X62471122Y-21285723D01*
X62627402Y-21663950D01*
X62916528Y-21953581D01*
X63294481Y-22110521D01*
X63703723Y-22110878D01*
X64081950Y-21954598D01*
X64371581Y-21665472D01*
X64528521Y-21287519D01*
X64528878Y-20878277D01*
X64372598Y-20500050D01*
X64083472Y-20210419D01*
X63957200Y-20157986D01*
X63957200Y-19176167D01*
X64195942Y-19077521D01*
X64542305Y-18731762D01*
X64729986Y-18279775D01*
X64730413Y-17790372D01*
X64543521Y-17338058D01*
X64197762Y-16991695D01*
X63745775Y-16804014D01*
X63256372Y-16803587D01*
X62804058Y-16990479D01*
X62457695Y-17336238D01*
X62270014Y-17788225D01*
X62269587Y-18277628D01*
X59016700Y-18277628D01*
X59016700Y-16492400D01*
X59005396Y-16435569D01*
X58974165Y-16278557D01*
X58853031Y-16097269D01*
X55963160Y-13207398D01*
X56186282Y-13115205D01*
X56422277Y-12879622D01*
X56550154Y-12571660D01*
X56550445Y-12238203D01*
X56510581Y-12141723D01*
X58661122Y-12141723D01*
X58817402Y-12519950D01*
X59106528Y-12809581D01*
X59484481Y-12966521D01*
X59893723Y-12966878D01*
X60271950Y-12810598D01*
X60561581Y-12521472D01*
X60718521Y-12143519D01*
X60718878Y-11734277D01*
X60666665Y-11607913D01*
X63031500Y-9243078D01*
X63281795Y-9347010D01*
X63716299Y-9347389D01*
X64117873Y-9181462D01*
X64425382Y-8874489D01*
X64592010Y-8473205D01*
X64592389Y-8038701D01*
X64426462Y-7637127D01*
X64119489Y-7329618D01*
X63718205Y-7162990D01*
X63283701Y-7162611D01*
X62882127Y-7328538D01*
X62574618Y-7635511D01*
X62407990Y-8036795D01*
X62407611Y-8471299D01*
X62437583Y-8543838D01*
X62286181Y-8695240D01*
X62369144Y-8462698D01*
X62341362Y-7907632D01*
X62182397Y-7523857D01*
X61940213Y-7454392D01*
X61139605Y-8255000D01*
X61153748Y-8269143D01*
X60974143Y-8448748D01*
X60960000Y-8434605D01*
X60159392Y-9235213D01*
X60228857Y-9477397D01*
X60752302Y-9664144D01*
X61307368Y-9636362D01*
X61371711Y-9609710D01*
X60020179Y-10961243D01*
X59895519Y-10909479D01*
X59486277Y-10909122D01*
X59108050Y-11065402D01*
X58818419Y-11354528D01*
X58661479Y-11732481D01*
X58661122Y-12141723D01*
X56510581Y-12141723D01*
X56423105Y-11930018D01*
X56187522Y-11694023D01*
X55879560Y-11566146D01*
X55664120Y-11565958D01*
X52661431Y-8563269D01*
X52639730Y-8548769D01*
X52480144Y-8442136D01*
X52266300Y-8399600D01*
X44904600Y-8399600D01*
X44690756Y-8442136D01*
X44531170Y-8548769D01*
X44509469Y-8563269D01*
X38436669Y-14636069D01*
X38315536Y-14817356D01*
X38273000Y-15031200D01*
X38273000Y-15312243D01*
X38113382Y-15152346D01*
X37861413Y-15047719D01*
X37588584Y-15047481D01*
X37453652Y-15103234D01*
X37441264Y-15040956D01*
X37320131Y-14859669D01*
X32931731Y-10471269D01*
X32750444Y-10350136D01*
X32536600Y-10307600D01*
X30423372Y-10307600D01*
X30386378Y-10218069D01*
X30033480Y-9864555D01*
X29572161Y-9672998D01*
X29072652Y-9672562D01*
X28611000Y-9863313D01*
X28386902Y-10087020D01*
X28341231Y-10018669D01*
X27477531Y-9154969D01*
X27296244Y-9033836D01*
X27082400Y-8991300D01*
X22834100Y-8991300D01*
X22620256Y-9033836D01*
X22438969Y-9154969D01*
X15644769Y-15949169D01*
X15523636Y-16130456D01*
X15481100Y-16344300D01*
X15481100Y-36787637D01*
X14288289Y-35594826D01*
X14316097Y-35527856D01*
X14316481Y-35087795D01*
X14148432Y-34681084D01*
X13837533Y-34369642D01*
X13431116Y-34200883D01*
X12991055Y-34200499D01*
X12584344Y-34368548D01*
X12272902Y-34679447D01*
X12104143Y-35085864D01*
X12103759Y-35525925D01*
X12271808Y-35932636D01*
X12582707Y-36244078D01*
X12989124Y-36412837D01*
X13429185Y-36413221D01*
X13497805Y-36384868D01*
X15920268Y-38807331D01*
X15985899Y-38851184D01*
X16101556Y-38928464D01*
X16315400Y-38971000D01*
X23510182Y-38971000D01*
X23246120Y-39080378D01*
X23145499Y-39348891D01*
X23031259Y-39234651D01*
X22987000Y-39278910D01*
X22987000Y-39116000D01*
X22978315Y-39069841D01*
X22951035Y-39027447D01*
X22909410Y-38999006D01*
X22860000Y-38989000D01*
X17780000Y-38989000D01*
X17733841Y-38997685D01*
X17691447Y-39024965D01*
X17663006Y-39066590D01*
X17653000Y-39116000D01*
X17653000Y-41910000D01*
X17661685Y-41956159D01*
X17688965Y-41998553D01*
X17730590Y-42026994D01*
X17780000Y-42037000D01*
X22467422Y-42037000D01*
X23807111Y-43376689D01*
X23955437Y-43475798D01*
X24130400Y-43510600D01*
X41020600Y-43510600D01*
X41195563Y-43475798D01*
X41343889Y-43376689D01*
X44119821Y-40600757D01*
X44244481Y-40652521D01*
X44653723Y-40652878D01*
X45031950Y-40496598D01*
X45321581Y-40207472D01*
X45478521Y-39829519D01*
X45478878Y-39420277D01*
X45322598Y-39042050D01*
X45252570Y-38971900D01*
X47512700Y-38971900D01*
X47726544Y-38929364D01*
X47907831Y-38808231D01*
X48655131Y-38060931D01*
X48678051Y-38026629D01*
X48710606Y-37977907D01*
X48730828Y-38008171D01*
X49097491Y-38253168D01*
X49530000Y-38339199D01*
X49962509Y-38253168D01*
X50226437Y-38076817D01*
X50238102Y-38135463D01*
X50337211Y-38283789D01*
X52501800Y-40448378D01*
X52501800Y-44981934D01*
X52461302Y-44921324D01*
X52106967Y-44684565D01*
X51689000Y-44601426D01*
X51271033Y-44684565D01*
X50916698Y-44921324D01*
X50679939Y-45275659D01*
X50631973Y-45516800D01*
X50596500Y-45516800D01*
X50421537Y-45551602D01*
X50273211Y-45650711D01*
X50241200Y-45698618D01*
X50241200Y-45693626D01*
X50158061Y-45275659D01*
X49921302Y-44921324D01*
X49566967Y-44684565D01*
X49149000Y-44601426D01*
X48731033Y-44684565D01*
X48376698Y-44921324D01*
X48139939Y-45275659D01*
X48056800Y-45693626D01*
X48056800Y-45924342D01*
X47953913Y-45881619D01*
X47777643Y-45881465D01*
X47758289Y-45862111D01*
X47609963Y-45763002D01*
X47435000Y-45728200D01*
X14774600Y-45728200D01*
X14599637Y-45763002D01*
X14451311Y-45862111D01*
X10322262Y-49991160D01*
X9946323Y-49835056D01*
X9360248Y-49834545D01*
X8818589Y-50058353D01*
X8403810Y-50472409D01*
X8179056Y-51013677D01*
X8178545Y-51599752D01*
X8402353Y-52141411D01*
X8816409Y-52556190D01*
X9357677Y-52780944D01*
X9943752Y-52781455D01*
X10485411Y-52557647D01*
X10900190Y-52143591D01*
X11124944Y-51602323D01*
X11125455Y-51016248D01*
X10968995Y-50637583D01*
X11396390Y-50210188D01*
X43695417Y-50210188D01*
X43757071Y-50445800D01*
X44257480Y-50621927D01*
X44787199Y-50593148D01*
X45142929Y-50445800D01*
X45204583Y-50210188D01*
X44450000Y-49455605D01*
X43695417Y-50210188D01*
X11396390Y-50210188D01*
X12523098Y-49083480D01*
X43104073Y-49083480D01*
X43132852Y-49613199D01*
X43280200Y-49968929D01*
X43515812Y-50030583D01*
X44270395Y-49276000D01*
X44629605Y-49276000D01*
X45384188Y-50030583D01*
X45619800Y-49968929D01*
X45795927Y-49468520D01*
X45767148Y-48938801D01*
X45619800Y-48583071D01*
X45384188Y-48521417D01*
X44629605Y-49276000D01*
X44270395Y-49276000D01*
X43515812Y-48521417D01*
X43280200Y-48583071D01*
X43104073Y-49083480D01*
X12523098Y-49083480D01*
X13428390Y-48178188D01*
X43695417Y-48178188D01*
X43716825Y-48260000D01*
X43695417Y-48341812D01*
X43753408Y-48399803D01*
X43757071Y-48413800D01*
X43773018Y-48419413D01*
X44450000Y-49096395D01*
X45125288Y-48421107D01*
X45142929Y-48413800D01*
X45146592Y-48399803D01*
X45204583Y-48341812D01*
X45183175Y-48260000D01*
X45204583Y-48178188D01*
X45146592Y-48120197D01*
X45142929Y-48106200D01*
X45126982Y-48100587D01*
X44450000Y-47423605D01*
X43774712Y-48098893D01*
X43757071Y-48106200D01*
X43753408Y-48120197D01*
X43695417Y-48178188D01*
X13428390Y-48178188D01*
X14963978Y-46642600D01*
X43247985Y-46642600D01*
X43104073Y-47051480D01*
X43132852Y-47581199D01*
X43280200Y-47936929D01*
X43515812Y-47998583D01*
X44270395Y-47244000D01*
X44256253Y-47229858D01*
X44435858Y-47050253D01*
X44450000Y-47064395D01*
X44464143Y-47050253D01*
X44643748Y-47229858D01*
X44629605Y-47244000D01*
X45384188Y-47998583D01*
X45619800Y-47936929D01*
X45795927Y-47436520D01*
X45767148Y-46906801D01*
X45657713Y-46642600D01*
X47131034Y-46642600D01*
X47130981Y-46703116D01*
X47235168Y-46955267D01*
X47427918Y-47148354D01*
X47679887Y-47252981D01*
X47952716Y-47253219D01*
X48204867Y-47149032D01*
X48356987Y-46997177D01*
X48376698Y-47026676D01*
X48731033Y-47263435D01*
X49149000Y-47346574D01*
X49566967Y-47263435D01*
X49921302Y-47026676D01*
X50139300Y-46700419D01*
X50139300Y-50560122D01*
X44780179Y-55919243D01*
X44655519Y-55867479D01*
X44246277Y-55867122D01*
X43868050Y-56023402D01*
X43578419Y-56312528D01*
X43525986Y-56438800D01*
X42037000Y-56438800D01*
X41862037Y-56473602D01*
X41713711Y-56572711D01*
X37707422Y-60579000D01*
X35560000Y-60579000D01*
X35513841Y-60587685D01*
X35471447Y-60614965D01*
X35443006Y-60656590D01*
X35433000Y-60706000D01*
X35433000Y-63094800D01*
X22987000Y-63094800D01*
X22987000Y-60706000D01*
X22978315Y-60659841D01*
X22951035Y-60617447D01*
X22909410Y-60589006D01*
X22860000Y-60579000D01*
X20320000Y-60579000D01*
X20273841Y-60587685D01*
X20231447Y-60614965D01*
X20203006Y-60656590D01*
X20193000Y-60706000D01*
X20193000Y-60868910D01*
X20148741Y-60824651D01*
X20034501Y-60938891D01*
X19933880Y-60670378D01*
X19318358Y-60441184D01*
X18661981Y-60464986D01*
X18166120Y-60670378D01*
X18065498Y-60938893D01*
X19050000Y-61923395D01*
X19064143Y-61909253D01*
X19243748Y-62088858D01*
X19229605Y-62103000D01*
X19243748Y-62117143D01*
X19064143Y-62296748D01*
X19050000Y-62282605D01*
X19035858Y-62296748D01*
X18856253Y-62117143D01*
X18870395Y-62103000D01*
X17885893Y-61118498D01*
X17617378Y-61219120D01*
X17388184Y-61834642D01*
X17411986Y-62491019D01*
X17617378Y-62986880D01*
X17885891Y-63087501D01*
X17878592Y-63094800D01*
X2579908Y-63094800D01*
X1726084Y-62924964D01*
X1036083Y-62463920D01*
X575036Y-61773915D01*
X405200Y-60920092D01*
X405200Y-56621905D01*
X850696Y-56621905D01*
X1030128Y-57056165D01*
X1362087Y-57388704D01*
X1796034Y-57568894D01*
X2265905Y-57569304D01*
X2700165Y-57389872D01*
X3032704Y-57057913D01*
X3119757Y-56848264D01*
X4787497Y-56848264D01*
X5140575Y-57702777D01*
X5793784Y-58357127D01*
X6647680Y-58711696D01*
X7572264Y-58712503D01*
X8426777Y-58359425D01*
X9081127Y-57706216D01*
X9435696Y-56852320D01*
X9435897Y-56621905D01*
X11010696Y-56621905D01*
X11190128Y-57056165D01*
X11522087Y-57388704D01*
X11956034Y-57568894D01*
X12425905Y-57569304D01*
X12860165Y-57389872D01*
X13192704Y-57057913D01*
X13372894Y-56623966D01*
X13373304Y-56154095D01*
X13193872Y-55719835D01*
X12861913Y-55387296D01*
X12427966Y-55207106D01*
X11958095Y-55206696D01*
X11523835Y-55386128D01*
X11191296Y-55718087D01*
X11011106Y-56152034D01*
X11010696Y-56621905D01*
X9435897Y-56621905D01*
X9436503Y-55927736D01*
X9083425Y-55073223D01*
X8430216Y-54418873D01*
X7576320Y-54064304D01*
X6651736Y-54063497D01*
X5797223Y-54416575D01*
X5142873Y-55069784D01*
X4788304Y-55923680D01*
X4787497Y-56848264D01*
X3119757Y-56848264D01*
X3212894Y-56623966D01*
X3213304Y-56154095D01*
X3033872Y-55719835D01*
X2918001Y-55603762D01*
X3003333Y-55636062D01*
X3710329Y-55614249D01*
X4262194Y-55385658D01*
X4378358Y-55103963D01*
X3302000Y-54027605D01*
X2225642Y-55103963D01*
X2268219Y-55207211D01*
X2267966Y-55207106D01*
X1798095Y-55206696D01*
X1363835Y-55386128D01*
X1031296Y-55718087D01*
X851106Y-56152034D01*
X850696Y-56621905D01*
X405200Y-56621905D01*
X405200Y-53549333D01*
X1513938Y-53549333D01*
X1535751Y-54256329D01*
X1764342Y-54808194D01*
X2046037Y-54924358D01*
X3122395Y-53848000D01*
X3481605Y-53848000D01*
X4557963Y-54924358D01*
X4839658Y-54808194D01*
X5090062Y-54146667D01*
X5068249Y-53439671D01*
X4839658Y-52887806D01*
X4557963Y-52771642D01*
X3481605Y-53848000D01*
X3122395Y-53848000D01*
X2046037Y-52771642D01*
X1764342Y-52887806D01*
X1513938Y-53549333D01*
X405200Y-53549333D01*
X405200Y-52592037D01*
X2225642Y-52592037D01*
X3302000Y-53668395D01*
X4378358Y-52592037D01*
X4262194Y-52310342D01*
X3600667Y-52059938D01*
X2893671Y-52081751D01*
X2341806Y-52310342D01*
X2225642Y-52592037D01*
X405200Y-52592037D01*
X405200Y-46980737D01*
X9208848Y-46980737D01*
X9368615Y-47299492D01*
X10159337Y-47609455D01*
X11008486Y-47593227D01*
X11717625Y-47299492D01*
X11877392Y-46980737D01*
X10543120Y-45646465D01*
X9208848Y-46980737D01*
X405200Y-46980737D01*
X405200Y-45083077D01*
X8400525Y-45083077D01*
X8416753Y-45932226D01*
X8710488Y-46641365D01*
X9029243Y-46801132D01*
X10363515Y-45466860D01*
X10722725Y-45466860D01*
X12056997Y-46801132D01*
X12375752Y-46641365D01*
X12685715Y-45850643D01*
X12669487Y-45001494D01*
X12375752Y-44292355D01*
X12056997Y-44132588D01*
X10722725Y-45466860D01*
X10363515Y-45466860D01*
X9029243Y-44132588D01*
X8710488Y-44292355D01*
X8400525Y-45083077D01*
X405200Y-45083077D01*
X405200Y-43952983D01*
X9208848Y-43952983D01*
X10543120Y-45287255D01*
X11877392Y-43952983D01*
X11717625Y-43634228D01*
X11096610Y-43390790D01*
X12417795Y-43390790D01*
X12485855Y-43631791D01*
X13005154Y-43816627D01*
X13555658Y-43788665D01*
X13934385Y-43631791D01*
X14002445Y-43390790D01*
X13210120Y-42598465D01*
X12417795Y-43390790D01*
X11096610Y-43390790D01*
X10926903Y-43324265D01*
X10077754Y-43340493D01*
X9368615Y-43634228D01*
X9208848Y-43952983D01*
X405200Y-43952983D01*
X405200Y-42213894D01*
X11812353Y-42213894D01*
X11840315Y-42764398D01*
X11997189Y-43143125D01*
X12238190Y-43211185D01*
X13030515Y-42418860D01*
X13389725Y-42418860D01*
X14182050Y-43211185D01*
X14423051Y-43143125D01*
X14607887Y-42623826D01*
X14579925Y-42073322D01*
X14423051Y-41694595D01*
X14182050Y-41626535D01*
X13389725Y-42418860D01*
X13030515Y-42418860D01*
X12238190Y-41626535D01*
X11997189Y-41694595D01*
X11812353Y-42213894D01*
X405200Y-42213894D01*
X405200Y-41446930D01*
X12417795Y-41446930D01*
X13210120Y-42239255D01*
X14002445Y-41446930D01*
X13934385Y-41205929D01*
X13415086Y-41021093D01*
X12864582Y-41049055D01*
X12485855Y-41205929D01*
X12417795Y-41446930D01*
X405200Y-41446930D01*
X405200Y-38060895D01*
X12129162Y-38060895D01*
X12293353Y-38458267D01*
X12597113Y-38762558D01*
X12838771Y-38862903D01*
X12598713Y-38962093D01*
X12294422Y-39265853D01*
X12129538Y-39662938D01*
X12129162Y-40092895D01*
X12293353Y-40490267D01*
X12597113Y-40794558D01*
X12994198Y-40959442D01*
X13424155Y-40959818D01*
X13821527Y-40795627D01*
X14125818Y-40491867D01*
X14290702Y-40094782D01*
X14291078Y-39664825D01*
X14126887Y-39267453D01*
X13823127Y-38963162D01*
X13581469Y-38862817D01*
X13821527Y-38763627D01*
X14125818Y-38459867D01*
X14290702Y-38062782D01*
X14291078Y-37632825D01*
X14126887Y-37235453D01*
X13823127Y-36931162D01*
X13426042Y-36766278D01*
X12996085Y-36765902D01*
X12598713Y-36930093D01*
X12294422Y-37233853D01*
X12129538Y-37630938D01*
X12129162Y-38060895D01*
X405200Y-38060895D01*
X405200Y-33264737D01*
X9208848Y-33264737D01*
X9368615Y-33583492D01*
X10159337Y-33893455D01*
X11008486Y-33877227D01*
X11717625Y-33583492D01*
X11877392Y-33264737D01*
X10543120Y-31930465D01*
X9208848Y-33264737D01*
X405200Y-33264737D01*
X405200Y-31367077D01*
X8400525Y-31367077D01*
X8416753Y-32216226D01*
X8710488Y-32925365D01*
X9029243Y-33085132D01*
X10363515Y-31750860D01*
X9029243Y-30416588D01*
X8710488Y-30576355D01*
X8400525Y-31367077D01*
X405200Y-31367077D01*
X405200Y-30236983D01*
X9208848Y-30236983D01*
X10543120Y-31571255D01*
X10557263Y-31557113D01*
X10736868Y-31736718D01*
X10722725Y-31750860D01*
X12056997Y-33085132D01*
X12375752Y-32925365D01*
X12685715Y-32134643D01*
X12669487Y-31285494D01*
X12519894Y-30924344D01*
X13165294Y-30924907D01*
X14029146Y-30567970D01*
X14690647Y-29907622D01*
X15049091Y-29044395D01*
X15049907Y-28109706D01*
X14692970Y-27245854D01*
X14032622Y-26584353D01*
X13169395Y-26225909D01*
X12234706Y-26225093D01*
X11370854Y-26582030D01*
X10709353Y-27242378D01*
X10350909Y-28105605D01*
X10350093Y-29040294D01*
X10587455Y-29614752D01*
X10077754Y-29624493D01*
X9368615Y-29918228D01*
X9208848Y-30236983D01*
X405200Y-30236983D01*
X405200Y-21717002D01*
X545782Y-21717002D01*
X424642Y-21949026D01*
X427291Y-21964791D01*
X681268Y-22492036D01*
X1117680Y-22881954D01*
X1483185Y-23009806D01*
X1396379Y-23027073D01*
X1009082Y-23285856D01*
X750299Y-23673153D01*
X659426Y-24130000D01*
X750299Y-24586847D01*
X1009082Y-24974144D01*
X1396379Y-25232927D01*
X1853226Y-25323800D01*
X2210774Y-25323800D01*
X2667621Y-25232927D01*
X3054918Y-24974144D01*
X3313701Y-24586847D01*
X3404574Y-24130000D01*
X3313701Y-23673153D01*
X3054918Y-23285856D01*
X2667621Y-23027073D01*
X2580815Y-23009806D01*
X2946320Y-22881954D01*
X3382732Y-22492036D01*
X3636709Y-21964791D01*
X3639358Y-21949026D01*
X3518217Y-21717000D01*
X2159000Y-21717000D01*
X2159000Y-21737000D01*
X1905000Y-21737000D01*
X1905000Y-21717000D01*
X1885000Y-21717000D01*
X1885000Y-21463000D01*
X1905000Y-21463000D01*
X1905000Y-21443000D01*
X2159000Y-21443000D01*
X2159000Y-21463000D01*
X3518217Y-21463000D01*
X3639358Y-21230974D01*
X3636709Y-21215209D01*
X3382732Y-20687964D01*
X2946320Y-20298046D01*
X2809735Y-20250269D01*
X3048000Y-20250269D01*
X3170365Y-20227244D01*
X3282749Y-20154927D01*
X3358144Y-20044583D01*
X3384669Y-19913600D01*
X3384669Y-18277628D01*
X11469587Y-18277628D01*
X11656479Y-18729942D01*
X12002238Y-19076305D01*
X12242800Y-19176195D01*
X12242800Y-20030856D01*
X12118050Y-20082402D01*
X11828419Y-20371528D01*
X11671479Y-20749481D01*
X11671122Y-21158723D01*
X11827402Y-21536950D01*
X12116528Y-21826581D01*
X12494481Y-21983521D01*
X12903723Y-21983878D01*
X13281950Y-21827598D01*
X13571581Y-21538472D01*
X13728521Y-21160519D01*
X13728878Y-20751277D01*
X13572598Y-20373050D01*
X13283472Y-20083419D01*
X13157200Y-20030986D01*
X13157200Y-19176167D01*
X13395942Y-19077521D01*
X13742305Y-18731762D01*
X13929986Y-18279775D01*
X13930413Y-17790372D01*
X13743521Y-17338058D01*
X13397762Y-16991695D01*
X12945775Y-16804014D01*
X12456372Y-16803587D01*
X12004058Y-16990479D01*
X11657695Y-17336238D01*
X11470014Y-17788225D01*
X11469587Y-18277628D01*
X3384669Y-18277628D01*
X3384669Y-18186400D01*
X3361644Y-18064035D01*
X3289327Y-17951651D01*
X3178983Y-17876256D01*
X3048000Y-17849731D01*
X1016000Y-17849731D01*
X893635Y-17872756D01*
X781251Y-17945073D01*
X705856Y-18055417D01*
X679331Y-18186400D01*
X679331Y-19913600D01*
X702356Y-20035965D01*
X774673Y-20148349D01*
X885017Y-20223744D01*
X1016000Y-20250269D01*
X1254265Y-20250269D01*
X1117680Y-20298046D01*
X681268Y-20687964D01*
X427291Y-21215209D01*
X424642Y-21230974D01*
X545782Y-21462998D01*
X405200Y-21462998D01*
X405200Y-14086000D01*
X11437434Y-14086000D01*
X11437434Y-15886000D01*
X11462230Y-16017777D01*
X11540110Y-16138807D01*
X11658942Y-16220001D01*
X11800000Y-16248566D01*
X13600000Y-16248566D01*
X13731777Y-16223770D01*
X13852807Y-16145890D01*
X13934001Y-16027058D01*
X13962566Y-15886000D01*
X13962566Y-15544800D01*
X14032100Y-15544800D01*
X14245944Y-15502264D01*
X14427231Y-15381131D01*
X21761060Y-8047302D01*
X59550856Y-8047302D01*
X59578638Y-8602368D01*
X59737603Y-8986143D01*
X59979787Y-9055608D01*
X60780395Y-8255000D01*
X59979787Y-7454392D01*
X59737603Y-7523857D01*
X59550856Y-8047302D01*
X21761060Y-8047302D01*
X22533575Y-7274787D01*
X60159392Y-7274787D01*
X60960000Y-8075395D01*
X61760608Y-7274787D01*
X61691143Y-7032603D01*
X61167698Y-6845856D01*
X60612632Y-6873638D01*
X60228857Y-7032603D01*
X60159392Y-7274787D01*
X22533575Y-7274787D01*
X22965862Y-6842500D01*
X55946300Y-6842500D01*
X56160144Y-6799964D01*
X56341431Y-6678831D01*
X56853330Y-6166932D01*
X56926720Y-6197406D01*
X57371329Y-6197793D01*
X57782242Y-6028008D01*
X58096903Y-5713896D01*
X58267406Y-5303280D01*
X58267793Y-4858671D01*
X58183423Y-4654478D01*
X59781632Y-4654478D01*
X59965348Y-5028361D01*
X60289851Y-5316108D01*
X60699769Y-5457769D01*
X60873900Y-5309103D01*
X60873900Y-4483540D01*
X61127900Y-4483540D01*
X61127900Y-5309103D01*
X61302031Y-5457769D01*
X61711949Y-5316108D01*
X62036452Y-5028361D01*
X62220168Y-4654478D01*
X64781632Y-4654478D01*
X64965348Y-5028361D01*
X65289851Y-5316108D01*
X65699769Y-5457769D01*
X65873900Y-5309103D01*
X65873900Y-4483540D01*
X66127900Y-4483540D01*
X66127900Y-5309103D01*
X66302031Y-5457769D01*
X66711949Y-5316108D01*
X67036452Y-5028361D01*
X67220168Y-4654478D01*
X67093634Y-4483540D01*
X66127900Y-4483540D01*
X65873900Y-4483540D01*
X64908166Y-4483540D01*
X64781632Y-4654478D01*
X62220168Y-4654478D01*
X62093634Y-4483540D01*
X61127900Y-4483540D01*
X60873900Y-4483540D01*
X59908166Y-4483540D01*
X59781632Y-4654478D01*
X58183423Y-4654478D01*
X58098008Y-4447758D01*
X57783896Y-4133097D01*
X57604493Y-4058602D01*
X59781632Y-4058602D01*
X59908166Y-4229540D01*
X60873900Y-4229540D01*
X60873900Y-3403977D01*
X61127900Y-3403977D01*
X61127900Y-4229540D01*
X62093634Y-4229540D01*
X62220168Y-4058602D01*
X64781632Y-4058602D01*
X64908166Y-4229540D01*
X65873900Y-4229540D01*
X65873900Y-3403977D01*
X66127900Y-3403977D01*
X66127900Y-4229540D01*
X67093634Y-4229540D01*
X67220168Y-4058602D01*
X67036452Y-3684719D01*
X66711949Y-3396972D01*
X66302031Y-3255311D01*
X66127900Y-3403977D01*
X65873900Y-3403977D01*
X65699769Y-3255311D01*
X65289851Y-3396972D01*
X64965348Y-3684719D01*
X64781632Y-4058602D01*
X62220168Y-4058602D01*
X62036452Y-3684719D01*
X61711949Y-3396972D01*
X61302031Y-3255311D01*
X61127900Y-3403977D01*
X60873900Y-3403977D01*
X60699769Y-3255311D01*
X60289851Y-3396972D01*
X59965348Y-3684719D01*
X59781632Y-4058602D01*
X57604493Y-4058602D01*
X57373280Y-3962594D01*
X56928671Y-3962207D01*
X56517758Y-4131992D01*
X56203097Y-4446104D01*
X56032594Y-4856720D01*
X56032207Y-5301329D01*
X56063258Y-5376480D01*
X55714838Y-5724900D01*
X55509927Y-5724900D01*
X55535382Y-5699489D01*
X55702010Y-5298205D01*
X55702389Y-4863701D01*
X55536462Y-4462127D01*
X55229489Y-4154618D01*
X54828205Y-3987990D01*
X54393701Y-3987611D01*
X53992127Y-4153538D01*
X53684618Y-4460511D01*
X53517990Y-4861795D01*
X53517611Y-5296299D01*
X53683538Y-5697873D01*
X53710518Y-5724900D01*
X53323166Y-5724900D01*
X53479144Y-5287698D01*
X53451362Y-4732632D01*
X53292397Y-4348857D01*
X53050213Y-4279392D01*
X52249605Y-5080000D01*
X52263748Y-5094143D01*
X52084143Y-5273748D01*
X52070000Y-5259605D01*
X52055858Y-5273748D01*
X51876253Y-5094143D01*
X51890395Y-5080000D01*
X51089787Y-4279392D01*
X50847603Y-4348857D01*
X50660856Y-4872302D01*
X50688638Y-5427368D01*
X50811880Y-5724900D01*
X22734400Y-5724900D01*
X22520557Y-5767435D01*
X22339269Y-5888569D01*
X13962566Y-14265272D01*
X13962566Y-14086000D01*
X13937770Y-13954223D01*
X13859890Y-13833193D01*
X13741058Y-13751999D01*
X13600000Y-13723434D01*
X11800000Y-13723434D01*
X11668223Y-13748230D01*
X11547193Y-13826110D01*
X11465999Y-13944942D01*
X11437434Y-14086000D01*
X405200Y-14086000D01*
X405200Y-11633723D01*
X11671122Y-11633723D01*
X11827402Y-12011950D01*
X12116528Y-12301581D01*
X12494481Y-12458521D01*
X12903723Y-12458878D01*
X13281950Y-12302598D01*
X13571581Y-12013472D01*
X13728521Y-11635519D01*
X13728878Y-11226277D01*
X13572598Y-10848050D01*
X13283472Y-10558419D01*
X12905519Y-10401479D01*
X12496277Y-10401122D01*
X12118050Y-10557402D01*
X11828419Y-10846528D01*
X11671479Y-11224481D01*
X11671122Y-11633723D01*
X405200Y-11633723D01*
X405200Y-4277809D01*
X1447391Y-4277809D01*
X1806257Y-5146331D01*
X2470174Y-5811408D01*
X3338068Y-6171789D01*
X4277809Y-6172609D01*
X5146331Y-5813743D01*
X5811408Y-5149826D01*
X6171789Y-4281932D01*
X6172023Y-4013723D01*
X11671122Y-4013723D01*
X11827402Y-4391950D01*
X12116528Y-4681581D01*
X12494481Y-4838521D01*
X12903723Y-4838878D01*
X13281950Y-4682598D01*
X13571581Y-4393472D01*
X13693529Y-4099787D01*
X51269392Y-4099787D01*
X52070000Y-4900395D01*
X52870608Y-4099787D01*
X52801143Y-3857603D01*
X52277698Y-3670856D01*
X51722632Y-3698638D01*
X51338857Y-3857603D01*
X51269392Y-4099787D01*
X13693529Y-4099787D01*
X13728521Y-4015519D01*
X13728878Y-3606277D01*
X13572598Y-3228050D01*
X13283472Y-2938419D01*
X12905519Y-2781479D01*
X12496277Y-2781122D01*
X12118050Y-2937402D01*
X11828419Y-3226528D01*
X11671479Y-3604481D01*
X11671122Y-4013723D01*
X6172023Y-4013723D01*
X6172609Y-3342191D01*
X5813743Y-2473669D01*
X5149826Y-1808592D01*
X5089495Y-1783540D01*
X58865900Y-1783540D01*
X58865900Y-2058540D01*
X59000898Y-2483218D01*
X59288137Y-2823908D01*
X59699026Y-3025659D01*
X59873900Y-2899494D01*
X59873900Y-1783540D01*
X60127900Y-1783540D01*
X60127900Y-2899494D01*
X60302774Y-3025659D01*
X60713663Y-2823908D01*
X61000902Y-2483218D01*
X61135900Y-2058540D01*
X61135900Y-1783540D01*
X65865900Y-1783540D01*
X65865900Y-2058540D01*
X66000898Y-2483218D01*
X66288137Y-2823908D01*
X66699026Y-3025659D01*
X66873900Y-2899494D01*
X66873900Y-1783540D01*
X67127900Y-1783540D01*
X67127900Y-2899494D01*
X67302774Y-3025659D01*
X67713663Y-2823908D01*
X68000902Y-2483218D01*
X68135900Y-2058540D01*
X68135900Y-1783540D01*
X67127900Y-1783540D01*
X66873900Y-1783540D01*
X65865900Y-1783540D01*
X61135900Y-1783540D01*
X60127900Y-1783540D01*
X59873900Y-1783540D01*
X58865900Y-1783540D01*
X5089495Y-1783540D01*
X4281932Y-1448211D01*
X3342191Y-1447391D01*
X2473669Y-1806257D01*
X1808592Y-2470174D01*
X1448211Y-3338068D01*
X1447391Y-4277809D01*
X405200Y-4277809D01*
X405200Y-2579908D01*
X575036Y-1726085D01*
X1036083Y-1036080D01*
X1726084Y-575036D01*
X2579908Y-405200D01*
X59459156Y-405200D01*
X59288137Y-489172D01*
G36*
X97902869Y-27504969D02*
X97781736Y-27686256D01*
X97739200Y-27900100D01*
X97739200Y-27942589D01*
X97470229Y-27762869D01*
X97028000Y-27674904D01*
X96585771Y-27762869D01*
X96210867Y-28013371D01*
X95960365Y-28388275D01*
X95872400Y-28830504D01*
X95872400Y-29589496D01*
X95960365Y-30031725D01*
X96210867Y-30406629D01*
X96585771Y-30657131D01*
X97028000Y-30745096D01*
X97470229Y-30657131D01*
X97739200Y-30477411D01*
X97739200Y-32788538D01*
X95324969Y-35202769D01*
X95203836Y-35384056D01*
X95171946Y-35544379D01*
X94930229Y-35382869D01*
X94488000Y-35294904D01*
X94045771Y-35382869D01*
X93670867Y-35633371D01*
X93420365Y-36008275D01*
X93332400Y-36450504D01*
X93332400Y-37209496D01*
X93420365Y-37651725D01*
X93670867Y-38026629D01*
X94045771Y-38277131D01*
X94488000Y-38365096D01*
X94930229Y-38277131D01*
X95305133Y-38026629D01*
X95555635Y-37651725D01*
X95607934Y-37388800D01*
X95720100Y-37388800D01*
X95848078Y-37363344D01*
X95574211Y-37637211D01*
X95475102Y-37785537D01*
X95440300Y-37960500D01*
X95440300Y-46915101D01*
X95397890Y-46849193D01*
X95279058Y-46767999D01*
X95138000Y-46739434D01*
X93838000Y-46739434D01*
X93706223Y-46764230D01*
X93585193Y-46842110D01*
X93503999Y-46960942D01*
X93475434Y-47102000D01*
X93475434Y-48402000D01*
X93500230Y-48533777D01*
X93578110Y-48654807D01*
X93696942Y-48736001D01*
X93838000Y-48764566D01*
X95138000Y-48764566D01*
X95269777Y-48739770D01*
X95390807Y-48661890D01*
X95440300Y-48589454D01*
X95440300Y-53809422D01*
X95062729Y-54186993D01*
X95024732Y-54095033D01*
X94831982Y-53901946D01*
X94580013Y-53797319D01*
X94307184Y-53797081D01*
X94055033Y-53901268D01*
X93861946Y-54094018D01*
X93757319Y-54345987D01*
X93757165Y-54522257D01*
X89796511Y-58482911D01*
X89697402Y-58631237D01*
X89662600Y-58806200D01*
X89662600Y-59454380D01*
X89538746Y-59578018D01*
X89489439Y-59696761D01*
X88146566Y-58353888D01*
X88146719Y-58178884D01*
X88042532Y-57926733D01*
X87849782Y-57733646D01*
X87597813Y-57629019D01*
X87324984Y-57628781D01*
X87072833Y-57732968D01*
X86879746Y-57925718D01*
X86775119Y-58177687D01*
X86774881Y-58450516D01*
X86879068Y-58702667D01*
X87071818Y-58895754D01*
X87323787Y-59000381D01*
X87500057Y-59000535D01*
X89476111Y-60976589D01*
X89624437Y-61075698D01*
X89799400Y-61110500D01*
X95013100Y-61110500D01*
X95188063Y-61075698D01*
X95336389Y-60976589D01*
X96434612Y-59878366D01*
X96609616Y-59878519D01*
X96861767Y-59774332D01*
X97054854Y-59581582D01*
X97159481Y-59329613D01*
X97159719Y-59056784D01*
X97055532Y-58804633D01*
X96862782Y-58611546D01*
X96610813Y-58506919D01*
X96337984Y-58506681D01*
X96085833Y-58610868D01*
X95892746Y-58803618D01*
X95788119Y-59055587D01*
X95787965Y-59231857D01*
X94823722Y-60196100D01*
X90767243Y-60196100D01*
X90805481Y-60104013D01*
X90805719Y-59831184D01*
X90701532Y-59579033D01*
X90577000Y-59454283D01*
X90577000Y-58995578D01*
X93752871Y-55819707D01*
X93790868Y-55911667D01*
X93983618Y-56104754D01*
X94076783Y-56143439D01*
X93854211Y-56366011D01*
X93755102Y-56514337D01*
X93720300Y-56689300D01*
X93720300Y-59090476D01*
X93684419Y-59176887D01*
X93684181Y-59449716D01*
X93788368Y-59701867D01*
X93981118Y-59894954D01*
X94233087Y-59999581D01*
X94505916Y-59999819D01*
X94758067Y-59895632D01*
X94951154Y-59702882D01*
X95055781Y-59450913D01*
X95056019Y-59178084D01*
X94967130Y-58962958D01*
X95188987Y-59055081D01*
X95461816Y-59055319D01*
X95713967Y-58951132D01*
X95907054Y-58758382D01*
X96011681Y-58506413D01*
X96011835Y-58330143D01*
X105872989Y-48468989D01*
X105972098Y-48320663D01*
X105992053Y-48220341D01*
X106460395Y-47752000D01*
X106446252Y-47737858D01*
X106625858Y-47558252D01*
X106640000Y-47572395D01*
X107359410Y-46852984D01*
X107303729Y-46622389D01*
X106820922Y-46454378D01*
X106310572Y-46483917D01*
X106006900Y-46609702D01*
X106006900Y-38657678D01*
X106380789Y-38283789D01*
X106479898Y-38135463D01*
X106491563Y-38076817D01*
X106755491Y-38253168D01*
X107188000Y-38339199D01*
X107620509Y-38253168D01*
X107987172Y-38008171D01*
X108232169Y-37641508D01*
X108318200Y-37208999D01*
X108318200Y-36451001D01*
X108232169Y-36018492D01*
X107987172Y-35651829D01*
X107620509Y-35406832D01*
X107188000Y-35320801D01*
X106755491Y-35406832D01*
X106388828Y-35651829D01*
X106143831Y-36018492D01*
X106073355Y-36372800D01*
X106057500Y-36372800D01*
X105882537Y-36407602D01*
X105778200Y-36477318D01*
X105778200Y-36451001D01*
X105692169Y-36018492D01*
X105447172Y-35651829D01*
X105080509Y-35406832D01*
X104648000Y-35320801D01*
X104215491Y-35406832D01*
X103848828Y-35651829D01*
X103749084Y-35801106D01*
X102942989Y-34995011D01*
X102794663Y-34895902D01*
X102619700Y-34861100D01*
X101608300Y-34861100D01*
X101433337Y-34895902D01*
X101285011Y-34995011D01*
X100496811Y-35783211D01*
X100475885Y-35814529D01*
X100367172Y-35651829D01*
X100000509Y-35406832D01*
X99568000Y-35320801D01*
X99135491Y-35406832D01*
X98768828Y-35651829D01*
X98523831Y-36018492D01*
X98437800Y-36451001D01*
X98437800Y-37208999D01*
X98523831Y-37641508D01*
X98768828Y-38008171D01*
X99110800Y-38236670D01*
X99110800Y-51109422D01*
X96354700Y-53865522D01*
X96354700Y-48892200D01*
X96807078Y-49049622D01*
X97317428Y-49020083D01*
X97651729Y-48881611D01*
X97707410Y-48651016D01*
X96988000Y-47931605D01*
X96973858Y-47945748D01*
X96794252Y-47766142D01*
X96808395Y-47752000D01*
X97167605Y-47752000D01*
X97887016Y-48471410D01*
X98117611Y-48415729D01*
X98285622Y-47932922D01*
X98256083Y-47422572D01*
X98117611Y-47088271D01*
X97887016Y-47032590D01*
X97167605Y-47752000D01*
X96808395Y-47752000D01*
X96794252Y-47737858D01*
X96973858Y-47558252D01*
X96988000Y-47572395D01*
X97707410Y-46852984D01*
X97651729Y-46622389D01*
X97168922Y-46454378D01*
X96658572Y-46483917D01*
X96354700Y-46609785D01*
X96354700Y-38149878D01*
X96389230Y-38115348D01*
X96595491Y-38253168D01*
X97028000Y-38339199D01*
X97460509Y-38253168D01*
X97827172Y-38008171D01*
X98072169Y-37641508D01*
X98158200Y-37208999D01*
X98158200Y-36451001D01*
X98072169Y-36018492D01*
X97827172Y-35651829D01*
X97460509Y-35406832D01*
X97028000Y-35320801D01*
X96727735Y-35380527D01*
X98693131Y-33415131D01*
X98771283Y-33298169D01*
X98814264Y-33233844D01*
X98856800Y-33020000D01*
X98856800Y-30477411D01*
X99125771Y-30657131D01*
X99568000Y-30745096D01*
X100010229Y-30657131D01*
X100385133Y-30406629D01*
X100635635Y-30031725D01*
X100687934Y-29768800D01*
X100696932Y-29768800D01*
X100830834Y-30226483D01*
X101183104Y-30664500D01*
X101676181Y-30934367D01*
X101758961Y-30951904D01*
X101981000Y-30829915D01*
X101981000Y-29337000D01*
X101961000Y-29337000D01*
X101961000Y-29083000D01*
X101981000Y-29083000D01*
X101981000Y-29063000D01*
X102235000Y-29063000D01*
X102235000Y-29083000D01*
X102255000Y-29083000D01*
X102255000Y-29337000D01*
X102235000Y-29337000D01*
X102235000Y-30829915D01*
X102457039Y-30951904D01*
X102539819Y-30934367D01*
X103032896Y-30664500D01*
X103385166Y-30226483D01*
X103524424Y-29750493D01*
X103580365Y-30031725D01*
X103830867Y-30406629D01*
X104205771Y-30657131D01*
X104648000Y-30745096D01*
X105090229Y-30657131D01*
X105451545Y-30415708D01*
X105452742Y-30417500D01*
X105484969Y-30465731D01*
X106217969Y-31198732D01*
X106399257Y-31319865D01*
X106613100Y-31362400D01*
X107741100Y-31362400D01*
X107848069Y-31341123D01*
X107954871Y-31319894D01*
X107954904Y-31319872D01*
X107954944Y-31319864D01*
X108046815Y-31258477D01*
X108136176Y-31198786D01*
X108853076Y-30482087D01*
X108853099Y-30482052D01*
X108853131Y-30482031D01*
X108907190Y-30401126D01*
X108910867Y-30406629D01*
X109285771Y-30657131D01*
X109728000Y-30745096D01*
X110170229Y-30657131D01*
X110401300Y-30502735D01*
X110401300Y-35537265D01*
X110170229Y-35382869D01*
X109728000Y-35294904D01*
X109285771Y-35382869D01*
X108910867Y-35633371D01*
X108660365Y-36008275D01*
X108572400Y-36450504D01*
X108572400Y-37209496D01*
X108660365Y-37651725D01*
X108910867Y-38026629D01*
X109285771Y-38277131D01*
X109728000Y-38365096D01*
X110170229Y-38277131D01*
X110545133Y-38026629D01*
X110795635Y-37651725D01*
X110847934Y-37388800D01*
X110960100Y-37388800D01*
X111115700Y-37357849D01*
X111115700Y-44204122D01*
X107904910Y-47414912D01*
X107769611Y-47088271D01*
X107539016Y-47032590D01*
X106819605Y-47752000D01*
X106833748Y-47766142D01*
X106654142Y-47945748D01*
X106640000Y-47931605D01*
X105920590Y-48651016D01*
X105976271Y-48881611D01*
X106318960Y-49000862D01*
X104062588Y-51257234D01*
X103887584Y-51257081D01*
X103635433Y-51361268D01*
X103442346Y-51554018D01*
X103337719Y-51805987D01*
X103337481Y-52078816D01*
X103441668Y-52330967D01*
X103634418Y-52524054D01*
X103745237Y-52570070D01*
X103653033Y-52608168D01*
X103459946Y-52800918D01*
X103355319Y-53052887D01*
X103355081Y-53325716D01*
X103459268Y-53577867D01*
X103652018Y-53770954D01*
X103766592Y-53818530D01*
X95450222Y-62134900D01*
X77979646Y-62134900D01*
X78121528Y-61922558D01*
X78151317Y-61772800D01*
X79761100Y-61772800D01*
X79974944Y-61730264D01*
X80156231Y-61609131D01*
X84665762Y-57099600D01*
X89302800Y-57099600D01*
X89516644Y-57057064D01*
X89697931Y-56935931D01*
X92804232Y-53829631D01*
X92925365Y-53648343D01*
X92967900Y-53434500D01*
X92967900Y-43278800D01*
X92940913Y-43143125D01*
X92925365Y-43064957D01*
X92804231Y-42883669D01*
X90592300Y-40671738D01*
X90592300Y-37364215D01*
X90715900Y-37388800D01*
X90828066Y-37388800D01*
X90880365Y-37651725D01*
X91130867Y-38026629D01*
X91505771Y-38277131D01*
X91948000Y-38365096D01*
X92390229Y-38277131D01*
X92765133Y-38026629D01*
X93015635Y-37651725D01*
X93103600Y-37209496D01*
X93103600Y-36450504D01*
X93015635Y-36008275D01*
X92765133Y-35633371D01*
X92390229Y-35382869D01*
X91948000Y-35294904D01*
X91505771Y-35382869D01*
X91274700Y-35537265D01*
X91274700Y-30502735D01*
X91505771Y-30657131D01*
X91948000Y-30745096D01*
X92390229Y-30657131D01*
X92765133Y-30406629D01*
X93015635Y-30031725D01*
X93067934Y-29768800D01*
X93180100Y-29768800D01*
X93360912Y-29732834D01*
X93420365Y-30031725D01*
X93670867Y-30406629D01*
X94045771Y-30657131D01*
X94488000Y-30745096D01*
X94930229Y-30657131D01*
X95305133Y-30406629D01*
X95555635Y-30031725D01*
X95643600Y-29589496D01*
X95643600Y-28830504D01*
X95555635Y-28388275D01*
X95305133Y-28013371D01*
X94930229Y-27762869D01*
X94630094Y-27703168D01*
X94989762Y-27343500D01*
X98064338Y-27343500D01*
X97902869Y-27504969D01*
X97902869Y-27504969D01*
G37*
X97902869Y-27504969D02*
X97781736Y-27686256D01*
X97739200Y-27900100D01*
X97739200Y-27942589D01*
X97470229Y-27762869D01*
X97028000Y-27674904D01*
X96585771Y-27762869D01*
X96210867Y-28013371D01*
X95960365Y-28388275D01*
X95872400Y-28830504D01*
X95872400Y-29589496D01*
X95960365Y-30031725D01*
X96210867Y-30406629D01*
X96585771Y-30657131D01*
X97028000Y-30745096D01*
X97470229Y-30657131D01*
X97739200Y-30477411D01*
X97739200Y-32788538D01*
X95324969Y-35202769D01*
X95203836Y-35384056D01*
X95171946Y-35544379D01*
X94930229Y-35382869D01*
X94488000Y-35294904D01*
X94045771Y-35382869D01*
X93670867Y-35633371D01*
X93420365Y-36008275D01*
X93332400Y-36450504D01*
X93332400Y-37209496D01*
X93420365Y-37651725D01*
X93670867Y-38026629D01*
X94045771Y-38277131D01*
X94488000Y-38365096D01*
X94930229Y-38277131D01*
X95305133Y-38026629D01*
X95555635Y-37651725D01*
X95607934Y-37388800D01*
X95720100Y-37388800D01*
X95848078Y-37363344D01*
X95574211Y-37637211D01*
X95475102Y-37785537D01*
X95440300Y-37960500D01*
X95440300Y-46915101D01*
X95397890Y-46849193D01*
X95279058Y-46767999D01*
X95138000Y-46739434D01*
X93838000Y-46739434D01*
X93706223Y-46764230D01*
X93585193Y-46842110D01*
X93503999Y-46960942D01*
X93475434Y-47102000D01*
X93475434Y-48402000D01*
X93500230Y-48533777D01*
X93578110Y-48654807D01*
X93696942Y-48736001D01*
X93838000Y-48764566D01*
X95138000Y-48764566D01*
X95269777Y-48739770D01*
X95390807Y-48661890D01*
X95440300Y-48589454D01*
X95440300Y-53809422D01*
X95062729Y-54186993D01*
X95024732Y-54095033D01*
X94831982Y-53901946D01*
X94580013Y-53797319D01*
X94307184Y-53797081D01*
X94055033Y-53901268D01*
X93861946Y-54094018D01*
X93757319Y-54345987D01*
X93757165Y-54522257D01*
X89796511Y-58482911D01*
X89697402Y-58631237D01*
X89662600Y-58806200D01*
X89662600Y-59454380D01*
X89538746Y-59578018D01*
X89489439Y-59696761D01*
X88146566Y-58353888D01*
X88146719Y-58178884D01*
X88042532Y-57926733D01*
X87849782Y-57733646D01*
X87597813Y-57629019D01*
X87324984Y-57628781D01*
X87072833Y-57732968D01*
X86879746Y-57925718D01*
X86775119Y-58177687D01*
X86774881Y-58450516D01*
X86879068Y-58702667D01*
X87071818Y-58895754D01*
X87323787Y-59000381D01*
X87500057Y-59000535D01*
X89476111Y-60976589D01*
X89624437Y-61075698D01*
X89799400Y-61110500D01*
X95013100Y-61110500D01*
X95188063Y-61075698D01*
X95336389Y-60976589D01*
X96434612Y-59878366D01*
X96609616Y-59878519D01*
X96861767Y-59774332D01*
X97054854Y-59581582D01*
X97159481Y-59329613D01*
X97159719Y-59056784D01*
X97055532Y-58804633D01*
X96862782Y-58611546D01*
X96610813Y-58506919D01*
X96337984Y-58506681D01*
X96085833Y-58610868D01*
X95892746Y-58803618D01*
X95788119Y-59055587D01*
X95787965Y-59231857D01*
X94823722Y-60196100D01*
X90767243Y-60196100D01*
X90805481Y-60104013D01*
X90805719Y-59831184D01*
X90701532Y-59579033D01*
X90577000Y-59454283D01*
X90577000Y-58995578D01*
X93752871Y-55819707D01*
X93790868Y-55911667D01*
X93983618Y-56104754D01*
X94076783Y-56143439D01*
X93854211Y-56366011D01*
X93755102Y-56514337D01*
X93720300Y-56689300D01*
X93720300Y-59090476D01*
X93684419Y-59176887D01*
X93684181Y-59449716D01*
X93788368Y-59701867D01*
X93981118Y-59894954D01*
X94233087Y-59999581D01*
X94505916Y-59999819D01*
X94758067Y-59895632D01*
X94951154Y-59702882D01*
X95055781Y-59450913D01*
X95056019Y-59178084D01*
X94967130Y-58962958D01*
X95188987Y-59055081D01*
X95461816Y-59055319D01*
X95713967Y-58951132D01*
X95907054Y-58758382D01*
X96011681Y-58506413D01*
X96011835Y-58330143D01*
X105872989Y-48468989D01*
X105972098Y-48320663D01*
X105992053Y-48220341D01*
X106460395Y-47752000D01*
X106446252Y-47737858D01*
X106625858Y-47558252D01*
X106640000Y-47572395D01*
X107359410Y-46852984D01*
X107303729Y-46622389D01*
X106820922Y-46454378D01*
X106310572Y-46483917D01*
X106006900Y-46609702D01*
X106006900Y-38657678D01*
X106380789Y-38283789D01*
X106479898Y-38135463D01*
X106491563Y-38076817D01*
X106755491Y-38253168D01*
X107188000Y-38339199D01*
X107620509Y-38253168D01*
X107987172Y-38008171D01*
X108232169Y-37641508D01*
X108318200Y-37208999D01*
X108318200Y-36451001D01*
X108232169Y-36018492D01*
X107987172Y-35651829D01*
X107620509Y-35406832D01*
X107188000Y-35320801D01*
X106755491Y-35406832D01*
X106388828Y-35651829D01*
X106143831Y-36018492D01*
X106073355Y-36372800D01*
X106057500Y-36372800D01*
X105882537Y-36407602D01*
X105778200Y-36477318D01*
X105778200Y-36451001D01*
X105692169Y-36018492D01*
X105447172Y-35651829D01*
X105080509Y-35406832D01*
X104648000Y-35320801D01*
X104215491Y-35406832D01*
X103848828Y-35651829D01*
X103749084Y-35801106D01*
X102942989Y-34995011D01*
X102794663Y-34895902D01*
X102619700Y-34861100D01*
X101608300Y-34861100D01*
X101433337Y-34895902D01*
X101285011Y-34995011D01*
X100496811Y-35783211D01*
X100475885Y-35814529D01*
X100367172Y-35651829D01*
X100000509Y-35406832D01*
X99568000Y-35320801D01*
X99135491Y-35406832D01*
X98768828Y-35651829D01*
X98523831Y-36018492D01*
X98437800Y-36451001D01*
X98437800Y-37208999D01*
X98523831Y-37641508D01*
X98768828Y-38008171D01*
X99110800Y-38236670D01*
X99110800Y-51109422D01*
X96354700Y-53865522D01*
X96354700Y-48892200D01*
X96807078Y-49049622D01*
X97317428Y-49020083D01*
X97651729Y-48881611D01*
X97707410Y-48651016D01*
X96988000Y-47931605D01*
X96973858Y-47945748D01*
X96794252Y-47766142D01*
X96808395Y-47752000D01*
X97167605Y-47752000D01*
X97887016Y-48471410D01*
X98117611Y-48415729D01*
X98285622Y-47932922D01*
X98256083Y-47422572D01*
X98117611Y-47088271D01*
X97887016Y-47032590D01*
X97167605Y-47752000D01*
X96808395Y-47752000D01*
X96794252Y-47737858D01*
X96973858Y-47558252D01*
X96988000Y-47572395D01*
X97707410Y-46852984D01*
X97651729Y-46622389D01*
X97168922Y-46454378D01*
X96658572Y-46483917D01*
X96354700Y-46609785D01*
X96354700Y-38149878D01*
X96389230Y-38115348D01*
X96595491Y-38253168D01*
X97028000Y-38339199D01*
X97460509Y-38253168D01*
X97827172Y-38008171D01*
X98072169Y-37641508D01*
X98158200Y-37208999D01*
X98158200Y-36451001D01*
X98072169Y-36018492D01*
X97827172Y-35651829D01*
X97460509Y-35406832D01*
X97028000Y-35320801D01*
X96727735Y-35380527D01*
X98693131Y-33415131D01*
X98771283Y-33298169D01*
X98814264Y-33233844D01*
X98856800Y-33020000D01*
X98856800Y-30477411D01*
X99125771Y-30657131D01*
X99568000Y-30745096D01*
X100010229Y-30657131D01*
X100385133Y-30406629D01*
X100635635Y-30031725D01*
X100687934Y-29768800D01*
X100696932Y-29768800D01*
X100830834Y-30226483D01*
X101183104Y-30664500D01*
X101676181Y-30934367D01*
X101758961Y-30951904D01*
X101981000Y-30829915D01*
X101981000Y-29337000D01*
X101961000Y-29337000D01*
X101961000Y-29083000D01*
X101981000Y-29083000D01*
X101981000Y-29063000D01*
X102235000Y-29063000D01*
X102235000Y-29083000D01*
X102255000Y-29083000D01*
X102255000Y-29337000D01*
X102235000Y-29337000D01*
X102235000Y-30829915D01*
X102457039Y-30951904D01*
X102539819Y-30934367D01*
X103032896Y-30664500D01*
X103385166Y-30226483D01*
X103524424Y-29750493D01*
X103580365Y-30031725D01*
X103830867Y-30406629D01*
X104205771Y-30657131D01*
X104648000Y-30745096D01*
X105090229Y-30657131D01*
X105451545Y-30415708D01*
X105452742Y-30417500D01*
X105484969Y-30465731D01*
X106217969Y-31198732D01*
X106399257Y-31319865D01*
X106613100Y-31362400D01*
X107741100Y-31362400D01*
X107848069Y-31341123D01*
X107954871Y-31319894D01*
X107954904Y-31319872D01*
X107954944Y-31319864D01*
X108046815Y-31258477D01*
X108136176Y-31198786D01*
X108853076Y-30482087D01*
X108853099Y-30482052D01*
X108853131Y-30482031D01*
X108907190Y-30401126D01*
X108910867Y-30406629D01*
X109285771Y-30657131D01*
X109728000Y-30745096D01*
X110170229Y-30657131D01*
X110401300Y-30502735D01*
X110401300Y-35537265D01*
X110170229Y-35382869D01*
X109728000Y-35294904D01*
X109285771Y-35382869D01*
X108910867Y-35633371D01*
X108660365Y-36008275D01*
X108572400Y-36450504D01*
X108572400Y-37209496D01*
X108660365Y-37651725D01*
X108910867Y-38026629D01*
X109285771Y-38277131D01*
X109728000Y-38365096D01*
X110170229Y-38277131D01*
X110545133Y-38026629D01*
X110795635Y-37651725D01*
X110847934Y-37388800D01*
X110960100Y-37388800D01*
X111115700Y-37357849D01*
X111115700Y-44204122D01*
X107904910Y-47414912D01*
X107769611Y-47088271D01*
X107539016Y-47032590D01*
X106819605Y-47752000D01*
X106833748Y-47766142D01*
X106654142Y-47945748D01*
X106640000Y-47931605D01*
X105920590Y-48651016D01*
X105976271Y-48881611D01*
X106318960Y-49000862D01*
X104062588Y-51257234D01*
X103887584Y-51257081D01*
X103635433Y-51361268D01*
X103442346Y-51554018D01*
X103337719Y-51805987D01*
X103337481Y-52078816D01*
X103441668Y-52330967D01*
X103634418Y-52524054D01*
X103745237Y-52570070D01*
X103653033Y-52608168D01*
X103459946Y-52800918D01*
X103355319Y-53052887D01*
X103355081Y-53325716D01*
X103459268Y-53577867D01*
X103652018Y-53770954D01*
X103766592Y-53818530D01*
X95450222Y-62134900D01*
X77979646Y-62134900D01*
X78121528Y-61922558D01*
X78151317Y-61772800D01*
X79761100Y-61772800D01*
X79974944Y-61730264D01*
X80156231Y-61609131D01*
X84665762Y-57099600D01*
X89302800Y-57099600D01*
X89516644Y-57057064D01*
X89697931Y-56935931D01*
X92804232Y-53829631D01*
X92925365Y-53648343D01*
X92967900Y-53434500D01*
X92967900Y-43278800D01*
X92940913Y-43143125D01*
X92925365Y-43064957D01*
X92804231Y-42883669D01*
X90592300Y-40671738D01*
X90592300Y-37364215D01*
X90715900Y-37388800D01*
X90828066Y-37388800D01*
X90880365Y-37651725D01*
X91130867Y-38026629D01*
X91505771Y-38277131D01*
X91948000Y-38365096D01*
X92390229Y-38277131D01*
X92765133Y-38026629D01*
X93015635Y-37651725D01*
X93103600Y-37209496D01*
X93103600Y-36450504D01*
X93015635Y-36008275D01*
X92765133Y-35633371D01*
X92390229Y-35382869D01*
X91948000Y-35294904D01*
X91505771Y-35382869D01*
X91274700Y-35537265D01*
X91274700Y-30502735D01*
X91505771Y-30657131D01*
X91948000Y-30745096D01*
X92390229Y-30657131D01*
X92765133Y-30406629D01*
X93015635Y-30031725D01*
X93067934Y-29768800D01*
X93180100Y-29768800D01*
X93360912Y-29732834D01*
X93420365Y-30031725D01*
X93670867Y-30406629D01*
X94045771Y-30657131D01*
X94488000Y-30745096D01*
X94930229Y-30657131D01*
X95305133Y-30406629D01*
X95555635Y-30031725D01*
X95643600Y-29589496D01*
X95643600Y-28830504D01*
X95555635Y-28388275D01*
X95305133Y-28013371D01*
X94930229Y-27762869D01*
X94630094Y-27703168D01*
X94989762Y-27343500D01*
X98064338Y-27343500D01*
X97902869Y-27504969D01*
G36*
X55318102Y-38135463D02*
X55417211Y-38283789D01*
X60121800Y-42988378D01*
X60121800Y-44981934D01*
X60081302Y-44921324D01*
X59726967Y-44684565D01*
X59309000Y-44601426D01*
X58891033Y-44684565D01*
X58536698Y-44921324D01*
X58299939Y-45275659D01*
X58216800Y-45693626D01*
X58216800Y-46254374D01*
X58299939Y-46672341D01*
X58536698Y-47026676D01*
X58891033Y-47263435D01*
X59309000Y-47346574D01*
X59726967Y-47263435D01*
X60081302Y-47026676D01*
X60209929Y-46834172D01*
X60255711Y-46902689D01*
X70400834Y-57047813D01*
X70400681Y-57222816D01*
X70504868Y-57474967D01*
X70697618Y-57668054D01*
X70949587Y-57772681D01*
X71222416Y-57772919D01*
X71474567Y-57668732D01*
X71667654Y-57475982D01*
X71772281Y-57224013D01*
X71772519Y-56951184D01*
X71668332Y-56699033D01*
X71475582Y-56505946D01*
X71223613Y-56401319D01*
X71047344Y-56401165D01*
X61968902Y-47322724D01*
X62266967Y-47263435D01*
X62401779Y-47173357D01*
X74855140Y-59626718D01*
X74676000Y-59728280D01*
X74676000Y-61087000D01*
X75946000Y-61087000D01*
X75946000Y-60833000D01*
X75791059Y-60308059D01*
X75447026Y-59882370D01*
X75371376Y-59841200D01*
X76959943Y-59841200D01*
X76661313Y-59900601D01*
X76298737Y-60142866D01*
X76056472Y-60505442D01*
X75971400Y-60933129D01*
X75971400Y-61494871D01*
X76056472Y-61922558D01*
X76198354Y-62134900D01*
X75778969Y-62134900D01*
X75791059Y-62119941D01*
X75946000Y-61595000D01*
X75946000Y-61341000D01*
X74676000Y-61341000D01*
X74676000Y-61361000D01*
X74422000Y-61361000D01*
X74422000Y-61341000D01*
X73152000Y-61341000D01*
X73152000Y-61595000D01*
X73306941Y-62119941D01*
X73319031Y-62134900D01*
X72869352Y-62134900D01*
X73018061Y-61912341D01*
X73101200Y-61494374D01*
X73101200Y-60933626D01*
X73081185Y-60833000D01*
X73152000Y-60833000D01*
X73152000Y-61087000D01*
X74422000Y-61087000D01*
X74422000Y-59728280D01*
X74205930Y-59605780D01*
X74131723Y-59620740D01*
X73650974Y-59882370D01*
X73306941Y-60308059D01*
X73152000Y-60833000D01*
X73081185Y-60833000D01*
X73018061Y-60515659D01*
X72781302Y-60161324D01*
X72426967Y-59924565D01*
X72009000Y-59841426D01*
X71591033Y-59924565D01*
X71236698Y-60161324D01*
X70999939Y-60515659D01*
X70916800Y-60933626D01*
X70916800Y-61494374D01*
X70999939Y-61912341D01*
X71148648Y-62134900D01*
X70359646Y-62134900D01*
X70501528Y-61922558D01*
X70586600Y-61494871D01*
X70586600Y-60933129D01*
X70501528Y-60505442D01*
X70259263Y-60142866D01*
X69896687Y-59900601D01*
X69469000Y-59815529D01*
X69041313Y-59900601D01*
X68833700Y-60039323D01*
X68833700Y-60019900D01*
X68791164Y-59806056D01*
X68670031Y-59624769D01*
X56223446Y-47178184D01*
X56351033Y-47263435D01*
X56769000Y-47346574D01*
X57186967Y-47263435D01*
X57541302Y-47026676D01*
X57778061Y-46672341D01*
X57861200Y-46254374D01*
X57861200Y-45693626D01*
X57778061Y-45275659D01*
X57541302Y-44921324D01*
X57186967Y-44684565D01*
X56769000Y-44601426D01*
X56351033Y-44684565D01*
X56057800Y-44880497D01*
X56057800Y-40259000D01*
X56015264Y-40045156D01*
X55894131Y-39863869D01*
X54309735Y-38279473D01*
X54610000Y-38339199D01*
X55042509Y-38253168D01*
X55306437Y-38076817D01*
X55318102Y-38135463D01*
X55318102Y-38135463D01*
G37*
X55318102Y-38135463D02*
X55417211Y-38283789D01*
X60121800Y-42988378D01*
X60121800Y-44981934D01*
X60081302Y-44921324D01*
X59726967Y-44684565D01*
X59309000Y-44601426D01*
X58891033Y-44684565D01*
X58536698Y-44921324D01*
X58299939Y-45275659D01*
X58216800Y-45693626D01*
X58216800Y-46254374D01*
X58299939Y-46672341D01*
X58536698Y-47026676D01*
X58891033Y-47263435D01*
X59309000Y-47346574D01*
X59726967Y-47263435D01*
X60081302Y-47026676D01*
X60209929Y-46834172D01*
X60255711Y-46902689D01*
X70400834Y-57047813D01*
X70400681Y-57222816D01*
X70504868Y-57474967D01*
X70697618Y-57668054D01*
X70949587Y-57772681D01*
X71222416Y-57772919D01*
X71474567Y-57668732D01*
X71667654Y-57475982D01*
X71772281Y-57224013D01*
X71772519Y-56951184D01*
X71668332Y-56699033D01*
X71475582Y-56505946D01*
X71223613Y-56401319D01*
X71047344Y-56401165D01*
X61968902Y-47322724D01*
X62266967Y-47263435D01*
X62401779Y-47173357D01*
X74855140Y-59626718D01*
X74676000Y-59728280D01*
X74676000Y-61087000D01*
X75946000Y-61087000D01*
X75946000Y-60833000D01*
X75791059Y-60308059D01*
X75447026Y-59882370D01*
X75371376Y-59841200D01*
X76959943Y-59841200D01*
X76661313Y-59900601D01*
X76298737Y-60142866D01*
X76056472Y-60505442D01*
X75971400Y-60933129D01*
X75971400Y-61494871D01*
X76056472Y-61922558D01*
X76198354Y-62134900D01*
X75778969Y-62134900D01*
X75791059Y-62119941D01*
X75946000Y-61595000D01*
X75946000Y-61341000D01*
X74676000Y-61341000D01*
X74676000Y-61361000D01*
X74422000Y-61361000D01*
X74422000Y-61341000D01*
X73152000Y-61341000D01*
X73152000Y-61595000D01*
X73306941Y-62119941D01*
X73319031Y-62134900D01*
X72869352Y-62134900D01*
X73018061Y-61912341D01*
X73101200Y-61494374D01*
X73101200Y-60933626D01*
X73081185Y-60833000D01*
X73152000Y-60833000D01*
X73152000Y-61087000D01*
X74422000Y-61087000D01*
X74422000Y-59728280D01*
X74205930Y-59605780D01*
X74131723Y-59620740D01*
X73650974Y-59882370D01*
X73306941Y-60308059D01*
X73152000Y-60833000D01*
X73081185Y-60833000D01*
X73018061Y-60515659D01*
X72781302Y-60161324D01*
X72426967Y-59924565D01*
X72009000Y-59841426D01*
X71591033Y-59924565D01*
X71236698Y-60161324D01*
X70999939Y-60515659D01*
X70916800Y-60933626D01*
X70916800Y-61494374D01*
X70999939Y-61912341D01*
X71148648Y-62134900D01*
X70359646Y-62134900D01*
X70501528Y-61922558D01*
X70586600Y-61494871D01*
X70586600Y-60933129D01*
X70501528Y-60505442D01*
X70259263Y-60142866D01*
X69896687Y-59900601D01*
X69469000Y-59815529D01*
X69041313Y-59900601D01*
X68833700Y-60039323D01*
X68833700Y-60019900D01*
X68791164Y-59806056D01*
X68670031Y-59624769D01*
X56223446Y-47178184D01*
X56351033Y-47263435D01*
X56769000Y-47346574D01*
X57186967Y-47263435D01*
X57541302Y-47026676D01*
X57778061Y-46672341D01*
X57861200Y-46254374D01*
X57861200Y-45693626D01*
X57778061Y-45275659D01*
X57541302Y-44921324D01*
X57186967Y-44684565D01*
X56769000Y-44601426D01*
X56351033Y-44684565D01*
X56057800Y-44880497D01*
X56057800Y-40259000D01*
X56015264Y-40045156D01*
X55894131Y-39863869D01*
X54309735Y-38279473D01*
X54610000Y-38339199D01*
X55042509Y-38253168D01*
X55306437Y-38076817D01*
X55318102Y-38135463D01*
G36*
X79577491Y-38253168D02*
X80010000Y-38339199D01*
X80442509Y-38253168D01*
X80706437Y-38076817D01*
X80718102Y-38135463D01*
X80817211Y-38283789D01*
X90651800Y-48118378D01*
X90651800Y-51430380D01*
X90527946Y-51554018D01*
X90423319Y-51805987D01*
X90423081Y-52078816D01*
X90527268Y-52330967D01*
X90720018Y-52524054D01*
X90922110Y-52607970D01*
X90914919Y-52625287D01*
X90914681Y-52898116D01*
X91018868Y-53150267D01*
X91211618Y-53343354D01*
X91463587Y-53447981D01*
X91605233Y-53448105D01*
X90773781Y-54279557D01*
X90719932Y-54149233D01*
X90527182Y-53956146D01*
X90275213Y-53851519D01*
X90002384Y-53851281D01*
X89802111Y-53934033D01*
X84632644Y-48764566D01*
X85486000Y-48764566D01*
X85617777Y-48739770D01*
X85738807Y-48661890D01*
X85746236Y-48651016D01*
X86616590Y-48651016D01*
X86672271Y-48881611D01*
X87155078Y-49049622D01*
X87665428Y-49020083D01*
X87999729Y-48881611D01*
X88055410Y-48651016D01*
X87336000Y-47931605D01*
X86616590Y-48651016D01*
X85746236Y-48651016D01*
X85820001Y-48543058D01*
X85848566Y-48402000D01*
X85848566Y-47571078D01*
X86038378Y-47571078D01*
X86067917Y-48081428D01*
X86206389Y-48415729D01*
X86436984Y-48471410D01*
X87156395Y-47752000D01*
X87515605Y-47752000D01*
X88235016Y-48471410D01*
X88465611Y-48415729D01*
X88633622Y-47932922D01*
X88604083Y-47422572D01*
X88465611Y-47088271D01*
X88235016Y-47032590D01*
X87515605Y-47752000D01*
X87156395Y-47752000D01*
X86436984Y-47032590D01*
X86206389Y-47088271D01*
X86038378Y-47571078D01*
X85848566Y-47571078D01*
X85848566Y-47102000D01*
X85823770Y-46970223D01*
X85748330Y-46852984D01*
X86616590Y-46852984D01*
X87336000Y-47572395D01*
X88055410Y-46852984D01*
X87999729Y-46622389D01*
X87516922Y-46454378D01*
X87006572Y-46483917D01*
X86672271Y-46622389D01*
X86616590Y-46852984D01*
X85748330Y-46852984D01*
X85745890Y-46849193D01*
X85627058Y-46767999D01*
X85486000Y-46739434D01*
X85394800Y-46739434D01*
X85394800Y-46669900D01*
X85367430Y-46532299D01*
X85352265Y-46456057D01*
X85231132Y-46274769D01*
X79260900Y-40304538D01*
X79260900Y-38041628D01*
X79577491Y-38253168D01*
X79577491Y-38253168D01*
G37*
X79577491Y-38253168D02*
X80010000Y-38339199D01*
X80442509Y-38253168D01*
X80706437Y-38076817D01*
X80718102Y-38135463D01*
X80817211Y-38283789D01*
X90651800Y-48118378D01*
X90651800Y-51430380D01*
X90527946Y-51554018D01*
X90423319Y-51805987D01*
X90423081Y-52078816D01*
X90527268Y-52330967D01*
X90720018Y-52524054D01*
X90922110Y-52607970D01*
X90914919Y-52625287D01*
X90914681Y-52898116D01*
X91018868Y-53150267D01*
X91211618Y-53343354D01*
X91463587Y-53447981D01*
X91605233Y-53448105D01*
X90773781Y-54279557D01*
X90719932Y-54149233D01*
X90527182Y-53956146D01*
X90275213Y-53851519D01*
X90002384Y-53851281D01*
X89802111Y-53934033D01*
X84632644Y-48764566D01*
X85486000Y-48764566D01*
X85617777Y-48739770D01*
X85738807Y-48661890D01*
X85746236Y-48651016D01*
X86616590Y-48651016D01*
X86672271Y-48881611D01*
X87155078Y-49049622D01*
X87665428Y-49020083D01*
X87999729Y-48881611D01*
X88055410Y-48651016D01*
X87336000Y-47931605D01*
X86616590Y-48651016D01*
X85746236Y-48651016D01*
X85820001Y-48543058D01*
X85848566Y-48402000D01*
X85848566Y-47571078D01*
X86038378Y-47571078D01*
X86067917Y-48081428D01*
X86206389Y-48415729D01*
X86436984Y-48471410D01*
X87156395Y-47752000D01*
X87515605Y-47752000D01*
X88235016Y-48471410D01*
X88465611Y-48415729D01*
X88633622Y-47932922D01*
X88604083Y-47422572D01*
X88465611Y-47088271D01*
X88235016Y-47032590D01*
X87515605Y-47752000D01*
X87156395Y-47752000D01*
X86436984Y-47032590D01*
X86206389Y-47088271D01*
X86038378Y-47571078D01*
X85848566Y-47571078D01*
X85848566Y-47102000D01*
X85823770Y-46970223D01*
X85748330Y-46852984D01*
X86616590Y-46852984D01*
X87336000Y-47572395D01*
X88055410Y-46852984D01*
X87999729Y-46622389D01*
X87516922Y-46454378D01*
X87006572Y-46483917D01*
X86672271Y-46622389D01*
X86616590Y-46852984D01*
X85748330Y-46852984D01*
X85745890Y-46849193D01*
X85627058Y-46767999D01*
X85486000Y-46739434D01*
X85394800Y-46739434D01*
X85394800Y-46669900D01*
X85367430Y-46532299D01*
X85352265Y-46456057D01*
X85231132Y-46274769D01*
X79260900Y-40304538D01*
X79260900Y-38041628D01*
X79577491Y-38253168D01*
G36*
X28143200Y-27385363D02*
X28143200Y-27638542D01*
X27863819Y-27485633D01*
X27781039Y-27468096D01*
X27559000Y-27590085D01*
X27559000Y-29083000D01*
X27579000Y-29083000D01*
X27579000Y-29337000D01*
X27559000Y-29337000D01*
X27559000Y-30829915D01*
X27781039Y-30951904D01*
X27863819Y-30934367D01*
X28217212Y-30740951D01*
X28306869Y-30875131D01*
X32812264Y-35380527D01*
X32512000Y-35320801D01*
X32079491Y-35406832D01*
X31712828Y-35651829D01*
X31467831Y-36018492D01*
X31381800Y-36451001D01*
X31381800Y-37208999D01*
X31467831Y-37641508D01*
X31712828Y-38008171D01*
X32079491Y-38253168D01*
X32512000Y-38339199D01*
X32944509Y-38253168D01*
X33311172Y-38008171D01*
X33556169Y-37641508D01*
X33614560Y-37347956D01*
X33819900Y-37388800D01*
X33932066Y-37388800D01*
X33984365Y-37651725D01*
X34198979Y-37972919D01*
X33786979Y-37972560D01*
X32853085Y-38358437D01*
X32212925Y-38997481D01*
X32211841Y-38997685D01*
X32169447Y-39024965D01*
X32141006Y-39066590D01*
X32140325Y-39069954D01*
X32137948Y-39072327D01*
X31750441Y-40005546D01*
X31749560Y-41016021D01*
X32131000Y-41939177D01*
X32131000Y-42418000D01*
X32139685Y-42464159D01*
X32166965Y-42506553D01*
X32208590Y-42534994D01*
X32258000Y-42545000D01*
X32729484Y-42545000D01*
X32780595Y-42596200D01*
X24319778Y-42596200D01*
X23897108Y-42173530D01*
X24518019Y-42151014D01*
X25013880Y-41945622D01*
X25114502Y-41677107D01*
X24130000Y-40692605D01*
X24115858Y-40706748D01*
X23936253Y-40527143D01*
X23950395Y-40513000D01*
X24309605Y-40513000D01*
X25294107Y-41497502D01*
X25562622Y-41396880D01*
X25791816Y-40781358D01*
X25768014Y-40124981D01*
X25562622Y-39629120D01*
X25294107Y-39528498D01*
X24309605Y-40513000D01*
X23950395Y-40513000D01*
X23936253Y-40498858D01*
X24115858Y-40319253D01*
X24130000Y-40333395D01*
X25114502Y-39348893D01*
X25013880Y-39080378D01*
X24720135Y-38971000D01*
X25478300Y-38971000D01*
X25692144Y-38928464D01*
X25873431Y-38807331D01*
X26595032Y-38085731D01*
X26628456Y-38035709D01*
X26989771Y-38277131D01*
X27432000Y-38365096D01*
X27874229Y-38277131D01*
X28249133Y-38026629D01*
X28499635Y-37651725D01*
X28587600Y-37209496D01*
X28587600Y-36451001D01*
X28841800Y-36451001D01*
X28841800Y-37208999D01*
X28927831Y-37641508D01*
X29172828Y-38008171D01*
X29539491Y-38253168D01*
X29972000Y-38339199D01*
X30404509Y-38253168D01*
X30771172Y-38008171D01*
X31016169Y-37641508D01*
X31102200Y-37208999D01*
X31102200Y-36451001D01*
X31016169Y-36018492D01*
X30771172Y-35651829D01*
X30404509Y-35406832D01*
X29972000Y-35320801D01*
X29539491Y-35406832D01*
X29172828Y-35651829D01*
X28927831Y-36018492D01*
X28841800Y-36451001D01*
X28587600Y-36451001D01*
X28587600Y-36450504D01*
X28499635Y-36008275D01*
X28249133Y-35633371D01*
X27874229Y-35382869D01*
X27432000Y-35294904D01*
X26989771Y-35382869D01*
X26614867Y-35633371D01*
X26364365Y-36008275D01*
X26312066Y-36271200D01*
X26199900Y-36271200D01*
X25994560Y-36312044D01*
X25936169Y-36018492D01*
X25691172Y-35651829D01*
X25324509Y-35406832D01*
X24892000Y-35320801D01*
X24459491Y-35406832D01*
X24092828Y-35651829D01*
X23847831Y-36018492D01*
X23761800Y-36451001D01*
X23761800Y-37208999D01*
X23847831Y-37641508D01*
X23989413Y-37853400D01*
X23254587Y-37853400D01*
X23396169Y-37641508D01*
X23482200Y-37208999D01*
X23482200Y-36451001D01*
X23396169Y-36018492D01*
X23151172Y-35651829D01*
X22784509Y-35406832D01*
X22352000Y-35320801D01*
X22051735Y-35380527D01*
X26557132Y-30875131D01*
X26646788Y-30740951D01*
X27000181Y-30934367D01*
X27082961Y-30951904D01*
X27305000Y-30829915D01*
X27305000Y-29337000D01*
X27285000Y-29337000D01*
X27285000Y-29083000D01*
X27305000Y-29083000D01*
X27305000Y-27590085D01*
X27082961Y-27468096D01*
X27000181Y-27485633D01*
X26720800Y-27638542D01*
X26720800Y-25962963D01*
X28143200Y-27385363D01*
X28143200Y-27385363D01*
G37*
X28143200Y-27385363D02*
X28143200Y-27638542D01*
X27863819Y-27485633D01*
X27781039Y-27468096D01*
X27559000Y-27590085D01*
X27559000Y-29083000D01*
X27579000Y-29083000D01*
X27579000Y-29337000D01*
X27559000Y-29337000D01*
X27559000Y-30829915D01*
X27781039Y-30951904D01*
X27863819Y-30934367D01*
X28217212Y-30740951D01*
X28306869Y-30875131D01*
X32812264Y-35380527D01*
X32512000Y-35320801D01*
X32079491Y-35406832D01*
X31712828Y-35651829D01*
X31467831Y-36018492D01*
X31381800Y-36451001D01*
X31381800Y-37208999D01*
X31467831Y-37641508D01*
X31712828Y-38008171D01*
X32079491Y-38253168D01*
X32512000Y-38339199D01*
X32944509Y-38253168D01*
X33311172Y-38008171D01*
X33556169Y-37641508D01*
X33614560Y-37347956D01*
X33819900Y-37388800D01*
X33932066Y-37388800D01*
X33984365Y-37651725D01*
X34198979Y-37972919D01*
X33786979Y-37972560D01*
X32853085Y-38358437D01*
X32212925Y-38997481D01*
X32211841Y-38997685D01*
X32169447Y-39024965D01*
X32141006Y-39066590D01*
X32140325Y-39069954D01*
X32137948Y-39072327D01*
X31750441Y-40005546D01*
X31749560Y-41016021D01*
X32131000Y-41939177D01*
X32131000Y-42418000D01*
X32139685Y-42464159D01*
X32166965Y-42506553D01*
X32208590Y-42534994D01*
X32258000Y-42545000D01*
X32729484Y-42545000D01*
X32780595Y-42596200D01*
X24319778Y-42596200D01*
X23897108Y-42173530D01*
X24518019Y-42151014D01*
X25013880Y-41945622D01*
X25114502Y-41677107D01*
X24130000Y-40692605D01*
X24115858Y-40706748D01*
X23936253Y-40527143D01*
X23950395Y-40513000D01*
X24309605Y-40513000D01*
X25294107Y-41497502D01*
X25562622Y-41396880D01*
X25791816Y-40781358D01*
X25768014Y-40124981D01*
X25562622Y-39629120D01*
X25294107Y-39528498D01*
X24309605Y-40513000D01*
X23950395Y-40513000D01*
X23936253Y-40498858D01*
X24115858Y-40319253D01*
X24130000Y-40333395D01*
X25114502Y-39348893D01*
X25013880Y-39080378D01*
X24720135Y-38971000D01*
X25478300Y-38971000D01*
X25692144Y-38928464D01*
X25873431Y-38807331D01*
X26595032Y-38085731D01*
X26628456Y-38035709D01*
X26989771Y-38277131D01*
X27432000Y-38365096D01*
X27874229Y-38277131D01*
X28249133Y-38026629D01*
X28499635Y-37651725D01*
X28587600Y-37209496D01*
X28587600Y-36451001D01*
X28841800Y-36451001D01*
X28841800Y-37208999D01*
X28927831Y-37641508D01*
X29172828Y-38008171D01*
X29539491Y-38253168D01*
X29972000Y-38339199D01*
X30404509Y-38253168D01*
X30771172Y-38008171D01*
X31016169Y-37641508D01*
X31102200Y-37208999D01*
X31102200Y-36451001D01*
X31016169Y-36018492D01*
X30771172Y-35651829D01*
X30404509Y-35406832D01*
X29972000Y-35320801D01*
X29539491Y-35406832D01*
X29172828Y-35651829D01*
X28927831Y-36018492D01*
X28841800Y-36451001D01*
X28587600Y-36451001D01*
X28587600Y-36450504D01*
X28499635Y-36008275D01*
X28249133Y-35633371D01*
X27874229Y-35382869D01*
X27432000Y-35294904D01*
X26989771Y-35382869D01*
X26614867Y-35633371D01*
X26364365Y-36008275D01*
X26312066Y-36271200D01*
X26199900Y-36271200D01*
X25994560Y-36312044D01*
X25936169Y-36018492D01*
X25691172Y-35651829D01*
X25324509Y-35406832D01*
X24892000Y-35320801D01*
X24459491Y-35406832D01*
X24092828Y-35651829D01*
X23847831Y-36018492D01*
X23761800Y-36451001D01*
X23761800Y-37208999D01*
X23847831Y-37641508D01*
X23989413Y-37853400D01*
X23254587Y-37853400D01*
X23396169Y-37641508D01*
X23482200Y-37208999D01*
X23482200Y-36451001D01*
X23396169Y-36018492D01*
X23151172Y-35651829D01*
X22784509Y-35406832D01*
X22352000Y-35320801D01*
X22051735Y-35380527D01*
X26557132Y-30875131D01*
X26646788Y-30740951D01*
X27000181Y-30934367D01*
X27082961Y-30951904D01*
X27305000Y-30829915D01*
X27305000Y-29337000D01*
X27285000Y-29337000D01*
X27285000Y-29083000D01*
X27305000Y-29083000D01*
X27305000Y-27590085D01*
X27082961Y-27468096D01*
X27000181Y-27485633D01*
X26720800Y-27638542D01*
X26720800Y-25962963D01*
X28143200Y-27385363D01*
G36*
X77597000Y-29083000D02*
X77617000Y-29083000D01*
X77617000Y-29337000D01*
X77597000Y-29337000D01*
X77597000Y-29357000D01*
X77343000Y-29357000D01*
X77343000Y-29337000D01*
X77323000Y-29337000D01*
X77323000Y-29083000D01*
X77343000Y-29083000D01*
X77343000Y-29063000D01*
X77597000Y-29063000D01*
X77597000Y-29083000D01*
X77597000Y-29083000D01*
G37*
X77597000Y-29083000D02*
X77617000Y-29083000D01*
X77617000Y-29337000D01*
X77597000Y-29337000D01*
X77597000Y-29357000D01*
X77343000Y-29357000D01*
X77343000Y-29337000D01*
X77323000Y-29337000D01*
X77323000Y-29083000D01*
X77343000Y-29083000D01*
X77343000Y-29063000D01*
X77597000Y-29063000D01*
X77597000Y-29083000D01*
M02*
