M48
;DRILL file {KiCad 4.0.4-stable} date 12/28/16 01:03:42
;FORMAT={-:-/ absolute / inch / decimal}
FMAT,2
INCH,TZ
T1C0.016
T2C0.020
T3C0.022
T4C0.022
T5C0.030
T6C0.031
T7C0.032
T8C0.032
T9C0.035
T10C0.039
T11C0.040
T12C0.042
T13C0.059
T14C0.091
T15C0.120
%
G90
G05
M72
T1
X1.4852Y-0.6194
X1.6334Y-1.6358
X1.8826Y-1.8334
X2.2486Y-2.1924
X2.3154Y-2.2196
X2.5717Y-2.3303
X2.7434Y-1.569
X2.7987Y-2.2475
X2.9968Y-2.2678
X3.1095Y-2.3667
X3.1634Y-2.2948
X3.232Y-2.1934
X3.3773Y-2.195
X3.4333Y-2.1198
X3.4433Y-2.2959
X3.548Y-2.3609
X3.5487Y-2.1471
X3.587Y-2.045
X3.6063Y-2.0773
X3.7154Y-2.3352
X3.7155Y-2.186
X3.7182Y-2.145
X3.7365Y-2.2427
X3.753Y-2.298
X3.7982Y-2.3304
X4.0954Y-2.045
X4.0961Y-2.0941
T4
X0.8126Y-1.0403
X2.1934Y-0.4884
X2.7963Y-0.9724
X3.1646Y-0.6626
X3.4009Y-0.7831
X3.8328Y-0.7975
T5
X0.5Y-0.59
X0.5Y-0.71
X0.8753Y-0.6772
X0.8884Y-0.5696
X0.9137Y-0.7785
X0.95Y-0.4805
X0.9948Y-0.8504
X1.046Y-0.4302
X1.1Y-0.8764
X1.1544Y-0.4303
X1.2049Y-0.8506
X1.2503Y-0.4807
X1.2861Y-0.7789
X1.3118Y-0.57
X1.3247Y-0.6776
X1.6753Y-0.6772
X1.6884Y-0.5696
X1.7137Y-0.7785
X1.75Y-0.4805
X1.7948Y-0.8504
X1.846Y-0.4302
X1.9Y-0.8764
X1.935Y-1.81
X1.935Y-2.41
X1.9544Y-0.4303
X2.0049Y-0.8506
X2.035Y-1.81
X2.035Y-2.41
X2.0503Y-0.4807
X2.0861Y-0.7789
X2.1118Y-0.57
X2.1247Y-0.6776
X2.135Y-1.81
X2.135Y-2.41
X2.235Y-1.81
X2.235Y-2.41
X2.335Y-1.81
X2.335Y-2.41
X2.435Y-1.81
X2.435Y-2.41
X2.5Y-0.59
X2.5Y-0.71
X2.535Y-1.81
X2.535Y-2.41
X2.635Y-1.81
X2.635Y-2.41
X2.735Y-1.81
X2.735Y-2.41
X2.835Y-1.81
X2.835Y-2.41
X2.8753Y-0.6772
X2.8884Y-0.5696
X2.9137Y-0.7785
X2.935Y-1.81
X2.935Y-2.41
X2.95Y-0.4805
X2.9948Y-0.8504
X3.035Y-1.81
X3.035Y-2.41
X3.046Y-0.4302
X3.1Y-0.8764
X3.1544Y-0.4303
X3.2049Y-0.8506
X3.2503Y-0.4807
X3.2861Y-0.7789
X3.3118Y-0.57
X3.3247Y-0.6776
X3.6753Y-0.6772
X3.6884Y-0.5696
X3.7137Y-0.7785
X3.75Y-0.4805
X3.7948Y-0.8504
X3.846Y-0.4302
X3.9Y-0.8764
X3.9544Y-0.4303
X4.0049Y-0.8506
X4.0503Y-0.4807
X4.0861Y-0.7789
X4.1118Y-0.57
X4.1247Y-0.6776
X4.5Y-0.59
X4.5Y-0.71
T6
X0.68Y-1.15
X0.68Y-1.45
X0.78Y-1.15
X0.78Y-1.45
X0.88Y-1.15
X0.88Y-1.45
X0.98Y-1.15
X0.98Y-1.45
X1.08Y-1.15
X1.08Y-1.45
X1.18Y-1.15
X1.18Y-1.45
X1.28Y-1.15
X1.28Y-1.45
X1.38Y-1.15
X1.38Y-1.45
X1.65Y-1.15
X1.65Y-1.45
X1.75Y-1.15
X1.75Y-1.45
X1.85Y-1.15
X1.85Y-1.45
X1.95Y-1.15
X1.95Y-1.45
X2.05Y-0.2
X2.05Y-1.15
X2.05Y-1.45
X2.15Y-0.2
X2.15Y-1.15
X2.15Y-1.45
X2.25Y-0.2
X2.25Y-1.15
X2.25Y-1.45
X2.35Y-1.15
X2.35Y-1.45
X2.4Y-0.325
X2.5Y-0.325
X2.6Y-0.325
X2.65Y-1.15
X2.65Y-1.45
X2.75Y-0.2
X2.75Y-1.15
X2.75Y-1.45
X2.85Y-0.2
X2.85Y-1.15
X2.85Y-1.45
X2.95Y-0.2
X2.95Y-1.15
X2.95Y-1.45
X3.05Y-1.15
X3.05Y-1.45
X3.15Y-1.15
X3.15Y-1.45
X3.25Y-1.15
X3.25Y-1.45
X3.34Y-1.88
X3.35Y-1.15
X3.35Y-1.45
X3.62Y-1.15
X3.62Y-1.45
X3.72Y-1.15
X3.72Y-1.45
X3.72Y-1.88
X3.82Y-1.15
X3.82Y-1.45
X3.92Y-1.15
X3.92Y-1.45
X4.02Y-1.15
X4.02Y-1.45
X4.1Y-1.88
X4.12Y-1.15
X4.12Y-1.45
X4.22Y-1.15
X4.22Y-1.45
X4.32Y-1.15
X4.32Y-1.45
T7
X3.4384Y-1.88
X3.8184Y-1.88
X4.1984Y-1.88
T8
X0.5Y-0.15
X0.5Y-0.45
X0.5Y-0.825
X0.5Y-1.125
X1.35Y-1.01
X1.65Y-1.01
X1.75Y-1.56
X1.75Y-1.86
X1.75Y-1.94
X1.75Y-2.24
X2.12Y-1.01
X2.35Y-0.47
X2.42Y-1.01
X2.5Y-0.83
X2.5Y-1.13
X2.58Y-1.01
X2.65Y-0.47
X2.88Y-1.01
X3.34Y-1.01
X3.64Y-1.01
X4.5Y-0.15
X4.5Y-0.45
X4.5Y-0.83
X4.5Y-1.13
T9
X3.3Y-0.2
X3.7Y-0.2
T10
X0.5201Y-1.39
X0.5201Y-1.49
X0.5201Y-1.57
X0.5201Y-1.67
T11
X0.08Y-0.75
X0.08Y-0.85
X0.08Y-0.95
X4.92Y-0.75
X4.92Y-0.85
X4.92Y-0.95
X4.92Y-1.45
X4.92Y-1.55
X4.92Y-1.65
X4.92Y-1.75
T12
X0.75Y-1.595
X0.75Y-2.445
X0.85Y-1.595
X0.85Y-2.445
X0.95Y-1.595
X1.35Y-1.595
X1.45Y-2.445
T13
X0.13Y-2.12
X0.38Y-2.02
X4.57Y-2.12
X4.82Y-2.02
T14
X0.4151Y-1.25
X0.4151Y-1.79
T15
X0.15Y-0.15
X1.75Y-2.37
X4.3Y-0.28
X4.73Y-1.72
T2
X2.3622Y-0.0524G85X2.3622Y-0.078
G05
X2.6378Y-0.0524G85X2.6378Y-0.078
G05
T3
X2.4075Y-0.1715G85X2.3957Y-0.1715
G05
X2.6044Y-0.1715G85X2.5926Y-0.1715
G05
T10
X4.625Y-0.3266G85X4.625Y-0.4053
G05
X4.8494Y-0.2479G85X4.7706Y-0.2479
G05
X4.8494Y-0.4841G85X4.7706Y-0.4841
G05
T0
M30
