M48
;DRILL file {KiCad 4.0.4-stable} date 01/04/17 18:22:00
;FORMAT={-:-/ absolute / inch / decimal}
FMAT,2
INCH,TZ
T1C0.016
T2C0.020
T3C0.022
T4C0.030
T5C0.031
T6C0.032
T7C0.032
T8C0.035
T9C0.039
T10C0.040
T11C0.042
T12C0.059
T13C0.091
T14C0.120
%
G90
G05
M72
T1
X1.1359Y-0.6417
X2.2515Y-2.1556
X2.7096Y-2.3015
X2.7974Y-2.3272
X2.8478Y-2.1207
X3.1222Y-1.6059
X3.1334Y-2.0755
X3.2652Y-1.9521
X3.4448Y-2.0853
X3.5616Y-1.8102
X3.5665Y-2.3884
X3.5859Y-1.842
X3.641Y-1.8318
X3.7186Y-2.3477
X3.7702Y-2.145
X3.7938Y-2.2963
X3.8115Y-2.2422
X3.9125Y-1.8123
X4.2428Y-1.8513
X4.6994Y-1.5631
T4
X0.44Y-0.65
X0.56Y-0.65
X0.8803Y-0.6124
X0.8932Y-0.72
X0.9189Y-0.5111
X0.9547Y-0.8093
X1.0001Y-0.4394
X1.0506Y-0.8597
X1.105Y-0.4136
X1.159Y-0.8598
X1.2102Y-0.4396
X1.255Y-0.8095
X1.2913Y-0.5115
X1.3166Y-0.7204
X1.3297Y-0.6128
X1.6753Y-0.6124
X1.6882Y-0.72
X1.7139Y-0.5111
X1.7497Y-0.8093
X1.7951Y-0.4394
X1.8456Y-0.8597
X1.9Y-0.4136
X1.935Y-1.81
X1.935Y-2.41
X1.954Y-0.8598
X2.0052Y-0.4396
X2.035Y-1.81
X2.035Y-2.41
X2.05Y-0.8095
X2.0863Y-0.5115
X2.1116Y-0.7204
X2.1247Y-0.6128
X2.135Y-1.81
X2.135Y-2.41
X2.235Y-1.81
X2.235Y-2.41
X2.335Y-1.81
X2.335Y-2.41
X2.435Y-1.81
X2.435Y-2.41
X2.44Y-0.65
X2.535Y-1.81
X2.535Y-2.41
X2.56Y-0.65
X2.635Y-1.81
X2.635Y-2.41
X2.735Y-1.81
X2.735Y-2.41
X2.835Y-1.81
X2.835Y-2.41
X2.8753Y-0.6124
X2.8882Y-0.72
X2.9139Y-0.5111
X2.935Y-1.81
X2.935Y-2.41
X2.9497Y-0.8093
X2.9951Y-0.4394
X3.035Y-1.81
X3.035Y-2.41
X3.0456Y-0.8597
X3.1Y-0.4136
X3.154Y-0.8598
X3.2052Y-0.4396
X3.25Y-0.8095
X3.2863Y-0.5115
X3.3116Y-0.7204
X3.3247Y-0.6128
X3.6753Y-0.6124
X3.6882Y-0.72
X3.7139Y-0.5111
X3.7497Y-0.8093
X3.7951Y-0.4394
X3.8456Y-0.8597
X3.9Y-0.4136
X3.954Y-0.8598
X4.0052Y-0.4396
X4.05Y-0.8095
X4.0863Y-0.5115
X4.1116Y-0.7204
X4.1247Y-0.6128
X4.44Y-0.65
X4.56Y-0.65
T5
X0.68Y-1.15
X0.68Y-1.45
X0.78Y-1.15
X0.78Y-1.45
X0.88Y-1.15
X0.88Y-1.45
X0.98Y-1.15
X0.98Y-1.45
X1.08Y-1.15
X1.08Y-1.45
X1.18Y-1.15
X1.18Y-1.45
X1.28Y-1.15
X1.28Y-1.45
X1.38Y-1.15
X1.38Y-1.45
X1.65Y-1.15
X1.65Y-1.45
X1.75Y-1.15
X1.75Y-1.45
X1.85Y-1.15
X1.85Y-1.45
X1.95Y-1.15
X1.95Y-1.45
X2.05Y-0.2
X2.05Y-1.15
X2.05Y-1.45
X2.15Y-0.2
X2.15Y-1.15
X2.15Y-1.45
X2.25Y-0.2
X2.25Y-1.15
X2.25Y-1.45
X2.35Y-1.15
X2.35Y-1.45
X2.4Y-0.325
X2.5Y-0.325
X2.6Y-0.325
X2.65Y-1.15
X2.65Y-1.45
X2.75Y-0.2
X2.75Y-1.15
X2.75Y-1.45
X2.85Y-0.2
X2.85Y-1.15
X2.85Y-1.45
X2.95Y-0.2
X2.95Y-1.15
X2.95Y-1.45
X3.05Y-1.15
X3.05Y-1.45
X3.15Y-1.15
X3.15Y-1.45
X3.25Y-1.15
X3.25Y-1.45
X3.34Y-1.88
X3.35Y-1.15
X3.35Y-1.45
X3.62Y-1.15
X3.62Y-1.45
X3.72Y-1.15
X3.72Y-1.45
X3.72Y-1.88
X3.82Y-1.15
X3.82Y-1.45
X3.92Y-1.15
X3.92Y-1.45
X4.02Y-1.15
X4.02Y-1.45
X4.1Y-1.88
X4.12Y-1.15
X4.12Y-1.45
X4.22Y-1.15
X4.22Y-1.45
X4.32Y-1.15
X4.32Y-1.45
T6
X3.4384Y-1.88
X3.8184Y-1.88
X4.1984Y-1.88
T7
X0.5Y-0.15
X0.5Y-0.45
X0.5Y-0.825
X0.5Y-1.125
X1.35Y-1.01
X1.65Y-1.01
X1.75Y-1.56
X1.75Y-1.86
X1.75Y-1.94
X1.75Y-2.24
X2.12Y-1.01
X2.35Y-0.47
X2.42Y-1.01
X2.5Y-0.83
X2.5Y-1.13
X2.58Y-1.01
X2.65Y-0.47
X2.88Y-1.01
X3.34Y-1.01
X3.64Y-1.01
X4.5Y-0.15
X4.5Y-0.45
X4.5Y-0.83
X4.5Y-1.13
T8
X3.3Y-0.2
X3.7Y-0.2
T9
X0.5201Y-1.39
X0.5201Y-1.49
X0.5201Y-1.57
X0.5201Y-1.67
T10
X0.08Y-0.75
X0.08Y-0.85
X0.08Y-0.95
X4.92Y-0.75
X4.92Y-0.85
X4.92Y-0.95
X4.92Y-1.45
X4.92Y-1.55
X4.92Y-1.65
X4.92Y-1.75
T11
X0.75Y-1.595
X0.75Y-2.445
X0.85Y-1.595
X0.85Y-2.445
X0.95Y-1.595
X1.35Y-1.595
X1.45Y-2.445
T12
X0.13Y-2.12
X0.38Y-2.02
X4.57Y-2.12
X4.82Y-2.02
T13
X0.4151Y-1.25
X0.4151Y-1.79
T14
X0.15Y-0.15
X1.75Y-2.37
X4.3Y-0.28
X4.73Y-1.72
T2
X2.3622Y-0.0524G85X2.3622Y-0.078
G05
X2.6378Y-0.0524G85X2.6378Y-0.078
G05
T3
X2.4075Y-0.1715G85X2.3957Y-0.1715
G05
X2.6044Y-0.1715G85X2.5926Y-0.1715
G05
T9
X4.625Y-0.3266G85X4.625Y-0.4053
G05
X4.8494Y-0.2479G85X4.7706Y-0.2479
G05
X4.8494Y-0.4841G85X4.7706Y-0.4841
G05
T0
M30
