G04 #@! TF.FileFunction,Soldermask,Bot*
%FSLAX46Y46*%
G04 Gerber Fmt 4.6, Leading zero omitted, Abs format (unit mm)*
G04 Created by KiCad (PCBNEW 4.0.4-stable) date 01/05/17 23:55:13*
%MOMM*%
%LPD*%
G01*
G04 APERTURE LIST*
%ADD10C,0.100000*%
%ADD11O,1.924000X2.432000*%
%ADD12C,1.901140*%
%ADD13C,3.399740*%
%ADD14C,4.464000*%
%ADD15R,3.900120X3.900120*%
%ADD16C,2.686000*%
%ADD17C,2.178000*%
%ADD18C,2.432000*%
%ADD19O,2.000000X2.700000*%
%ADD20R,2.200000X2.200000*%
%ADD21C,2.200000*%
%ADD22C,1.797000*%
%ADD23R,1.924000X1.924000*%
%ADD24C,1.924000*%
%ADD25R,2.432000X2.127200*%
%ADD26O,2.432000X2.127200*%
%ADD27R,1.700000X1.700000*%
%ADD28C,1.700000*%
%ADD29O,1.650000X1.350000*%
G04 APERTURE END LIST*
D10*
D11*
X74549000Y-45974000D03*
X72009000Y-45974000D03*
X69469000Y-45974000D03*
X66929000Y-45974000D03*
X64389000Y-45974000D03*
X61849000Y-45974000D03*
X59309000Y-45974000D03*
X56769000Y-45974000D03*
X54229000Y-45974000D03*
X51689000Y-45974000D03*
X49149000Y-45974000D03*
X49149000Y-61214000D03*
X51689000Y-61214000D03*
X54229000Y-61214000D03*
X56769000Y-61214000D03*
X59309000Y-61214000D03*
X61849000Y-61214000D03*
X64389000Y-61214000D03*
X66929000Y-61214000D03*
X69469000Y-61214000D03*
X72009000Y-61214000D03*
X74549000Y-61214000D03*
X77089000Y-45974000D03*
X77089000Y-61214000D03*
D12*
X13210120Y-42418860D03*
X13210120Y-39878860D03*
X13210120Y-37846860D03*
X13210120Y-35306860D03*
D13*
X10543120Y-45466860D03*
X10543120Y-31750860D03*
D14*
X44450000Y-60198000D03*
X120142000Y-43688000D03*
X109220000Y-7112000D03*
D15*
X122174000Y-12804140D03*
X122174000Y-6804660D03*
X117475000Y-9804400D03*
D16*
X9652000Y-51308000D03*
X3302000Y-53848000D03*
X122428000Y-51308000D03*
X116078000Y-53848000D03*
D17*
X19050000Y-40513000D03*
X21590000Y-40513000D03*
D18*
X24130000Y-40513000D03*
D17*
X34290000Y-40513000D03*
D18*
X19050000Y-62103000D03*
D17*
X21590000Y-62103000D03*
X36830000Y-62103000D03*
D19*
X17272000Y-36830000D03*
X19812000Y-36830000D03*
X22352000Y-36830000D03*
X24892000Y-36830000D03*
X27432000Y-36830000D03*
X29972000Y-36830000D03*
X32512000Y-36830000D03*
X35052000Y-36830000D03*
X35052000Y-29210000D03*
X32512000Y-29210000D03*
X29972000Y-29210000D03*
X27432000Y-29210000D03*
X24892000Y-29210000D03*
X22352000Y-29210000D03*
X19812000Y-29210000D03*
X17272000Y-29210000D03*
X41910000Y-36830000D03*
X44450000Y-36830000D03*
X46990000Y-36830000D03*
X49530000Y-36830000D03*
X52070000Y-36830000D03*
X54610000Y-36830000D03*
X57150000Y-36830000D03*
X59690000Y-36830000D03*
X59690000Y-29210000D03*
X57150000Y-29210000D03*
X54610000Y-29210000D03*
X52070000Y-29210000D03*
X49530000Y-29210000D03*
X46990000Y-29210000D03*
X44450000Y-29210000D03*
X41910000Y-29210000D03*
X67310000Y-36830000D03*
X69850000Y-36830000D03*
X72390000Y-36830000D03*
X74930000Y-36830000D03*
X77470000Y-36830000D03*
X80010000Y-36830000D03*
X82550000Y-36830000D03*
X85090000Y-36830000D03*
X85090000Y-29210000D03*
X82550000Y-29210000D03*
X80010000Y-29210000D03*
X77470000Y-29210000D03*
X74930000Y-29210000D03*
X72390000Y-29210000D03*
X69850000Y-29210000D03*
X67310000Y-29210000D03*
X91948000Y-36830000D03*
X94488000Y-36830000D03*
X97028000Y-36830000D03*
X99568000Y-36830000D03*
X102108000Y-36830000D03*
X104648000Y-36830000D03*
X107188000Y-36830000D03*
X109728000Y-36830000D03*
X109728000Y-29210000D03*
X107188000Y-29210000D03*
X104648000Y-29210000D03*
X102108000Y-29210000D03*
X99568000Y-29210000D03*
X97028000Y-29210000D03*
X94488000Y-29210000D03*
X91948000Y-29210000D03*
D20*
X14224000Y-16510000D03*
D21*
X11176000Y-16510000D03*
D20*
X65024000Y-16510000D03*
D21*
X61976000Y-16510000D03*
D20*
X115824000Y-16510000D03*
D21*
X112776000Y-16510000D03*
D22*
X12700000Y-3810000D03*
X12700000Y-11430000D03*
X59690000Y-11684000D03*
X67310000Y-11684000D03*
X114300000Y-3810000D03*
X114300000Y-11430000D03*
X44450000Y-56896000D03*
X44450000Y-49276000D03*
X12700000Y-28575000D03*
X12700000Y-20955000D03*
X63500000Y-28702000D03*
X63500000Y-21082000D03*
X114300000Y-28702000D03*
X114300000Y-21082000D03*
X44450000Y-39624000D03*
X44450000Y-47244000D03*
X34290000Y-25654000D03*
X41910000Y-25654000D03*
X53848000Y-25654000D03*
X61468000Y-25654000D03*
X73152000Y-25654000D03*
X65532000Y-25654000D03*
X92456000Y-25654000D03*
X84836000Y-25654000D03*
D23*
X93980000Y-5080000D03*
D24*
X83820000Y-5080000D03*
D25*
X124968000Y-36830000D03*
D26*
X124968000Y-39370000D03*
X124968000Y-41910000D03*
X124968000Y-44450000D03*
D27*
X84836000Y-47752000D03*
D28*
X87336000Y-47752000D03*
D27*
X94488000Y-47752000D03*
D28*
X96988000Y-47752000D03*
D27*
X104140000Y-47752000D03*
D28*
X106640000Y-47752000D03*
D14*
X3810000Y-3810000D03*
D25*
X124968000Y-19050000D03*
D26*
X124968000Y-21590000D03*
X124968000Y-24130000D03*
D25*
X2032000Y-19050000D03*
D26*
X2032000Y-21590000D03*
X2032000Y-24130000D03*
D24*
X54610000Y-5080000D03*
X57150000Y-5080000D03*
X52070000Y-5080000D03*
X63500000Y-8509000D03*
X66040000Y-8509000D03*
X60960000Y-8509000D03*
X72390000Y-5080000D03*
X74930000Y-5080000D03*
X69850000Y-5080000D03*
D21*
X28067000Y-10506000D03*
X30739842Y-11164987D03*
X32800034Y-12990898D03*
X33775355Y-15565213D03*
X33442248Y-18297865D03*
X31877065Y-20562495D03*
X29438567Y-21840022D03*
X26685689Y-21837620D03*
X24249424Y-20555839D03*
X22688197Y-18288480D03*
X22359860Y-15555251D03*
X23339672Y-12982643D03*
X25403048Y-11160329D03*
X48260000Y-10506000D03*
X50932842Y-11164987D03*
X52993034Y-12990898D03*
X53968355Y-15565213D03*
X53635248Y-18297865D03*
X52070065Y-20562495D03*
X49631567Y-21840022D03*
X46878689Y-21837620D03*
X44442424Y-20555839D03*
X42881197Y-18288480D03*
X42552860Y-15555251D03*
X43532672Y-12982643D03*
X45596048Y-11160329D03*
X78740000Y-10506000D03*
X81412842Y-11164987D03*
X83473034Y-12990898D03*
X84448355Y-15565213D03*
X84115248Y-18297865D03*
X82550065Y-20562495D03*
X80111567Y-21840022D03*
X77358689Y-21837620D03*
X74922424Y-20555839D03*
X73361197Y-18288480D03*
X73032860Y-15555251D03*
X74012672Y-12982643D03*
X76076048Y-11160329D03*
X99060000Y-10506000D03*
X101732842Y-11164987D03*
X103793034Y-12990898D03*
X104768355Y-15565213D03*
X104435248Y-18297865D03*
X102870065Y-20562495D03*
X100431567Y-21840022D03*
X97678689Y-21837620D03*
X95242424Y-20555839D03*
X93681197Y-18288480D03*
X93352860Y-15555251D03*
X94332672Y-12982643D03*
X96396048Y-11160329D03*
D29*
X66000900Y-4610540D03*
X61000900Y-4610540D03*
M02*
